<svg id="Camada_1" data-name="Camada 1" xmlns="http://www.w3.org/2000/svg" viewBox="0 0 1080 1158.73"><defs><style>.cls-1{fill:#212d3b;}.cls-12,.cls-2{fill:#3e348a;}.cls-3{fill:#00000f;}.cls-11,.cls-4{fill:none;}.cls-4{stroke:#000;stroke-width:8px;}.cls-11,.cls-12,.cls-4,.cls-9{stroke-miterlimit:10;}.cls-5{fill:#151e27;}.cls-6{fill:#11171e;}.cls-7{font-size:138px;}.cls-7,.cls-9{fill:#3e618a;font-family:Inlanders-Bold, Inlanders;font-weight:700;}.cls-8{letter-spacing:-0.03em;}.cls-9{font-size:73.6px;}.cls-11,.cls-9{stroke:#3e618a;}.cls-10{font-size:61.33px;font-family:Humanist777BT-BlackCondensedB, Humnst777 BlkCn BT;font-weight:800;}.cls-11{stroke-width:2px;}.cls-12{stroke:#3e348a;}</style></defs><title>Baner reflexivo</title><rect class="cls-1" y="39.37" width="1080" height="1080"/><path class="cls-2" d="M627.41,285.12h32.05A68.51,68.51,0,0,1,728,353.62v47.55a84.53,84.53,0,0,1-84.53,84.53h0a84.53,84.53,0,0,1-84.53-84.53V353.62a68.51,68.51,0,0,1,68.51-68.51Z"/><path class="cls-3" d="M521.66,314.26V361.8a84.54,84.54,0,1,1-169.07,0V314.26a68.51,68.51,0,0,1,68.51-68.51h32A68.51,68.51,0,0,1,521.66,314.26Z" transform="translate(0 39.37)"/><line class="cls-4" x1="423" y1="286.55" x2="423"/><line class="cls-4" x1="450.16" y1="302.85" x2="450.16" y2="16.3"/><line class="cls-4" x1="643.44" y1="286.55" x2="643.44"/><line class="cls-4" x1="670.6" y1="308.28" x2="670.6" y2="21.73"/><path d="M305.31,189.87V324.55l34.39,31.52H735.13l31.53-31.52V189.87Z" transform="translate(0 39.37)"/><line class="cls-5" x1="738" y1="364.98" x2="336.37" y2="364.98"/><line class="cls-5" x1="336.83" y1="229.24" x2="336.83" y2="363.92"/><line class="cls-5" x1="738" y1="365.35" x2="738" y2="364.98"/><line class="cls-5" x1="738" y1="363.92" x2="738" y2="230.67"/><line class="cls-5" x1="336.83" y1="363.92" x2="322.5" y2="378.25"/><line class="cls-5" x1="752.33" y1="378.25" x2="739.06" y2="364.98"/><path d="M548.88,356.07v88.26l-6.31,6.3h-5l-5.85-5.84V356.07Z" transform="translate(0 39.37)"/><rect class="cls-6" x="332.81" y="233.59" width="406.34" height="134.72"/><polygon class="cls-6" points="332.64 368.74 339.58 395.61 305.29 364.06 332.64 368.74"/><polygon class="cls-6" points="740.35 369.03 766.73 363.97 735.29 395.42 740.35 369.03"/><path d="M343.67,144.43V190H329.86v-45.6c0-2.8,3.1-5.07,6.91-5.07h0C340.58,139.36,343.67,141.63,343.67,144.43Z" transform="translate(0 39.37)"/><path d="M744.73,144.67v45.6H730.92v-45.6c0-2.8,3.09-5.07,6.91-5.07h0C741.64,139.6,744.73,141.87,744.73,144.67Z" transform="translate(0 39.37)"/><text class="cls-7" transform="translate(60.74 743.84)">Sensor Optico <tspan x="154.48" y="165.6">reflexi</tspan><tspan class="cls-8" x="644.35" y="165.6">v</tspan><tspan x="723.05" y="165.6">o</tspan></text><text class="cls-9" transform="translate(675.46 1050.01) scale(0.98 1)">TCrt<tspan class="cls-10" x="172.79" y="0">5000</tspan></text><rect class="cls-11" x="660.96" y="981.71" width="323" height="88.91"/><path class="cls-2" d="M592.87,575.19a.73.73,0,0,0,1.22.36" transform="translate(0 39.37)"/><path class="cls-12" d="M576.54,532.06l15.06,15.06a2.47,2.47,0,0,1-1.11,4.13l-20.57,5.51a2.47,2.47,0,0,1-3-3l5.51-20.57A2.47,2.47,0,0,1,576.54,532.06Z" transform="translate(0 39.37)"/><line class="cls-2" x1="583.92" y1="579.1" x2="618.96" y2="544.06"/><path class="cls-2" d="M587.46,543.27l35-35c4.55-4.55-2.52-11.62-7.08-7.07l-35,35c-4.56,4.56,2.51,11.63,7.07,7.07Z" transform="translate(0 39.37)"/><path class="cls-12" d="M472.85,528.21l15.06-15.06a2.47,2.47,0,0,0-1.1-4.13l-20.57-5.51a2.47,2.47,0,0,0-3,3l5.52,20.57A2.46,2.46,0,0,0,472.85,528.21Z" transform="translate(0 39.37)"/><line class="cls-2" x1="480.24" y1="559.9" x2="515.27" y2="594.94"/><path class="cls-2" d="M476.7,524.07l35,35c4.55,4.55,11.63-2.52,7.07-7.08l-35-35c-4.55-4.56-11.63,2.51-7.07,7.07Z" transform="translate(0 39.37)"/></svg>