<?xml version="1.0" encoding="UTF-8" standalone="no"?>
<svg
   xmlns:dc="http://purl.org/dc/elements/1.1/"
   xmlns:cc="http://creativecommons.org/ns#"
   xmlns:rdf="http://www.w3.org/1999/02/22-rdf-syntax-ns#"
   xmlns:svg="http://www.w3.org/2000/svg"
   xmlns="http://www.w3.org/2000/svg"
   xmlns:sodipodi="http://sodipodi.sourceforge.net/DTD/sodipodi-0.dtd"
   xmlns:inkscape="http://www.inkscape.org/namespaces/inkscape"
   width="250mm"
   height="150mm"
   viewBox="0 0 250 150"
   version="1.1"
   id="svg3994"
   inkscape:version="1.0 (4035a4fb49, 2020-05-01)"
   sodipodi:docname="braco.svg">
  <defs
     id="defs3988" />
  <sodipodi:namedview
     id="base"
     pagecolor="#ffffff"
     bordercolor="#666666"
     borderopacity="1.0"
     inkscape:pageopacity="0.0"
     inkscape:pageshadow="2"
     inkscape:zoom="0.7"
     inkscape:cx="400"
     inkscape:cy="565.29"
     inkscape:document-units="mm"
     inkscape:current-layer="layer1"
     inkscape:document-rotation="0"
     showgrid="false"
     inkscape:window-width="1902"
     inkscape:window-height="1030"
     inkscape:window-x="0"
     inkscape:window-y="0"
     inkscape:window-maximized="0" />
  <metadata
     id="metadata3991">
    <rdf:RDF>
      <cc:Work
         rdf:about="">
        <dc:format>image/svg+xml</dc:format>
        <dc:type
           rdf:resource="http://purl.org/dc/dcmitype/StillImage" />
        <dc:title></dc:title>
      </cc:Work>
    </rdf:RDF>
  </metadata>
  <g
     inkscape:label="Layer 1"
     inkscape:groupmode="layer"
     id="layer1">
    <path
       id="path416"
       style="fill:#555555;fill-opacity:1;fill-rule:nonzero;stroke:none;stroke-width:0.114347"
       d="m 198.83937,4.0293343 -66.9207,3.02648 -1.1938,6.2340667 66.92069,-3.02648 1.19381,-6.2340767" />
    <path
       id="path448"
       style="fill:#1c2026;fill-opacity:1;fill-rule:nonzero;stroke:none;stroke-width:0.196413"
       d="m 43.041128,118.59787 c 1.40244,3.30049 5.52729,7.21244 8.25772,9.80681 l 0.4596,0.42777 c 4.10562,3.90492 8.78591,6.77863 13.90146,8.54613 10.62532,3.66618 20.41885,1.28715 26.204331,-6.35858 3.40856,-4.50584 5.36823,-10.27547 7.257398,-15.85078 1.246073,-3.67966 2.534973,-7.48454 4.205793,-10.74636 3.74465,-7.315416 8.3653,-15.660086 14.24432,-22.044856 5.21219,-5.66346 11.31183,-8.34939 18.8702,-10.64527 l 0.55376,-0.16994 c 5.46236,-1.6623 12.94462,-3.93709 18.49627,-3.15588 l 0.25284,-1.79277 c -5.94849,-0.83397 -13.65146,1.50847 -19.2763,3.22019 l -0.55377,0.16994 c -7.84119,2.38148 -14.19426,5.19008 -19.678,11.15004 -6.02253,6.54727 -10.72582,15.02464 -14.52206,22.447056 -1.730836,3.37816 -3.043153,7.24649 -4.310363,10.98387 -1.849938,5.444 -3.749938,11.06976 -6.983728,15.35008 -5.287821,6.98721 -14.319061,9.13391 -24.168141,5.73721 -4.87041,-1.68045 -9.328,-4.42124 -13.24332,-8.14408 l -0.45925,-0.43365 c -2.62026,-2.48968 -6.58676,-6.24695 -7.83996,-9.20271 l -1.6688,0.70577" />
    <path
       id="path450"
       style="fill:#1c2026;fill-opacity:1;fill-rule:nonzero;stroke:none;stroke-width:0.196413"
       d="m 131.55933,132.04585 c 14.72145,2.55646 26.40197,0.48842 34.70725,-6.14708 6.84458,-5.47938 11.41017,-14.0611 13.57293,-25.51469 2.42466,-12.795876 1.36872,-26.915656 0.0575,-36.513776 -0.74816,-5.48823 -1.65248,-10.06018 -2.27446,-12.92786 -1.22011,-5.5709 -1.30017,-5.58344 -1.93671,-5.71506 l -1.06312,0.69217 1.77012,0.3886 -0.88511,-0.19333 0.0496,0.9008 c -0.4488,0.0266 -0.79369,-0.27442 -0.89994,-0.57929 0.167,0.47937 13.82292,51.60333 -5.61159,74.263476 -7.95019,9.24982 -20.45297,12.4721 -37.17332,9.56467 l -0.31323,1.78137" />
    <path
       inkscape:transform-center-y="1.8475028"
       inkscape:transform-center-x="-0.5664561"
       id="path462"
       style="fill:#555555;fill-opacity:1;fill-rule:nonzero;stroke:none;stroke-width:0.196413"
       d="m 171.46862,10.046338 -6.93502,0.472559 1.81577,26.765993 6.94386,-0.481203 -1.82461,-26.75729" />
    <path
       inkscape:transform-center-y="-14.63968"
       inkscape:transform-center-x="15.749021"
       id="path464"
       style="fill:#2d2b38;fill-opacity:1;fill-rule:nonzero;stroke:none;stroke-width:0.196413"
       d="m 175.34623,21.991762 -13.66484,0.341935 0.97794,17.354294 13.66831,-0.340043 -0.98141,-17.356186" />
    <path
       id="path470"
       style="fill:#d64e1f;fill-opacity:1;fill-rule:nonzero;stroke:none;stroke-width:0.196413"
       d="m 67.648138,62.142354 c -2.12749,2.34698 -3.18814,5.28305 -3.22228,8.21839 -0.04,3.47332 1.35658,6.94047 4.14364,9.44189 l 48.253452,42.176546 10.00815,8.75018 c 5.14734,4.62025 13.07452,4.20072 17.70931,-0.92288 2.12148,-2.34537 3.18398,-5.27937 3.21648,-8.22068 0.0414,-3.46342 -1.35863,-6.93863 -4.14928,-9.44616 L 122.7063,93.872214 85.349588,61.219004 c -5.14503,-4.626 -13.08027,-4.20302 -17.70145,0.92335" />
    <path
       id="path472"
       style="fill:#d64e1f;fill-opacity:1;fill-rule:nonzero;stroke:none;stroke-width:0.196413"
       d="m 67.648138,62.142354 c -2.12749,2.34698 -3.18814,5.28305 -3.22228,8.21839 -0.04,3.47332 1.35658,6.94047 4.14364,9.44189 l 48.253452,42.176546 10.00815,8.75018 c 5.14734,4.62025 13.07452,4.20072 17.70931,-0.92288 2.12148,-2.34537 3.18398,-5.27937 3.21648,-8.22068 0.0414,-3.46342 -1.35863,-6.93863 -4.14928,-9.44616 L 122.7063,93.872214 85.349588,61.219004 c -5.14503,-4.626 -13.08027,-4.20302 -17.70145,0.92335" />
    <path
       id="path474"
       style="fill:#de5e1c;fill-opacity:1;fill-rule:nonzero;stroke:none;stroke-width:0.196413"
       d="m 88.714432,91.948694 c -0.06851,1.16896 0.389965,2.35504 1.348806,3.17356 L 106.3894,109.1252 c 1.63225,1.39634 4.08821,1.2102 5.48961,-0.41308 0.577,-0.6676 0.88265,-1.47882 0.93062,-2.29728 0.0685,-1.16895 -0.38997,-2.35503 -1.34651,-3.17932 L 95.136519,89.240414 c -1.63029,-1.39622 -4.08823,-1.21021 -5.491718,0.41492 -0.57699,0.6676 -0.882398,1.4749 -0.930369,2.29336" />
    <path
       id="path476"
       style="fill:#966578;fill-opacity:1;fill-rule:nonzero;stroke:none;stroke-width:0.196413"
       d="m 112.04747,117.80512 v 0 l 4.77514,4.17993 0.20426,0.179 c 1.1e-4,-0.002 2.3e-4,-0.004 -0.002,-0.006 l -0.2023,-0.17888 -4.77551,-4.17406 m 10.65885,-23.932916 4.10078,3.58439 v 0 l -4.10078,-3.58439" />
    <path
       id="path478"
       style="fill:#c23322;fill-opacity:1;fill-rule:nonzero;stroke:none;stroke-width:0.196413"
       d="m 93.249349,68.124474 c 0.74667,2.08517 1.04754,4.27977 0.92062,6.44536 -0.0337,0.57566 -0.0971,1.15155 -0.19157,1.72169 l 24.330961,21.26823 2.3562,2.05375 c -1.47196,1.045426 -2.74159,2.303136 -3.65639,3.960826 -2.28736,4.10001 -4.35445,9.21496 -4.96147,14.22687 l -2.4e-4,0.004 4.77549,4.17406 0.2023,0.17889 c -0.16835,-1.16123 -0.22138,-2.34123 -0.15206,-3.52389 0.14162,-2.41622 0.79407,-4.8418 2.00141,-7.12089 v 0 l 7.93246,-14.056676 -4.10078,-3.58437 -29.456951,-25.74774" />
    <path
       id="path480"
       style="fill:#d64e1f;fill-opacity:1;fill-rule:nonzero;stroke:none;stroke-width:0.196413"
       d="m 31.183548,77.935614 -19.07524,-1.11801 -3.3938503,57.905136 19.0752403,1.11801 c 15.81386,0.92686 29.41122,-10.91947 30.68744,-26.57656 0.0191,-0.22289 0.0398,-0.44762 0.0526,-0.6669 0.89687,-15.302096 -10.27715,-28.531526 -25.28738,-30.464396 -0.68026,-0.0912 -1.36597,-0.15679 -2.05907,-0.19741" />
    <path
       id="path482"
       style="fill:#cd3e21;fill-opacity:1;fill-rule:nonzero;stroke:none;stroke-width:0.196413"
       d="m 12.108308,76.817604 -3.3938503,57.905136 4.4060803,0.25824 c -0.12872,-1.50077 -0.1445,-2.98509 -0.0583,-4.45558 0.31766,-5.41986 2.02193,-10.63073 4.57243,-15.55624 -1.45817,-3.1898 -2.07,-6.63452 -1.87123,-10.02586 0.30779,-5.251466 2.56035,-10.371256 6.62659,-14.198036 0.004,-0.001 0.006,-0.006 0.0117,-0.009 0.0234,-0.0204 0.0416,-0.041 0.0668,-0.0609 0.31076,-0.29028 0.63049,-0.57212 0.96374,-0.84534 0.073,-0.0625 0.14738,-0.12297 0.22129,-0.18352 0.0232,-0.0143 0.0409,-0.0288 0.0585,-0.0456 l 15.39142,-10.08488 c -1.86899,-0.65183 -3.82947,-1.12037 -5.85917,-1.38276 -0.68032,-0.0911 -1.36604,-0.15679 -2.05914,-0.19741 l -19.07528,-1.11801" />
    <path
       id="path484"
       style="fill:#f46e16;fill-opacity:1;fill-rule:nonzero;stroke:none;stroke-width:0.196413"
       d="m 88.056315,86.369484 c 7.062324,-5.63166 8.201314,-15.92119 2.549524,-22.96017 -5.659101,-7.04921 -15.965951,-8.18182 -23.036381,-2.5467 l -43.85898,28.73795 c -9.1796,7.33284 -10.66208,20.692816 -3.30636,29.855366 7.35413,9.15656 20.76147,10.63593 29.94094,3.30505 L 88.056315,86.369484" />
    <path
       id="path486"
       style="fill:#f46e16;fill-opacity:1;fill-rule:nonzero;stroke:none;stroke-width:0.196413"
       d="m 88.056315,86.369484 c 7.062324,-5.63166 8.201314,-15.92119 2.549524,-22.96017 -5.659101,-7.04921 -15.965951,-8.18182 -23.036381,-2.5467 l -43.85898,28.73795 c -9.1796,7.33284 -10.66208,20.692816 -3.30636,29.855366 7.35413,9.15656 20.76147,10.63593 29.94094,3.30505 L 88.056315,86.369484" />
    <path
       id="path488"
       style="fill:#c23322;fill-opacity:1;fill-rule:nonzero;stroke:none;stroke-width:0.196413"
       d="m 20.404118,119.45593 v 0 c 2.98572,3.71747 6.96388,6.16689 11.24907,7.27665 0,0 0,0 -7.5e-4,-5e-5 -4.28696,-1.11379 -8.26511,-3.56321 -11.24714,-7.27653 v 0" />
    <path
       id="path490"
       style="fill:#b82a22;fill-opacity:1;fill-rule:nonzero;stroke:none;stroke-width:0.196413"
       d="m 22.390278,90.745284 c 0.004,-0.001 0.006,-0.006 0.0117,-0.009 -0.004,0.004 -0.006,0.007 -0.0117,0.009 m 0.0768,-0.0702 c 0.31077,-0.29027 0.6305,-0.57212 0.96374,-0.84534 -0.33324,0.27319 -0.65319,0.55508 -0.96374,0.84534" />
    <path
       id="path492"
       style="fill:#966578;fill-opacity:1;fill-rule:nonzero;stroke:none;stroke-width:0.196413"
       d="m 39.103978,79.513854 v 0 l 28.46548,-18.65124 c 3.30061,-2.62992 7.30684,-3.78617 11.21591,-3.55314 1.45101,0.0851 2.88871,0.36385 4.27218,0.82806 -1.38913,-0.46851 -2.83665,-0.74784 -4.29356,-0.83323 -3.90143,-0.22866 -7.89798,0.93011 -11.19453,3.55831 l -28.46548,18.65124" />
    <path
       id="path494"
       style="fill:#e7431f;fill-opacity:1;fill-rule:nonzero;stroke:none;stroke-width:0.196413"
       d="m 15.763818,104.94137 c -0.29654,5.05957 1.2123,10.24265 4.6403,14.51456 v 0 c 2.98202,3.71333 6.96017,6.16274 11.24713,7.27653 -2.39579,-1.31141 -4.58441,-3.09796 -6.40396,-5.36584 -3.42636,-4.26789 -4.93526,-9.449 -4.63883,-14.50662 0.33969,-5.7958 3.04793,-11.429206 7.94907,-15.348516 l 43.85519,-28.74015 c 3.29839,-2.62613 7.29472,-3.78097 11.19614,-3.5523 v 0 0 c 0.86984,0.051 1.73552,0.17243 2.58356,0.35969 -0.99568,-0.59278 -2.04907,-1.07496 -3.13487,-1.44118 -1.38347,-0.4642 -2.82118,-0.74298 -4.27219,-0.82803 -3.90906,-0.23292 -7.91529,0.92321 -11.2159,3.55313 l -28.46549,18.65123 -15.39349,10.08672 c -0.0178,0.0167 -0.0353,0.0314 -0.0585,0.0456 -0.0744,0.0605 -0.14892,0.12093 -0.22185,0.18349 -0.33323,0.2732 -0.65318,0.55507 -0.96374,0.84534 -0.0235,0.0203 -0.0471,0.0407 -0.0667,0.0609 -0.004,0.004 -0.006,0.007 -0.0117,0.009 -4.06624,3.82677 -6.31869,8.94461 -6.62648,14.196076" />
    <path
       id="path496"
       style="fill:#f46e16;fill-opacity:1;fill-rule:nonzero;stroke:none;stroke-width:0.196127"
       d="m 182.89043,52.935144 c 3.46741,-6.51831 0.96242,-14.605187 -5.59915,-18.055667 -6.56178,-3.4466 -14.69104,-0.95701 -18.16205,5.55515 l -40.2588,71.150153 c -4.50821,8.47708 -1.25487,18.99004 7.27345,23.47461 8.53167,4.49457 19.10036,1.26054 23.6049,-7.22068 l 33.14165,-74.903566" />
    <path
       id="path498"
       style="fill:#2b2226;fill-opacity:1;fill-rule:nonzero;stroke:none;stroke-width:0.196413"
       d="m 163.9378,35.035247 c 0.002,-0.002 0.006,-0.004 0.008,-0.005 -0.002,0.002 -0.006,0.004 -0.008,0.005" />
    <path
       id="path500"
       style="fill:#9f82ab;fill-opacity:1;fill-rule:nonzero;stroke:none;stroke-width:0.196413"
       d="m 172.79117,33.133547 0.002,0.002 c 1.08907,0.14237 2.17207,0.42203 3.22706,0.8434 -1.05499,-0.42139 -2.13984,-0.70307 -3.22891,-0.84548" />
    <path
       id="path502"
       style="fill:#2b2226;fill-opacity:1;fill-rule:nonzero;stroke:none;stroke-width:0.196413"
       d="m 163.95421,35.024427 c 2.62024,-1.61079 5.74775,-2.29592 8.83881,-1.88881 l -0.002,-0.002 c -0.32262,-0.0425 -0.64591,-0.0729 -0.96792,-0.0918 -2.77046,-0.16238 -5.5226,0.53886 -7.86905,1.98296" />
    <path
       id="path504"
       style="fill:#f1551a;fill-opacity:1;fill-rule:nonzero;stroke:none;stroke-width:0.196413"
       d="m 116.889,118.62723 c -0.1957,3.35614 0.59308,6.69335 2.23447,9.5972 -0.87534,-2.28916 -1.26364,-4.75413 -1.11953,-7.22719 0.1408,-2.41626 0.79035,-4.84005 1.99667,-7.11527 l 40.24636,-71.363106 c 2.53897,-4.790607 7.57772,-7.410997 12.67098,-7.112477 1.86139,0.1091 3.72974,0.60567 5.48799,1.53785 2.2635,1.18774 4.04325,2.93459 5.25992,4.978527 -1.08527,-3.048077 -3.27636,-5.714977 -6.37289,-7.348417 -0.42438,-0.22333 -0.85414,-0.42143 -1.28921,-0.59627 -1.05511,-0.42139 -2.13819,-0.70098 -3.22727,-0.84342 -3.09115,-0.40711 -6.21836,0.27801 -8.838,1.88884 -0.002,0.002 -0.004,0.004 -0.008,0.005 -0.002,0.002 -0.006,0.004 -0.008,0.005 -1.95803,1.21145 -3.63295,2.94053 -4.7903,5.11843 l -40.24641,71.361963 v 0 c -1.20644,2.27718 -1.85599,4.70097 -1.99656,7.11332" />
    <path
       id="path506"
       style="fill:#dae3ec;fill-opacity:1;fill-rule:nonzero;stroke:none;stroke-width:0.196413"
       d="m 36.460288,94.399184 c 7.11957,0.41728 12.54904,6.509966 12.13314,13.605906 -0.41647,7.10573 -6.52051,12.52242 -13.64007,12.10513 -7.11764,-0.41716 -12.553,-6.51018 -12.13653,-13.61591 0.4159,-7.095946 6.52583,-12.512296 13.64346,-12.095126" />
    <path
       id="path508"
       style="fill:#2d2b38;fill-opacity:1;fill-rule:nonzero;stroke:none;stroke-width:0.196413"
       d="m 25.848448,106.672 c -0.31789,5.42377 3.8491,10.09658 9.2821,10.41501 5.43882,0.31877 10.11733,-3.8356 10.43521,-9.25937 0.31744,-5.41595 -3.84384,-10.086466 -9.28266,-10.405236 -5.43299,-0.31843 -10.11722,3.833646 -10.43465,9.249596" />
    <path
       id="path510"
       style="fill:#dae3ec;fill-opacity:1;fill-rule:nonzero;stroke:none;stroke-width:0.196413"
       d="m 79.656058,62.085784 c 5.16394,0.30266 9.097792,4.71817 8.795969,9.86781 -0.301479,5.14379 -4.723639,9.05973 -9.887589,8.75706 -5.15415,-0.30208 -9.09447,-4.70815 -8.79299,-9.85194 0.30182,-5.14964 4.73045,-9.07502 9.88461,-8.77293" />
    <path
       id="path512"
       style="fill:#2d2b38;fill-opacity:1;fill-rule:nonzero;stroke:none;stroke-width:0.196413"
       d="m 71.972528,70.987724 c -0.2301,3.92587 2.79128,7.30359 6.72022,7.53386 3.94266,0.23108 7.33598,-2.77066 7.56607,-6.69653 0.23044,-3.93175 -2.78875,-7.31323 -6.73141,-7.54431 -3.92894,-0.23028 -7.32444,2.77523 -7.55488,6.70698" />
    <path
       id="path514"
       style="fill:#dae3ec;fill-opacity:1;fill-rule:nonzero;stroke:none;stroke-width:0.196413"
       d="m 173.29323,36.803687 c 5.51025,1.3525 8.87097,6.907397 7.51294,12.395947 -1.35432,5.4927 -6.9156,8.84283 -12.42564,7.48642 -5.50472,-1.34629 -8.87375,-6.89381 -7.50936,-12.38984 1.35443,-5.494657 6.91768,-8.844687 12.42206,-7.492527" />
    <path
       id="path516"
       style="fill:#2d2b38;fill-opacity:1;fill-rule:nonzero;stroke:none;stroke-width:0.196413"
       d="m 163.2133,44.875564 c -1.03351,4.18723 1.54458,8.43882 5.75389,9.46553 4.20076,1.03801 8.46485,-1.5256 9.49882,-5.7207 1.03593,-4.19496 -1.54447,-8.440757 -5.75148,-9.473247 -4.20502,-1.03238 -8.46542,1.53539 -9.50123,5.728417" />
    <path
       id="path518"
       style="fill:#dae3ec;fill-opacity:1;fill-rule:nonzero;stroke:none;stroke-width:0.196413"
       d="m 134.40791,110.40389 c 5.76871,0.33811 10.17617,5.27848 9.83923,11.02728 -0.33752,5.7586 -5.29193,10.15026 -11.06064,9.81215 -5.76675,-0.33799 -10.17225,-5.27824 -9.83473,-11.03684 0.33694,-5.7488 5.28939,-10.14058 11.05614,-9.80259" />
    <path
       id="path520"
       style="fill:#2d2b38;fill-opacity:1;fill-rule:nonzero;stroke:none;stroke-width:0.196413"
       d="m 125.81396,120.35079 c -0.25775,4.39776 3.11434,8.17914 7.51645,8.43715 4.40212,0.25801 8.19677,-3.10332 8.45452,-7.50108 0.2573,-4.38992 -3.11859,-8.17349 -7.5207,-8.4315 -4.40212,-0.25801 -8.19297,3.10551 -8.45027,7.49543" />
    <path
       id="path522"
       style="fill:#2d2b38;fill-opacity:1;fill-rule:nonzero;stroke:none;stroke-width:0.196413"
       d="m 1.0160081,139.87897 4.04879,-69.079686 7.3709199,0.43202 -4.0487903,69.079676 -7.3709196,-0.43201" />
    <path
       id="path524"
       style="fill:#1c1b1c;fill-opacity:1;fill-rule:nonzero;stroke:none;stroke-width:0.196413"
       d="m 0.99349711,140.00105 -0.360244,-81.073646 7.39342059,0.30993 0.360254,81.073646 -7.39343059,-0.30993" />
    <path
       id="path528"
       style="fill:#f57d14;fill-opacity:1;fill-rule:nonzero;stroke:none;stroke-width:0.196413"
       d="m 143.95063,105.6485 c -0.11866,2.02462 1.01451,4.00275 2.98718,4.86892 2.53751,1.11145 5.499,-0.0353 6.61063,-2.56364 l 15.18815,-33.778116 c 0.24762,-0.56117 0.38431,-1.14455 0.41817,-1.72218 0.11889,-2.02852 -1.01627,-4.00678 -2.99481,-4.87327 -2.52944,-1.11493 -5.49311,0.0357 -6.60648,2.55992 l -15.18248,33.782406 c -0.24976,0.563 -0.38638,1.14638 -0.42035,1.72596" />
    <path
       id="path530"
       style="fill:#f57d14;fill-opacity:1;fill-rule:nonzero;stroke:none;stroke-width:0.196413"
       d="m 51.643678,104.90663 c -0.0809,1.38042 0.40805,2.78638 1.46558,3.83664 1.96442,1.94827 5.14437,1.94799 7.09715,-0.006 l 16.22831,-16.262186 c 0.89785,-0.89832 1.38135,-2.05472 1.45021,-3.22956 0.0809,-1.38042 -0.4099,-2.78844 -1.46918,-3.84274 -1.96416,-1.95217 -5.14042,-1.94776 -7.09134,0.009 l -16.22623,16.260326 c -0.90193,0.90005 -1.38553,2.05842 -1.4545,3.23521" />
    <rect
       transform="matrix(-0.99999987,5.0450517e-4,-6.9429595e-4,-0.99999976,0,0)"
       style="fill:#222222;fill-opacity:1;fill-rule:evenodd;stroke-width:0.245321"
       id="rect896"
       width="217.71356"
       height="7.1815476"
       x="-217.68779"
       y="-7.6960068" />
  </g>
</svg>
