<?xml version="1.0" encoding="UTF-8" standalone="no"?>
<svg
   xmlns:dc="http://purl.org/dc/elements/1.1/"
   xmlns:cc="http://creativecommons.org/ns#"
   xmlns:rdf="http://www.w3.org/1999/02/22-rdf-syntax-ns#"
   xmlns:svg="http://www.w3.org/2000/svg"
   xmlns="http://www.w3.org/2000/svg"
   xmlns:sodipodi="http://sodipodi.sourceforge.net/DTD/sodipodi-0.dtd"
   xmlns:inkscape="http://www.inkscape.org/namespaces/inkscape"
   width="220mm"
   height="297mm"
   viewBox="0 0 220 297"
   version="1.1"
   id="svg3994"
   inkscape:version="1.0 (4035a4fb49, 2020-05-01)"
   sodipodi:docname="braco.svg">
  <defs
     id="defs3988" />
  <sodipodi:namedview
     id="base"
     pagecolor="#ffffff"
     bordercolor="#666666"
     borderopacity="1.0"
     inkscape:pageopacity="0.0"
     inkscape:pageshadow="2"
     inkscape:zoom="0.7"
     inkscape:cx="400"
     inkscape:cy="560"
     inkscape:document-units="mm"
     inkscape:current-layer="layer1"
     inkscape:document-rotation="0"
     showgrid="false"
     inkscape:window-width="1902"
     inkscape:window-height="1030"
     inkscape:window-x="0"
     inkscape:window-y="0"
     inkscape:window-maximized="0" />
  <metadata
     id="metadata3991">
    <rdf:RDF>
      <cc:Work
         rdf:about="">
        <dc:format>image/svg+xml</dc:format>
        <dc:type
           rdf:resource="http://purl.org/dc/dcmitype/StillImage" />
        <dc:title></dc:title>
      </cc:Work>
    </rdf:RDF>
  </metadata>
  <g
     inkscape:label="Layer 1"
     inkscape:groupmode="layer"
     id="layer1">
    <path
       id="path416"
       style="fill:#555555;fill-opacity:1;fill-rule:nonzero;stroke:none;stroke-width:0.172502"
       d="m 220.60246,4.0766968 -0.97778,117.3093432 -8.04026,2.01191 0.97778,-117.3093393 8.04026,-2.0119139" />
    <path
       id="path448"
       style="fill:#1c2026;fill-opacity:1;fill-rule:nonzero;stroke:none;stroke-width:0.257323"
       d="m 66.080627,235.18161 c -4.180076,-2.10172 -8.947096,-7.83596 -12.108942,-11.63207 l -0.520621,-0.63829 c -4.759367,-5.70838 -8.13558,-12.09397 -10.041879,-18.96737 -3.952946,-14.27613 -0.11741,-26.99023 10.253686,-34.01931 6.111893,-4.14116 13.754953,-6.27662 21.140262,-8.33423 4.874196,-1.35703 9.914275,-2.76077 14.278087,-4.70941 9.786684,-4.3669 20.97692,-9.80802 29.71732,-17.05764 7.75278,-6.42712 11.70573,-14.25278 15.26314,-24.02966 l 0.26288,-0.71616 c 2.5749,-7.06542 6.09912,-16.743699 5.50707,-24.115285 l 2.34779,-0.194616 c 0.63036,7.898316 -2.99853,17.862021 -5.64999,25.137601 l -0.26289,0.71617 c -3.69009,10.14274 -7.82168,18.29272 -15.98023,25.05455 -8.9624,7.42608 -20.331282,12.9658 -30.260871,17.39238 -4.519479,2.01869 -9.643772,3.44838 -14.594533,4.82877 -7.211776,2.01609 -14.663435,4.08407 -20.469097,8.01247 -9.477892,6.42453 -12.953637,18.15263 -9.291608,31.38568 1.811882,6.54386 5.032424,12.62588 9.569771,18.06959 l 0.528287,0.63829 c 3.034257,3.64296 7.61243,9.1567 11.356124,11.03527 l -1.043742,2.14327" />
    <path
       id="path450"
       style="fill:#1c2026;fill-opacity:1;fill-rule:nonzero;stroke:none;stroke-width:0.257323"
       d="m 55.352277,117.56842 c -2.199767,-19.584921 1.3755,-34.80811 10.626273,-45.233679 7.637951,-8.591101 19.131878,-13.941405 34.173,-15.905607 16.80451,-2.2055 35.06362,0.275011 47.43032,2.742622 7.07143,1.408935 12.94087,2.952786 16.61821,3.993265 7.14288,2.036846 7.15309,2.143242 7.27558,2.991704 l -0.97995,1.346665 -0.37,-2.361189 0.18373,1.180587 -1.16623,-0.134889 c -0.0687,0.588992 0.29601,1.066435 0.6839,1.229895 -0.6099,-0.256918 -65.9727,-22.187404 -96.884318,1.658029 -12.61934,9.756123 -17.756387,25.973088 -15.252936,48.217587 l -2.337579,0.27501" />
    <path
       id="path462"
       style="fill:#555555;fill-opacity:1;fill-rule:nonzero;stroke:none;stroke-width:0.257323"
       d="m 217.76134,58.097474 1.59865,9.025628 -34.35329,6.266202 -1.59044,-9.039764 34.34508,-6.252066" />
    <path
       id="path464"
       style="fill:#2d2b38;fill-opacity:1;fill-rule:nonzero;stroke:none;stroke-width:0.257323"
       d="m 196.98273,56.42631 3.09375,17.797021 -22.20881,3.995035 -3.09707,-17.80094 22.21213,-3.991116" />
    <path
       inkscape:transform-center-y="-7.0711127"
       inkscape:transform-center-x="-62.800611"
       id="path466"
       style="fill:#dae3ec;fill-opacity:1;fill-rule:nonzero;stroke:none;stroke-width:0.257323"
       d="m 199.64662,51.671051 4.46146,25.882684 -5.74009,1.02158 -4.45812,-25.878753 5.73675,-1.025511" />
    <path
       id="path470"
       style="fill:#d64e1f;fill-opacity:1;fill-rule:nonzero;stroke:none;stroke-width:0.257323"
       d="m 141.28114,207.13277 c -3.21034,2.62067 -7.1046,3.79088 -10.91976,3.60926 -4.51438,-0.21536 -8.91136,-2.32228 -11.94817,-6.18581 L 67.305554,137.75269 56.702256,123.89693 c -5.609163,-7.13547 -4.460791,-17.54288 2.546832,-23.25125 3.207788,-2.612879 7.099494,-3.78568 10.922297,-3.60146 4.501618,0.212784 8.908813,2.324864 11.953275,6.19358 l 22.13551,28.93626 39.56779,51.71785 c 5.61682,7.13287 4.46335,17.55065 -2.54682,23.24086" />
    <path
       id="path472"
       style="fill:#d64e1f;fill-opacity:1;fill-rule:nonzero;stroke:none;stroke-width:0.257323"
       d="m 141.28114,207.13277 c -3.21034,2.62067 -7.1046,3.79088 -10.91976,3.60926 -4.51438,-0.21536 -8.91136,-2.32228 -11.94817,-6.18581 L 67.305554,137.75269 56.702256,123.89693 c -5.609163,-7.13547 -4.460791,-17.54288 2.546832,-23.25125 3.207788,-2.612879 7.099494,-3.78568 10.922297,-3.60146 4.501618,0.212784 8.908813,2.324864 11.953275,6.19358 l 22.13551,28.93626 39.56779,51.71785 c 5.61682,7.13287 4.46335,17.55065 -2.54682,23.24086" />
    <path
       id="path474"
       style="fill:#de5e1c;fill-opacity:1;fill-rule:nonzero;stroke:none;stroke-width:0.257323"
       d="m 104.17085,177.08857 c -1.52351,0 -3.02915,-0.69535 -4.0193,-2.02129 L 83.206683,152.48549 c -1.689383,-2.25741 -1.260654,-5.47744 0.954427,-7.19774 0.911037,-0.70837 1.987961,-1.04827 3.054669,-1.04827 1.523505,0 3.029149,0.69535 4.026957,2.01869 l 16.934654,22.58181 c 1.68938,2.2548 1.26066,5.47745 -0.95698,7.20034 -0.91103,0.70836 -1.98285,1.04825 -3.04956,1.04825" />
    <path
       id="path476"
       style="fill:#966578;fill-opacity:1;fill-rule:nonzero;stroke:none;stroke-width:0.257323"
       d="m 72.363498,144.36403 v 0 l -5.065598,-6.61134 -0.216942,-0.2828 c 0.0024,0 0.0051,0 0.008,0.002 l 0.216943,0.28023 5.057936,6.61134 m 31.896683,-12.18997 -4.343406,-5.67724 v 0 l 4.343406,5.67724" />
    <path
       id="path478"
       style="fill:#c23322;fill-opacity:1;fill-rule:nonzero;stroke:none;stroke-width:0.257323"
       d="m 135.46017,172.95519 c -2.65148,-1.14427 -5.47903,-1.70992 -8.30147,-1.70992 -0.75027,0 -1.50308,0.039 -2.2508,0.11937 l -25.772018,-33.68461 -2.488143,-3.26155 c -1.469918,1.85781 -3.20013,3.4328 -5.422865,4.50959 -5.499431,2.69591 -12.300341,5.02337 -18.856269,5.43595 h -0.0051 l -5.057944,-6.61134 -0.216943,-0.28023 c 1.495437,0.31134 3.024049,0.47227 4.565421,0.47227 3.149094,0 6.349222,-0.67203 9.401337,-2.08615 v 0 l 18.861377,-9.36174 4.343387,5.67724 31.2,40.78113" />
    <path
       id="path480"
       style="fill:#d64e1f;fill-opacity:1;fill-rule:nonzero;stroke:none;stroke-width:0.257323"
       d="m 117.99215,253.93622 v 25.20769 H 42.523683 v -25.20769 c 0,-20.89781 16.421722,-37.89061 36.855092,-38.36282 0.290945,-0.008 0.584422,-0.0177 0.870209,-0.0177 19.943396,0 36.275806,15.73692 37.643646,35.65402 0.0667,0.90291 0.0996,1.81105 0.0996,2.72697" />
    <path
       id="path482"
       style="fill:#cd3e21;fill-opacity:1;fill-rule:nonzero;stroke:none;stroke-width:0.257323"
       d="M 117.99215,279.14391 H 42.523683 v -5.82259 c 1.93948,0.28537 3.866192,0.42072 5.782697,0.42072 7.063764,0 13.961651,-1.84224 20.553307,-4.82097 4.032062,2.16658 8.459671,3.23822 12.879634,3.23822 6.844298,0 13.665621,-2.57135 18.945579,-7.63106 0.002,-0.005 0.008,-0.008 0.013,-0.0147 0.0282,-0.0294 0.0564,-0.0516 0.0842,-0.0832 0.40068,-0.38687 0.7911,-0.78618 1.17134,-1.20395 0.0867,-0.0913 0.17094,-0.18461 0.25521,-0.27729 0.0203,-0.0294 0.0405,-0.0515 0.0637,-0.0735 l 14.27045,-19.49145 c 0.70435,2.51169 1.16367,5.12973 1.34996,7.82303 0.0665,0.90298 0.0996,1.81111 0.0996,2.72705 v 25.20768" />
    <path
       id="path484"
       style="fill:#f46e16;fill-opacity:1;fill-rule:nonzero;stroke:none;stroke-width:0.257323"
       d="m 111.36732,178.38593 c 7.85231,-8.86614 21.30357,-9.5719 30.01589,-1.58537 8.72507,7.99692 9.41155,21.65808 1.55413,30.53461 l -40.66513,55.54242 c -10.223061,11.52317 -27.688523,12.44432 -39.02934,2.04987 -11.333155,-10.39188 -12.233986,-28.16303 -2.013474,-39.6862 l 50.137924,-46.85533" />
    <path
       id="path486"
       style="fill:#f46e16;fill-opacity:1;fill-rule:nonzero;stroke:none;stroke-width:0.257323"
       d="m 111.36732,178.38593 c 7.85231,-8.86614 21.30357,-9.5719 30.01589,-1.58537 8.72507,7.99692 9.41155,21.65808 1.55413,30.53461 l -40.66513,55.54242 c -10.223061,11.52317 -27.688523,12.44432 -39.02934,2.04987 -11.333155,-10.39188 -12.233986,-28.16303 -2.013474,-39.6862 l 50.137924,-46.85533" />
    <path
       id="path488"
       style="fill:#c23322;fill-opacity:1;fill-rule:nonzero;stroke:none;stroke-width:0.257323"
       d="m 63.24287,264.92746 v 0 c -4.601142,-4.21902 -7.479725,-9.64716 -8.594923,-15.37627 0,0 0,0 0,0.001 1.120298,5.73174 3.998881,11.15989 8.594923,15.3737 v 0" />
    <path
       id="path490"
       style="fill:#b82a22;fill-opacity:1;fill-rule:nonzero;stroke:none;stroke-width:0.257323"
       d="m 100.6849,264.52787 c 0.002,-0.005 0.008,-0.008 0.013,-0.0147 -0.005,0.006 -0.0102,0.008 -0.013,0.0147 m 0.097,-0.0957 c 0.40068,-0.38689 0.7911,-0.7862 1.17134,-1.20397 -0.38021,0.41777 -0.77069,0.81738 -1.17134,1.20397" />
    <path
       id="path492"
       style="fill:#966578;fill-opacity:1;fill-rule:nonzero;stroke:none;stroke-width:0.257323"
       d="m 116.54519,243.3835 v 0 l 26.39215,-36.04833 c 3.66713,-4.14377 5.4739,-9.33059 5.46881,-14.49667 0,-1.91749 -0.25268,-3.8324 -0.75028,-5.69022 0.50275,1.86561 0.75537,3.79348 0.75537,5.71876 0,5.1557 -1.80931,10.32956 -5.4739,14.46813 l -26.39215,36.04833" />
    <path
       id="path494"
       style="fill:#e7431f;fill-opacity:1;fill-rule:nonzero;stroke:none;stroke-width:0.257323"
       d="m 81.741868,272.15891 c -6.594202,0 -13.211379,-2.38716 -18.498998,-7.23145 v 0 c -4.596042,-4.21381 -7.474625,-9.64195 -8.594923,-15.3737 1.520951,3.25639 3.674791,6.27662 6.481918,8.84796 5.282512,4.8418 11.897136,7.2289 18.488792,7.2289 7.553735,0 15.076849,-3.13182 20.540543,-9.28391 l 40.66769,-55.53726 c 3.66203,-4.14116 5.46624,-9.31502 5.46624,-14.47071 v 0 0 c 0,-1.14947 -0.0918,-2.29892 -0.27053,-3.43022 0.69414,1.35705 1.24023,2.78154 1.63324,4.23976 0.49761,1.85782 0.75026,3.77273 0.75026,5.69022 0.005,5.16608 -1.80167,10.3529 -5.46881,14.49667 l -26.39213,36.04833 -14.27299,19.49409 c -0.0231,0.0222 -0.0434,0.0441 -0.0637,0.0735 -0.0842,0.0934 -0.1684,0.18681 -0.25521,0.27801 -0.38021,0.41778 -0.77068,0.81738 -1.17134,1.20397 -0.0282,0.0295 -0.0564,0.0588 -0.0842,0.0832 -0.005,0.006 -0.0102,0.008 -0.013,0.0147 -5.279952,5.05971 -12.09873,7.63106 -18.943027,7.63106" />
    <path
       id="path496"
       style="fill:#f46e16;fill-opacity:1;fill-rule:nonzero;stroke:none;stroke-width:0.257323"
       d="m 162.34227,56.07367 c 8.7557,-4.06332 19.09871,-0.140122 23.09249,8.767539 3.98867,8.907661 0.12508,19.421429 -8.623,23.48996 L 81.055399,135.85857 C 69.668655,141.1414 56.222494,136.04539 51.031852,124.46776 45.82845,112.88495 50.848112,99.215998 62.239962,93.938345 L 162.34227,56.07367" />
    <path
       id="path498"
       style="fill:#2b2226;fill-opacity:1;fill-rule:nonzero;stroke:none;stroke-width:0.257323"
       d="m 183.81938,82.41522 c 0.002,-0.0026 0.005,-0.0078 0.007,-0.01043 -0.002,0.0026 -0.005,0.0078 -0.007,0.01043" />
    <path
       id="path500"
       style="fill:#9f82ab;fill-opacity:1;fill-rule:nonzero;stroke:none;stroke-width:0.257323"
       d="m 186.96338,70.902468 -0.002,-0.0026 c -0.10206,-1.44525 -0.38282,-2.893104 -0.84979,-4.315016 0.467,1.421912 0.75026,2.872356 0.85234,4.31762" />
    <path
       id="path502"
       style="fill:#2b2226;fill-opacity:1;fill-rule:nonzero;stroke:none;stroke-width:0.257323"
       d="m 183.83469,82.394446 c 2.29165,-3.326421 3.4196,-7.392343 3.12614,-11.494582 l 0.002,0.0026 c 0.0304,0.428136 0.0456,0.856245 0.0456,1.281778 0,3.661138 -1.12031,7.231473 -3.17462,10.210201" />
    <path
       id="path504"
       style="fill:#f1551a;fill-opacity:1;fill-rule:nonzero;stroke:none;stroke-width:0.257323"
       d="m 71.664269,137.94211 c -4.374022,0 -8.64852,-1.29475 -12.295236,-3.67931 2.906651,1.3285 6.078712,2.02907 9.301814,2.02907 3.149085,0 6.346668,-0.66945 9.393683,-2.08355 l 95.75381,-47.527402 c 6.41557,-2.976137 10.20264,-9.411032 10.20264,-16.141712 0,-2.459802 -0.50274,-4.958509 -1.57964,-7.34564 -1.37039,-3.072145 -3.50381,-5.550105 -6.06596,-7.309312 3.87639,1.663211 7.1735,4.753515 9.05938,8.956955 0.25774,0.576054 0.48234,1.157249 0.67629,1.743639 0.46701,1.421912 0.74772,2.869766 0.8498,4.315016 0.29347,4.102239 -0.83448,8.168161 -3.12612,11.494582 -0.002,0.0026 -0.005,0.0052 -0.007,0.01043 -0.002,0.0026 -0.005,0.0078 -0.007,0.01043 -1.72256,2.48573 -4.09587,4.55891 -7.01274,5.915953 L 81.056436,135.85881 v 0 c -3.049563,1.41412 -6.247145,2.08355 -9.391129,2.08355" />
    <path
       id="path506"
       style="fill:#dae3ec;fill-opacity:1;fill-rule:nonzero;stroke:none;stroke-width:0.257323"
       d="m 97.010118,245.71617 c 0,-9.40842 -7.500149,-17.02911 -16.748373,-17.02911 -9.260979,0 -16.761125,7.62069 -16.761125,17.02911 0,9.40585 7.500146,17.03433 16.761125,17.03433 9.248224,0 16.748373,-7.62848 16.748373,-17.03433" />
    <path
       id="path508"
       style="fill:#2d2b38;fill-opacity:1;fill-rule:nonzero;stroke:none;stroke-width:0.257323"
       d="m 80.261745,258.74425 c -7.068866,0 -12.820933,-5.84847 -12.820933,-13.02808 0,-7.18733 5.752067,-13.02809 12.820933,-13.02809 7.058664,0 12.808179,5.84076 12.808179,13.02809 0,7.17961 -5.749515,13.02808 -12.808179,13.02808" />
    <path
       id="path510"
       style="fill:#dae3ec;fill-opacity:1;fill-rule:nonzero;stroke:none;stroke-width:0.257323"
       d="m 142.26873,191.32317 c 0,-6.82409 -5.43563,-12.34564 -12.14722,-12.34564 -6.70395,0 -12.12681,5.52155 -12.12681,12.34564 0,6.81114 5.42286,12.34048 12.12681,12.34048 6.71159,0 12.14722,-5.52934 12.14722,-12.34048" />
    <path
       id="path512"
       style="fill:#2d2b38;fill-opacity:1;fill-rule:nonzero;stroke:none;stroke-width:0.257323"
       d="m 130.12151,200.75497 c -5.11664,0 -9.27376,-4.23977 -9.27376,-9.4318 0,-5.21018 4.15712,-9.44736 9.27376,-9.44736 5.1243,0 9.2865,4.23718 9.2865,9.44736 0,5.19203 -4.1622,9.4318 -9.2865,9.4318" />
    <path
       id="path514"
       style="fill:#dae3ec;fill-opacity:1;fill-rule:nonzero;stroke:none;stroke-width:0.257323"
       d="m 182.23464,69.957984 c -1.33723,-7.361208 -8.29637,-12.215911 -15.52856,-10.851101 -7.23729,1.359629 -12.01196,8.425039 -10.66965,15.786247 1.32957,7.353423 8.27849,12.218516 15.52089,10.845907 7.23986,-1.359628 12.01453,-8.427628 10.67732,-15.781053" />
    <path
       id="path516"
       style="fill:#2d2b38;fill-opacity:1;fill-rule:nonzero;stroke:none;stroke-width:0.257323"
       d="m 170.98312,82.609815 c -5.51727,1.03789 -10.84317,-2.685532 -11.85629,-8.308282 -1.02843,-5.612362 2.62594,-11.030129 8.15345,-12.068018 5.52749,-1.04048 10.84572,2.685532 11.8665,8.305691 1.02079,5.617556 -2.63869,11.03013 -8.16366,12.070609" />
    <path
       id="path518"
       style="fill:#dae3ec;fill-opacity:1;fill-rule:nonzero;stroke:none;stroke-width:0.257323"
       d="m 83.678794,115.48746 c 0,-7.62329 -6.081272,-13.80909 -13.573759,-13.80909 -7.505252,0 -13.586518,6.1858 -13.586518,13.80909 0,7.62067 6.081266,13.80387 13.586518,13.80387 7.492487,0 13.573759,-6.1832 13.573759,-13.80387" />
    <path
       id="path520"
       style="fill:#2d2b38;fill-opacity:1;fill-rule:nonzero;stroke:none;stroke-width:0.257323"
       d="m 70.105035,126.03756 c -5.731653,0 -10.386391,-4.73277 -10.386391,-10.5501 0,-5.81736 4.654738,-10.55531 10.386391,-10.55531 5.72144,0 10.378731,4.73795 10.378731,10.55531 0,5.81733 -4.657291,10.5501 -10.378731,10.5501" />
    <path
       id="path522"
       style="fill:#2d2b38;fill-opacity:1;fill-rule:nonzero;stroke:none;stroke-width:0.257323"
       d="m 35.240458,288.88448 h 90.032372 v -9.74057 H 35.240458 v 9.74057" />
    <path
       id="path524"
       style="fill:#1c1b1c;fill-opacity:1;fill-rule:nonzero;stroke:none;stroke-width:0.257323"
       d="M 27.472356,298.18391 H 133.04858 v -9.74316 H 27.472356 v 9.74316" />
    <path
       id="path528"
       style="fill:#f57d14;fill-opacity:1;fill-rule:nonzero;stroke:none;stroke-width:0.257323"
       d="m 90.581787,103.28709 c -2.63871,0 -5.121739,-1.64503 -6.096586,-4.309817 -1.250449,-3.427605 0.464483,-7.239248 3.833016,-8.508062 L 133.34715,73.074242 c 0.74773,-0.282807 1.51585,-0.417774 2.26868,-0.417774 2.6438,0 5.12684,1.647643 6.10167,4.320197 1.25556,3.417237 -0.46448,7.231474 -3.8279,8.502877 L 92.855556,102.86673 c -0.750265,0.28546 -1.518397,0.42035 -2.273769,0.42035" />
    <path
       id="path530"
       style="fill:#f57d14;fill-opacity:1;fill-rule:nonzero;stroke:none;stroke-width:0.257323"
       d="m 84.518383,224.90917 c -1.799122,0 -3.588028,-0.75247 -4.871652,-2.22626 -2.380961,-2.73744 -2.138526,-6.9253 0.548686,-9.34618 l 22.357533,-20.11682 c 1.23513,-1.11312 2.77394,-1.6606 4.30512,-1.6606 1.79911,0 3.59057,0.75506 4.8793,2.23145 2.38605,2.73742 2.13852,6.9201 -0.55123,9.33838 l -22.354964,20.11422 c -1.237696,1.11833 -2.77906,1.66581 -4.312779,1.66581" />
  </g>
</svg>
