<?xml version="1.0" encoding="UTF-8" standalone="no"?>
<svg
   xmlns:dc="http://purl.org/dc/elements/1.1/"
   xmlns:cc="http://creativecommons.org/ns#"
   xmlns:rdf="http://www.w3.org/1999/02/22-rdf-syntax-ns#"
   xmlns:svg="http://www.w3.org/2000/svg"
   xmlns="http://www.w3.org/2000/svg"
   xmlns:sodipodi="http://sodipodi.sourceforge.net/DTD/sodipodi-0.dtd"
   xmlns:inkscape="http://www.inkscape.org/namespaces/inkscape"
   sodipodi:docname="braco.svg"
   inkscape:version="1.0 (4035a4fb49, 2020-05-01)"
   id="svg3994"
   version="1.1"
   viewBox="0 0 210 297"
   height="297mm"
   width="210mm">
  <defs
     id="defs3988" />
  <sodipodi:namedview
     inkscape:window-maximized="0"
     inkscape:window-y="0"
     inkscape:window-x="0"
     inkscape:window-height="1030"
     inkscape:window-width="1902"
     showgrid="false"
     inkscape:document-rotation="0"
     inkscape:current-layer="layer1"
     inkscape:document-units="mm"
     inkscape:cy="560"
     inkscape:cx="400"
     inkscape:zoom="0.7"
     inkscape:pageshadow="2"
     inkscape:pageopacity="0.0"
     borderopacity="1.0"
     bordercolor="#666666"
     pagecolor="#ffffff"
     id="base" />
  <metadata
     id="metadata3991">
    <rdf:RDF>
      <cc:Work
         rdf:about="">
        <dc:format>image/svg+xml</dc:format>
        <dc:type
           rdf:resource="http://purl.org/dc/dcmitype/StillImage" />
        <dc:title></dc:title>
      </cc:Work>
    </rdf:RDF>
  </metadata>
  <g
     id="layer1"
     inkscape:groupmode="layer"
     inkscape:label="Layer 1">
    <path
       d="m 209.14074,24.607763 -0.91975,109.120197 -7.5631,1.87147 0.91976,-109.120201 7.56309,-1.871466"
       style="fill:#555555;fill-opacity:1;fill-rule:nonzero;stroke:none;stroke-width:0.16136"
       id="path416" />
    <path
       d="m 63.789336,239.57968 c -3.932,-1.955 -8.416111,-7.28895 -11.390311,-10.82006 l -0.489723,-0.59373 C 47.43239,222.856 44.256545,216.91618 42.46338,210.5226 c -3.71835,-13.27954 -0.110442,-25.1061 9.645159,-31.64449 5.749169,-3.85207 12.938635,-5.83846 19.885647,-7.75243 4.584927,-1.2623 9.325891,-2.56805 13.430724,-4.38066 9.205872,-4.06205 19.732,-9.12334 27.95368,-15.86688 7.29268,-5.97845 11.01103,-13.25782 14.35732,-22.35219 l 0.24728,-0.66617 c 2.42208,-6.57219 5.73715,-15.57485 5.18024,-22.43184 l 2.20845,-0.18103 c 0.59295,7.34695 -2.82057,16.61511 -5.31468,23.38279 l -0.24728,0.66618 c -3.4711,9.43469 -7.35749,17.01574 -15.03185,23.30554 -8.43051,6.90768 -19.124682,12.06068 -28.464978,16.17825 -4.251261,1.87777 -9.071442,3.20765 -13.728389,4.49168 -6.783778,1.87535 -13.793202,3.79897 -19.254315,7.45314 -8.915406,5.97604 -12.184875,16.88543 -8.740177,29.1947 1.704352,6.08705 4.733764,11.74449 9.001832,16.80819 l 0.496935,0.59373 c 2.854182,3.38865 7.160654,8.51749 10.68217,10.26492 l -0.981799,1.99365"
       style="fill:#1c2026;fill-opacity:1;fill-rule:nonzero;stroke:none;stroke-width:0.240702"
       id="path448" />
    <path
       d="m 53.697683,130.17684 c -2.069217,-18.21773 1.293868,-32.378217 9.995634,-42.075997 7.184661,-7.991373 17.996456,-12.968182 32.14493,-14.795267 15.807213,-2.051538 32.982693,0.255813 44.615463,2.551165 6.65176,1.31058 12.17287,2.746657 15.63197,3.714502 6.71897,1.894658 6.72857,1.993627 6.84379,2.782859 l -0.92179,1.252657 -0.34804,-2.196359 0.17283,1.098173 -1.09702,-0.125473 c -0.0646,0.547876 0.27844,0.991989 0.64331,1.144038 C 160.80506,83.288155 99.32135,62.888595 70.244251,85.069424 58.373833,94.14449 53.541655,109.22938 55.896534,129.92103 l -2.198851,0.25581"
       style="fill:#1c2026;fill-opacity:1;fill-rule:nonzero;stroke:none;stroke-width:0.240702"
       id="path450" />
    <path
       d="m 206.46823,74.857452 1.50378,8.395566 -32.31452,5.828771 -1.49606,-8.408716 32.3068,-5.815621"
       style="fill:#555555;fill-opacity:1;fill-rule:nonzero;stroke:none;stroke-width:0.240702"
       id="path462" />
    <path
       d="m 186.92277,73.302949 2.91015,16.554645 -20.89078,3.716149 -2.91327,-16.55829 20.8939,-3.712504"
       style="fill:#2d2b38;fill-opacity:1;fill-rule:nonzero;stroke:none;stroke-width:0.240702"
       id="path464" />
    <path
       d="m 189.42857,68.879646 4.19668,24.075863 -5.39943,0.950265 -4.19354,-24.072206 5.39629,-0.953922"
       style="fill:#dae3ec;fill-opacity:1;fill-rule:nonzero;stroke:none;stroke-width:0.240702"
       id="path466"
       inkscape:transform-center-x="-59.073573"
       inkscape:transform-center-y="-6.5774916" />
    <path
       d="m 134.52691,213.48888 c -3.01981,2.43772 -6.68296,3.52624 -10.2717,3.3573 -4.24646,-0.20032 -8.3825,-2.16016 -11.23908,-5.75399 l -48.074563,-62.1401 -9.974022,-12.88852 c -5.276275,-6.63735 -4.196056,-16.31824 2.395685,-21.62812 3.017415,-2.43048 6.678159,-3.52141 10.274089,-3.35005 4.23446,0.19793 8.380101,2.16257 11.243883,5.76122 l 20.821828,26.91627 37.21956,48.10753 c 5.28347,6.63494 4.19846,16.32547 -2.39568,21.61846"
       style="fill:#d64e1f;fill-opacity:1;fill-rule:nonzero;stroke:none;stroke-width:0.240702"
       id="path470" />
    <path
       d="m 134.52691,213.48888 c -3.01981,2.43772 -6.68296,3.52624 -10.2717,3.3573 -4.24646,-0.20032 -8.3825,-2.16016 -11.23908,-5.75399 l -48.074563,-62.1401 -9.974022,-12.88852 c -5.276275,-6.63735 -4.196056,-16.31824 2.395685,-21.62812 3.017415,-2.43048 6.678159,-3.52141 10.274089,-3.35005 4.23446,0.19793 8.380101,2.16257 11.243883,5.76122 l 20.821828,26.91627 37.21956,48.10753 c 5.28347,6.63494 4.19846,16.32547 -2.39568,21.61846"
       style="fill:#d64e1f;fill-opacity:1;fill-rule:nonzero;stroke:none;stroke-width:0.240702"
       id="path472" />
    <path
       d="m 99.619015,185.54201 c -1.433096,0 -2.849377,-0.64681 -3.780768,-1.88019 L 79.89901,162.65642 c -1.589123,-2.09982 -1.185838,-5.09507 0.897784,-6.69528 0.85697,-0.65892 1.869981,-0.97509 2.873383,-0.97509 1.43309,0 2.849378,0.64681 3.787969,1.87777 l 15.929634,21.00541 c 1.58912,2.0974 1.18584,5.09508 -0.90019,6.6977 -0.85696,0.65891 -1.86517,0.97508 -2.868575,0.97508"
       style="fill:#de5e1c;fill-opacity:1;fill-rule:nonzero;stroke:none;stroke-width:0.240702"
       id="path474" />
    <path
       d="m 69.699337,155.1019 v 0 l -4.764969,-6.14981 -0.204068,-0.26306 c 0.0023,0 0.0048,0 0.0075,0.002 l 0.204068,0.26067 4.757762,6.14981 m 30.003701,-11.33901 -4.085632,-5.28092 v 0 l 4.085632,5.28092"
       style="fill:#966578;fill-opacity:1;fill-rule:nonzero;stroke:none;stroke-width:0.240702"
       id="path476" />
    <path
       d="m 129.0514,181.69717 c -2.49412,-1.06439 -5.15386,-1.59055 -7.8088,-1.59055 -0.70574,0 -1.41388,0.0363 -2.11722,0.11103 L 94.882856,148.8845 92.542377,145.85063 c -1.382682,1.72812 -3.010211,3.19317 -5.101033,4.19479 -5.173056,2.50771 -11.570351,4.6727 -17.737203,5.05647 h -0.0048 l -4.75777,-6.14981 -0.204068,-0.26067 c 1.406687,0.28961 2.84458,0.4393 4.294476,0.4393 2.962205,0 5.972414,-0.62511 8.843395,-1.94052 v 0 l 17.742008,-8.70821 4.085626,5.28092 29.348362,37.93428"
       style="fill:#c23322;fill-opacity:1;fill-rule:nonzero;stroke:none;stroke-width:0.240702"
       id="path478" />
    <path
       d="m 112.62006,257.02507 v 23.44799 H 41.63043 v -23.44799 c 0,-19.43898 15.447139,-35.24554 34.667847,-35.68479 0.273678,-0.007 0.549738,-0.0165 0.818565,-0.0165 18.75981,0 34.122938,14.63836 35.409598,33.16508 0.0627,0.83988 0.0937,1.68463 0.0937,2.53661"
       style="fill:#d64e1f;fill-opacity:1;fill-rule:nonzero;stroke:none;stroke-width:0.240702"
       id="path480" />
    <path
       d="M 112.62006,280.47306 H 41.63043 v -5.41613 c 1.824377,0.26545 3.636744,0.39135 5.43951,0.39135 6.64455,0 13.133067,-1.71364 19.333527,-4.48443 3.792771,2.01534 7.957614,3.01217 12.115264,3.01217 6.438109,0 12.854606,-2.39185 17.821214,-7.09835 0.0023,-0.005 0.0075,-0.007 0.01225,-0.0137 0.02654,-0.0274 0.05308,-0.048 0.0792,-0.0774 0.376903,-0.35987 0.74415,-0.7313 1.101824,-1.11991 0.08159,-0.0849 0.160791,-0.17172 0.240063,-0.25793 0.01905,-0.0274 0.03811,-0.0479 0.05989,-0.0684 l 13.423538,-18.13079 c 0.66255,2.33636 1.09461,4.77164 1.26985,7.27692 0.0626,0.83995 0.0937,1.68468 0.0937,2.53668 v 23.44798"
       style="fill:#cd3e21;fill-opacity:1;fill-rule:nonzero;stroke:none;stroke-width:0.240702"
       id="path482" />
    <path
       d="m 106.38839,186.7488 c 7.3863,-8.24721 20.03927,-8.9037 28.23454,-1.4747 8.20726,7.43867 8.853,20.14617 1.46189,28.40305 l -38.251771,51.66511 c -9.616348,10.71876 -26.045285,11.5756 -36.713057,1.90677 -10.660565,-9.66644 -11.507934,-26.19702 -1.89398,-36.91578 L 106.38839,186.7488"
       style="fill:#f46e16;fill-opacity:1;fill-rule:nonzero;stroke:none;stroke-width:0.240702"
       id="path484" />
    <path
       d="m 106.38839,186.7488 c 7.3863,-8.24721 20.03927,-8.9037 28.23454,-1.4747 8.20726,7.43867 8.853,20.14617 1.46189,28.40305 l -38.251771,51.66511 c -9.616348,10.71876 -26.045285,11.5756 -36.713057,1.90677 -10.660565,-9.66644 -11.507934,-26.19702 -1.89398,-36.91578 L 106.38839,186.7488"
       style="fill:#f46e16;fill-opacity:1;fill-rule:nonzero;stroke:none;stroke-width:0.240702"
       id="path486" />
    <path
       d="m 61.119992,267.24903 v 0 c -4.328077,-3.9245 -7.035825,-8.97371 -8.084839,-14.30288 0,0 0,0 0,0.001 1.053812,5.33162 3.761559,10.38084 8.084839,14.30049 v 0"
       style="fill:#c23322;fill-opacity:1;fill-rule:nonzero;stroke:none;stroke-width:0.240702"
       id="path488" />
    <path
       d="m 96.339945,266.87733 c 0.0023,-0.005 0.0075,-0.007 0.01225,-0.0137 -0.0048,0.006 -0.0096,0.007 -0.01225,0.0137 m 0.09125,-0.089 c 0.376903,-0.35988 0.74415,-0.73131 1.101825,-1.11992 -0.357647,0.38861 -0.724949,0.76032 -1.101825,1.11992"
       style="fill:#b82a22;fill-opacity:1;fill-rule:nonzero;stroke:none;stroke-width:0.240702"
       id="path490" />
    <path
       d="m 111.25897,247.20901 v 0 l 24.82585,-33.53186 c 3.4495,-3.8545 5.14904,-8.67924 5.14425,-13.48469 0,-1.78363 -0.23768,-3.56486 -0.70575,-5.29299 0.47291,1.73537 0.71054,3.52866 0.71054,5.31954 0,4.79579 -1.70193,9.60847 -5.14904,13.45814 l -24.82585,33.53186"
       style="fill:#966578;fill-opacity:1;fill-rule:nonzero;stroke:none;stroke-width:0.240702"
       id="path492" />
    <path
       d="m 78.521127,273.97567 c -6.202855,0 -12.427321,-2.22052 -17.401135,-6.72664 v 0 c -4.32328,-3.91965 -7.031027,-8.96886 -8.084839,-14.30049 1.430687,3.02907 3.456703,5.83846 6.097235,8.2303 4.96901,4.5038 11.191075,6.72426 17.391535,6.72426 7.105442,0 14.182081,-2.91319 19.321523,-8.63581 l 38.254174,-51.66031 c 3.4447,-3.85208 5.14184,-8.66476 5.14184,-13.46054 v 0 0 c 0,-1.06923 -0.0864,-2.13844 -0.25448,-3.19076 0.65295,1.26231 1.16663,2.58736 1.53631,3.94379 0.46808,1.72813 0.70574,3.50936 0.70574,5.29299 0.005,4.80545 -1.69475,9.63019 -5.14425,13.48469 l -24.82584,33.53186 -13.425925,18.13325 c -0.02177,0.0206 -0.04082,0.041 -0.05987,0.0684 -0.0792,0.0869 -0.15841,0.17377 -0.240065,0.25861 -0.357645,0.38861 -0.724947,0.76032 -1.101823,1.11992 -0.02654,0.0274 -0.05308,0.0547 -0.0792,0.0774 -0.0048,0.006 -0.0096,0.007 -0.01225,0.0137 -4.966606,4.7065 -11.380709,7.09835 -17.818816,7.09835"
       style="fill:#e7431f;fill-opacity:1;fill-rule:nonzero;stroke:none;stroke-width:0.240702"
       id="path494" />
    <path
       d="m 154.33813,72.974926 c 8.23607,-3.779667 17.96525,-0.13034 21.72201,8.155494 3.75196,8.285834 0.11766,18.065656 -8.11125,21.85017 l -90.073492,44.2096 c -10.710973,4.91405 -23.359143,0.17378 -28.241735,-10.59564 -4.894595,-10.77423 -0.172835,-23.48898 10.542941,-28.39821 L 154.33813,72.974926"
       style="fill:#f46e16;fill-opacity:1;fill-rule:nonzero;stroke:none;stroke-width:0.240702"
       id="path496" />
    <path
       d="m 174.54063,97.477623 c 0.002,-0.0024 0.005,-0.0073 0.007,-0.0097 -0.002,0.0024 -0.005,0.0073 -0.007,0.0097"
       style="fill:#2b2226;fill-opacity:1;fill-rule:nonzero;stroke:none;stroke-width:0.240702"
       id="path498" />
    <path
       d="m 177.49804,86.768554 -0.002,-0.0024 c -0.096,-1.34436 -0.3601,-2.691142 -0.79936,-4.013793 0.43929,1.322651 0.70574,2.671842 0.80176,4.016215"
       style="fill:#9f82ab;fill-opacity:1;fill-rule:nonzero;stroke:none;stroke-width:0.240702"
       id="path500" />
    <path
       d="m 174.55503,97.458299 c 2.15565,-3.09421 3.21666,-6.876298 2.94061,-10.692167 l 0.002,0.0024 c 0.0286,0.398248 0.0429,0.796472 0.0429,1.192299 0,3.405561 -1.05382,6.726658 -2.98621,9.497446"
       style="fill:#2b2226;fill-opacity:1;fill-rule:nonzero;stroke:none;stroke-width:0.240702"
       id="path502" />
    <path
       d="m 69.041605,149.12829 c -4.114436,0 -8.135255,-1.20437 -11.565549,-3.42247 2.73415,1.23576 5.717958,1.88743 8.749778,1.88743 2.962196,0 5.970011,-0.62272 8.836195,-1.93811 l 90.071091,-44.2096 c 6.03483,-2.768378 9.59715,-8.754065 9.59715,-15.014889 0,-2.288088 -0.47291,-4.612365 -1.4859,-6.832855 -1.28906,-2.857685 -3.29587,-5.162663 -5.70596,-6.799063 3.64634,1.547105 6.74777,4.421681 8.52173,8.331687 0.24245,0.535841 0.45372,1.076464 0.63616,1.621919 0.43929,1.322651 0.70334,2.669433 0.79936,4.013793 0.27606,3.815869 -0.78495,7.597957 -2.94059,10.692167 -0.002,0.0024 -0.005,0.0048 -0.007,0.0097 -0.002,0.0024 -0.005,0.0073 -0.007,0.0097 -1.62033,2.312206 -3.85279,4.240661 -6.59655,5.502971 l -90.068146,44.20975 v 0 c -2.86858,1.3154 -5.876395,1.9381 -8.833793,1.9381"
       style="fill:#f1551a;fill-opacity:1;fill-rule:nonzero;stroke:none;stroke-width:0.240702"
       id="path504" />
    <path
       d="m 92.88325,249.37884 c 0,-8.75163 -7.055036,-15.84034 -15.754405,-15.84034 -8.711366,0 -15.7664,7.08871 -15.7664,15.84034 0,8.74925 7.055034,15.8452 15.7664,15.8452 8.699369,0 15.754405,-7.09595 15.754405,-15.8452"
       style="fill:#dae3ec;fill-opacity:1;fill-rule:nonzero;stroke:none;stroke-width:0.240702"
       id="path506" />
    <path
       d="m 77.128845,261.49746 c -6.649349,0 -12.060047,-5.4402 -12.060047,-12.11862 0,-6.68559 5.410698,-12.11862 12.060047,-12.11862 6.639753,0 12.04805,5.43303 12.04805,12.11862 0,6.67842 -5.408297,12.11862 -12.04805,12.11862"
       style="fill:#2d2b38;fill-opacity:1;fill-rule:nonzero;stroke:none;stroke-width:0.240702"
       id="path508" />
    <path
       d="m 135.45589,198.78292 c 0,-6.34772 -5.11304,-11.48382 -11.42631,-11.48382 -6.30609,0 -11.40712,5.1361 -11.40712,11.48382 0,6.33566 5.10103,11.47901 11.40712,11.47901 6.31327,0 11.42631,-5.14335 11.42631,-11.47901"
       style="fill:#dae3ec;fill-opacity:1;fill-rule:nonzero;stroke:none;stroke-width:0.240702"
       id="path510" />
    <path
       d="m 124.02958,207.5563 c -4.81299,0 -8.72339,-3.9438 -8.72339,-8.77338 0,-4.84647 3.9104,-8.78786 8.72339,-8.78786 4.82018,0 8.73537,3.94139 8.73537,8.78786 0,4.82958 -3.91519,8.77338 -8.73537,8.77338"
       style="fill:#2d2b38;fill-opacity:1;fill-rule:nonzero;stroke:none;stroke-width:0.240702"
       id="path512" />
    <path
       d="m 173.04994,85.890003 c -1.25787,-6.847336 -7.804,-11.363142 -14.60698,-10.093607 -6.80778,1.264716 -11.29909,7.836903 -10.03644,14.684239 1.25066,6.840095 7.78718,11.365565 14.59977,10.088775 6.81019,-1.264715 11.3015,-7.839311 10.04365,-14.679407"
       style="fill:#dae3ec;fill-opacity:1;fill-rule:nonzero;stroke:none;stroke-width:0.240702"
       id="path514" />
    <path
       d="m 162.46617,97.658633 c -5.18984,0.965437 -10.19966,-2.49806 -11.15266,-7.728296 -0.96739,-5.220574 2.4701,-10.260137 7.66957,-11.225573 5.19945,-0.967846 10.20206,2.49806 11.16226,7.725887 0.9602,5.225405 -2.4821,10.260137 -7.67917,11.227982"
       style="fill:#2d2b38;fill-opacity:1;fill-rule:nonzero;stroke:none;stroke-width:0.240702"
       id="path516" />
    <path
       d="m 80.343102,128.24115 c 0,-7.09112 -5.720366,-12.8451 -12.768195,-12.8451 -7.059837,0 -12.780197,5.75398 -12.780197,12.8451 0,7.08869 5.72036,12.84025 12.780197,12.84025 7.047829,0 12.768195,-5.75156 12.768195,-12.84025"
       style="fill:#dae3ec;fill-opacity:1;fill-rule:nonzero;stroke:none;stroke-width:0.240702"
       id="path518" />
    <path
       d="m 67.574907,138.05477 c -5.391496,0 -9.769988,-4.40238 -9.769988,-9.81362 0,-5.41126 4.378492,-9.81846 9.769988,-9.81846 5.381889,0 9.762783,4.4072 9.762783,9.81846 0,5.41124 -4.380894,9.81362 -9.762783,9.81362"
       style="fill:#2d2b38;fill-opacity:1;fill-rule:nonzero;stroke:none;stroke-width:0.240702"
       id="path520" />
    <path
       d="m 34.779443,289.53366 h 84.689207 v -9.0606 H 34.779443 v 9.0606"
       style="fill:#2d2b38;fill-opacity:1;fill-rule:nonzero;stroke:none;stroke-width:0.240702"
       id="path522" />
    <path
       d="M 27.472356,298.18391 H 126.78293 V 289.1209 H 27.472356 v 9.06301"
       style="fill:#1c1b1c;fill-opacity:1;fill-rule:nonzero;stroke:none;stroke-width:0.240702"
       id="path524" />
    <path
       d="m 86.836422,116.89247 c -2.48211,0 -4.817778,-1.5302 -5.734771,-4.00896 -1.176238,-3.18833 0.436918,-6.73389 3.605538,-7.91413 L 127.06378,88.788721 c 0.70336,-0.263065 1.42589,-0.38861 2.13404,-0.38861 2.4869,0 4.82258,1.532624 5.73956,4.018612 1.18104,3.178686 -0.43692,6.726658 -3.60073,7.909307 l -42.3614,16.17342 c -0.705739,0.26553 -1.428285,0.39101 -2.138828,0.39101"
       style="fill:#f57d14;fill-opacity:1;fill-rule:nonzero;stroke:none;stroke-width:0.240702"
       id="path528" />
    <path
       d="m 81.132864,230.02434 c -1.692349,0 -3.375089,-0.69994 -4.582533,-2.07085 -2.239658,-2.54634 -2.011611,-6.44186 0.516123,-8.69374 l 21.030673,-18.7125 c 1.161833,-1.03542 2.609323,-1.54468 4.049623,-1.54468 1.69234,0 3.37748,0.70235 4.58973,2.07568 2.24445,2.54632 2.01161,6.43702 -0.51851,8.68648 l -21.028265,18.71009 c -1.164242,1.04026 -2.614131,1.54952 -4.056828,1.54952"
       style="fill:#f57d14;fill-opacity:1;fill-rule:nonzero;stroke:none;stroke-width:0.240702"
       id="path530" />
  </g>
</svg>
