<?xml version="1.0" encoding="UTF-8" standalone="no"?>
<svg
   xmlns:dc="http://purl.org/dc/elements/1.1/"
   xmlns:cc="http://creativecommons.org/ns#"
   xmlns:rdf="http://www.w3.org/1999/02/22-rdf-syntax-ns#"
   xmlns:svg="http://www.w3.org/2000/svg"
   xmlns="http://www.w3.org/2000/svg"
   xmlns:sodipodi="http://sodipodi.sourceforge.net/DTD/sodipodi-0.dtd"
   xmlns:inkscape="http://www.inkscape.org/namespaces/inkscape"
   version="1.1"
   x="0px"
   y="0px"
   viewBox="0 0 1081 1080"
   xml:space="preserve"
   id="svg66"
   sodipodi:docname="explore.svg"
   width="1081"
   height="1080"
   inkscape:version="1.0 (4035a4fb49, 2020-05-01)"><metadata
   id="metadata72"><rdf:RDF><cc:Work
       rdf:about=""><dc:format>image/svg+xml</dc:format><dc:type
         rdf:resource="http://purl.org/dc/dcmitype/StillImage" /><dc:title /></cc:Work></rdf:RDF></metadata><defs
   id="defs70" /><sodipodi:namedview
   inkscape:document-rotation="0"
   pagecolor="#ffffff"
   bordercolor="#666666"
   borderopacity="1"
   objecttolerance="10"
   gridtolerance="10"
   guidetolerance="10"
   inkscape:pageopacity="0"
   inkscape:pageshadow="2"
   inkscape:window-width="1920"
   inkscape:window-height="1001"
   id="namedview68"
   showgrid="false"
   inkscape:zoom="0.54342466"
   inkscape:cx="541.89798"
   inkscape:cy="800.24096"
   inkscape:window-x="-9"
   inkscape:window-y="-9"
   inkscape:window-maximized="1"
   inkscape:current-layer="svg66" />
<style
   type="text/css"
   id="style2">
	.st0{fill:#FFFF00;}
	.st1{fill:#FFFFFF;}
	.st2{fill:#FFFFFF;stroke:#000000;stroke-miterlimit:10;}
</style>
<g
   id="Camada_3"
   transform="matrix(1.8160098,0,0,1.776312,-1201.0561,-416.60609)"
   style="fill:#444444;fill-opacity:1">
	<g
   id="g8"
   style="fill:#444444;fill-opacity:1">
		<path
   d="M 960,834.5 C 881.34,834.5 807.38,803.87 751.76,748.24 696.13,692.62 665.5,618.66 665.5,540 c 0,-78.66 30.63,-152.62 86.26,-208.24 55.62,-55.63 129.58,-86.26 208.24,-86.26 78.66,0 152.62,30.63 208.24,86.26 55.62,55.62 86.26,129.58 86.26,208.24 0,78.66 -30.63,152.62 -86.26,208.24 -55.62,55.63 -129.58,86.26 -208.24,86.26 z"
   id="path4"
   style="fill:#444444;fill-opacity:1" />
		<path
   d="m 960,246 c 39.69,0 78.19,7.77 114.44,23.1 35.01,14.81 66.45,36.01 93.45,63.01 27,27 48.2,58.44 63.01,93.45 15.33,36.25 23.1,74.75 23.1,114.44 0,39.69 -7.77,78.19 -23.1,114.44 -14.81,35.01 -36.01,66.45 -63.01,93.45 -27,27 -58.44,48.2 -93.45,63.01 -36.25,15.33 -74.75,23.1 -114.44,23.1 -39.69,0 -78.19,-7.77 -114.44,-23.1 -35.01,-14.81 -66.45,-36.01 -93.45,-63.01 -27,-27 -48.2,-58.44 -63.01,-93.45 C 673.77,618.19 666,579.69 666,540 c 0,-39.69 7.77,-78.19 23.1,-114.44 14.81,-35.01 36.01,-66.45 63.01,-93.45 27,-27 58.44,-48.2 93.45,-63.01 C 881.81,253.77 920.31,246 960,246 m 0,-1 c -162.92,0 -295,132.08 -295,295 0,162.92 132.08,295 295,295 162.92,0 295,-132.08 295,-295 0,-162.92 -132.08,-295 -295,-295 z"
   id="path6"
   style="fill:#444444;fill-opacity:1" />
	</g>
	<g
   id="g14"
   style="fill:#444444;fill-opacity:1">
		<path
   d="M 960,834.5 C 881.34,834.5 807.38,803.87 751.76,748.24 696.13,692.62 665.5,618.66 665.5,540 c 0,-78.66 30.63,-152.62 86.26,-208.24 55.62,-55.63 129.58,-86.26 208.24,-86.26 78.66,0 152.62,30.63 208.24,86.26 55.62,55.62 86.26,129.58 86.26,208.24 0,78.66 -30.63,152.62 -86.26,208.24 -55.62,55.63 -129.58,86.26 -208.24,86.26 z"
   id="path10"
   style="fill:#444444;fill-opacity:1" />
		<path
   d="m 960,246 c 39.69,0 78.19,7.77 114.44,23.1 35.01,14.81 66.45,36.01 93.45,63.01 27,27 48.2,58.44 63.01,93.45 15.33,36.25 23.1,74.75 23.1,114.44 0,39.69 -7.77,78.19 -23.1,114.44 -14.81,35.01 -36.01,66.45 -63.01,93.45 -27,27 -58.44,48.2 -93.45,63.01 -36.25,15.33 -74.75,23.1 -114.44,23.1 -39.69,0 -78.19,-7.77 -114.44,-23.1 -35.01,-14.81 -66.45,-36.01 -93.45,-63.01 -27,-27 -48.2,-58.44 -63.01,-93.45 C 673.77,618.19 666,579.69 666,540 c 0,-39.69 7.77,-78.19 23.1,-114.44 14.81,-35.01 36.01,-66.45 63.01,-93.45 27,-27 58.44,-48.2 93.45,-63.01 C 881.81,253.77 920.31,246 960,246 m 0,-1 c -162.92,0 -295,132.08 -295,295 0,162.92 132.08,295 295,295 162.92,0 295,-132.08 295,-295 0,-162.92 -132.08,-295 -295,-295 z"
   id="path12"
   style="fill:#444444;fill-opacity:1" />
	</g>
</g>
<g
   id="Camada_1"
   transform="matrix(2.0103147,0,0,2.1670355,-1403.5881,-662.76188)">
	<g
   id="g19">
		<path
   class="st0"
   d="M 1032,512 H 888 V 410 c 0,-39.76 32.24,-72 72,-72 v 0 c 39.76,0 72,32.24 72,72 z"
   id="path17"
   style="fill:#222222;fill-opacity:1" />
	</g>
	<g
   id="g23">
		<path
   class="st1"
   d="m 911,512 h 44 V 486.44 C 941.94,473.38 934.62,466.06 921.56,453 H 911 Z"
   id="path21"
   style="fill:#444444;fill-opacity:1" />
	</g>
	<polygon
   class="st1"
   points="934.5,453.5 1005.5,453.5 1005.5,512 966.2,512 966.5,482.5 "
   id="polygon25"
   style="fill:#444444;fill-opacity:1" />
	<path
   class="st2"
   d="M 919.5,509.5"
   id="path27" />
	<g
   id="Camada_2">
		<g
   id="g31">
			<path
   class="st1"
   d="m 932.40759,512 v 234.3 l -13.36928,0.24 c -0.0192,0 -0.0192,0 -0.0383,0 V 512 Z"
   id="path29"
   style="fill:#777777;fill-opacity:1;stroke-width:1.38397" />
		</g>
		<g
   id="g37">
			
			
		</g>
		<g
   id="g41">
			
		</g>
		<g
   id="g45">
			<path
   class="st1"
   d="M 1003.4922,513 V 719.79 L 991.03569,720 c -0.0178,0 -0.0178,0 -0.0357,0 V 513 Z"
   id="path43"
   style="fill:#777777;fill-opacity:1;stroke-width:1.33589" />
		</g>
		<g
   id="g49">
			
		</g>
		<g
   id="g55">
			
			
		</g>
		<g
   id="g61">
			<path
   class="st0"
   d="m 884.18,526.5 c -0.93,0 -1.68,-0.75 -1.68,-1.68 v -9.64 c 0,-0.93 0.75,-1.68 1.68,-1.68 h 150.64 c 0.93,0 1.68,0.75 1.68,1.68 v 9.64 c 0,0.93 -0.75,1.68 -1.68,1.68 z"
   id="path57"
   style="fill:#222222;fill-opacity:1" />
			<path
   class="st0"
   d="m 1034.0401,516.22057 v 7.96189 H 887.04016 v -7.96189 h 146.99994 m 1.82,-9.28888 H 885.22016 c -2.86,0 -5.18,3.0786 -5.18,6.87377 v 12.79211 c 0,3.79517 2.32,6.87377 5.18,6.87377 h 150.63994 c 2.86,0 5.18,-3.0786 5.18,-6.87377 v -12.79211 c 0,-3.79517 -2.32,-6.87377 -5.18,-6.87377 z"
   id="path59"
   style="fill:#222222;fill-opacity:1;stroke-width:1.15195" />
		</g>
	</g>
</g>
<g
   id="Camada_4">
</g>
</svg>
