<svg xmlns="http://www.w3.org/2000/svg" viewBox="0 0 1080 1080"><defs><style>.cls-1{fill:#151e27;}.cls-2{fill:#212d3b;}.cls-3,.cls-8{fill:#3e618a;}.cls-4,.cls-7{fill:#68a3d7;}.cls-5,.cls-9{fill:none;}.cls-5{stroke:#68a3d7;stroke-width:3px;}.cls-10,.cls-11,.cls-12,.cls-13,.cls-5,.cls-6,.cls-7,.cls-8,.cls-9{stroke-miterlimit:10;}.cls-14,.cls-6{fill:#00feff;}.cls-10,.cls-11,.cls-12,.cls-13,.cls-6,.cls-7,.cls-8,.cls-9{stroke:#000;stroke-width:16px;}.cls-10{fill:#fbff4e;}.cls-11{fill:#fbd000;}.cls-12{fill:#f96722;}.cls-13{fill:#f98922;}.cls-15{fill:#3e4f8a;}.cls-16{fill:#fff;}</style></defs><title>Papel Explorando ...</title><g id="Camada_4" data-name="Camada 4"><rect class="cls-1" width="1080" height="1080"/></g><g id="Camada_8" data-name="Camada 8"><line x1="340.56" y1="178" x2="913.68" y2="178"/><path class="cls-2" d="M340.56,202H843.15c23.16,0,46.37.45,69.52,0h1c12.55,0,24.58-11,24-24s-10.55-24-24-24H411.09c-23.16,0-46.37-.45-69.52,0h-1c-12.55,0-24.58,11-24,24s10.55,24,24,24Z"/><line x1="116.64" y1="222" x2="861.84" y2="222"/><path class="cls-2" d="M116.64,246h714.8c9.72,0,19.45.17,29.16,0h1.24c12.55,0,24.58-11,24-24s-10.55-24-24-24H147c-9.72,0-19.45-.17-29.16,0h-1.24c-12.55,0-24.58,11-24,24s10.55,24,24,24Z"/><line x1="162" y1="262" x2="924.48" y2="262"/><path class="cls-2" d="M162,286H893.45c9.9,0,19.82.16,29.73,0h1.3c12.55,0,24.58-11,24-24s-10.55-24-24-24H193c-9.9,0-19.82-.16-29.73,0H162c-12.55,0-24.58,11-24,24s10.55,24,24,24Z"/><line x1="274.08" y1="302" x2="1036.8" y2="302"/><path class="cls-2" d="M274.08,326h731.73c9.89,0,19.8.16,29.69,0h1.3c12.55,0,24.58-11,24-24s-10.55-24-24-24H305.07c-9.89,0-19.8-.16-29.69,0h-1.3c-12.55,0-24.58,11-24,24s10.55,24,24,24Z"/><line x1="192.24" y1="342" x2="963.36" y2="342"/><path class="cls-2" d="M192.24,366H932c10,0,20,.16,30.06,0h1.29c12.55,0,24.58-11,24-24s-10.55-24-24-24H223.59c-10,0-20.05-.16-30.06,0h-1.29c-12.55,0-24.58,11-24,24s10.55,24,24,24Z"/><line x1="75.6" y1="382" x2="939.94" y2="382"/><path class="cls-2" d="M75.6,406H904.8c11.23,0,22.46.15,33.69,0h1.45c12.56,0,24.58-11,24-24s-10.54-24-24-24H110.74c-11.22,0-22.46-.15-33.68,0H75.6c-12.55,0-24.58,11-24,24s10.55,24,24,24Z"/><line x1="162" y1="422" x2="1013.04" y2="422"/><path class="cls-2" d="M162,446H978.47c11,0,22.1.16,33.14,0H1013c12.55,0,24.58-11,24-24s-10.55-24-24-24H196.57c-11,0-22.1-.16-33.14,0H162c-12.55,0-24.58,11-24,24s10.55,24,24,24Z"/><line x1="274.08" y1="462" x2="861.84" y2="462"/><path class="cls-2" d="M274.08,486H789.73c23.69,0,47.44.47,71.13,0h1c12.55,0,24.58-11,24-24s-10.55-24-24-24H346.2c-23.7,0-47.44-.47-71.13,0h-1c-12.55,0-24.58,11-24,24s10.55,24,24,24Z"/><line x1="179.28" y1="502" x2="947.61" y2="502"/><path class="cls-2" d="M179.28,526h737.1c10,0,20,.16,29.94,0h1.29c12.55,0,24.58-11,24-24s-10.55-24-24-24H210.51c-10,0-20-.16-29.94,0h-1.29c-12.55,0-24.58,11-24,24s10.55,24,24,24Z"/><line x1="133.92" y1="542" x2="666.43" y2="542"/><path class="cls-2" d="M133.92,566H601c21.5,0,43.06.47,64.56,0h.89c12.55,0,24.58-11,24-24s-10.55-24-24-24H199.37c-21.5,0-43.06-.47-64.56,0h-.89c-12.55,0-24.58,11-24,24s10.55,24,24,24Z"/><line x1="340.56" y1="538" x2="913.68" y2="538"/><path class="cls-2" d="M340.56,562H843.15c23.16,0,46.37.45,69.52,0h1c12.55,0,24.58-11,24-24s-10.55-24-24-24H411.09c-23.16,0-46.37-.45-69.52,0h-1c-12.55,0-24.58,11-24,24s10.55,24,24,24Z"/><line x1="43.2" y1="582" x2="861.84" y2="582"/><path class="cls-2" d="M43.2,606H828.61c10.62,0,21.26.16,31.88,0h1.35c12.55,0,24.58-11,24-24s-10.55-24-24-24H76.43c-10.62,0-21.26-.16-31.88,0H43.2c-12.55,0-24.58,11-24,24s10.55,24,24,24Z"/><line x1="151.92" y1="622" x2="924.48" y2="622"/><path class="cls-2" d="M151.92,646H893c10.07,0,20.16.16,30.24,0h1.28c12.55,0,24.58-11,24-24s-10.55-24-24-24h-741c-10.07,0-20.16-.16-30.24,0h-1.28c-12.55,0-24.58,11-24,24s10.55,24,24,24Z"/><line x1="274.08" y1="662" x2="1036.8" y2="662"/><path class="cls-2" d="M274.08,686h731.73c9.89,0,19.8.16,29.69,0h1.3c12.55,0,24.58-11,24-24s-10.55-24-24-24H305.07c-9.89,0-19.8-.16-29.69,0h-1.3c-12.55,0-24.58,11-24,24s10.55,24,24,24Z"/><line x1="192.24" y1="702" x2="963.36" y2="702"/><path class="cls-2" d="M192.24,726H932c10,0,20,.16,30.06,0h1.29c12.55,0,24.58-11,24-24s-10.55-24-24-24H223.59c-10,0-20.05-.16-30.06,0h-1.29c-12.55,0-24.58,11-24,24s10.55,24,24,24Z"/><line x1="75.6" y1="742" x2="939.94" y2="742"/><path class="cls-2" d="M75.6,766H904.8c11.23,0,22.46.15,33.69,0h1.45c12.56,0,24.58-11,24-24s-10.54-24-24-24H110.74c-11.22,0-22.46-.15-33.68,0H75.6c-12.55,0-24.58,11-24,24s10.55,24,24,24Z"/><line x1="116.64" y1="782" x2="1013.04" y2="782"/><path class="cls-2" d="M116.64,806H976.73c11.6,0,23.22.17,34.81,0h1.5c12.55,0,24.58-11,24-24s-10.55-24-24-24H153c-11.6,0-23.22-.17-34.81,0h-1.5c-12.55,0-24.58,11-24,24s10.55,24,24,24Z"/><line x1="274.08" y1="822" x2="861.84" y2="822"/><path class="cls-2" d="M274.08,846H789.73c23.69,0,47.44.47,71.13,0h1c12.55,0,24.58-11,24-24s-10.55-24-24-24H346.2c-23.7,0-47.44-.47-71.13,0h-1c-12.55,0-24.58,11-24,24s10.55,24,24,24Z"/><line x1="179.28" y1="862" x2="947.61" y2="862"/><path class="cls-2" d="M179.28,886h737.1c10,0,20,.16,29.94,0h1.29c12.55,0,24.58-11,24-24s-10.55-24-24-24H210.51c-10,0-20-.16-29.94,0h-1.29c-12.55,0-24.58,11-24,24s10.55,24,24,24Z"/><line x1="133.92" y1="902" x2="666.43" y2="902"/><path class="cls-2" d="M133.92,926H601c21.5,0,43.06.47,64.56,0h.89c12.55,0,24.58-11,24-24s-10.55-24-24-24H199.37c-21.5,0-43.06-.47-64.56,0h-.89c-12.55,0-24.58,11-24,24s10.55,24,24,24Z"/></g><g id="Camada_9" data-name="Camada 9"><path class="cls-2" d="M236.86,101c6.25-5.2,12.44-10.5,18.29-16.14,2-2,4-4,5.88-6.1a32.35,32.35,0,0,0,4.54-6.07c1.84-3.57,2.52-7.66.39-11.31a10.84,10.84,0,0,0-10.32-5C249.08,57,243,59.71,237,62.24c-7.17,3-14.2,6.4-21.19,9.85a9.1,9.1,0,0,0-4.14,5.37,9.23,9.23,0,0,0,.91,6.94c2.8,4.33,7.79,5.46,12.32,3.23,7-3.45,14-6.81,21.19-9.84l-2.15.9c4.39-1.84,9-4,13.79-4.62l-2.39.32a7.24,7.24,0,0,1,1.74,0l-2.4-.32a2.59,2.59,0,0,1,.61.15l-2.15-.91a1.49,1.49,0,0,1,.3.18L251.59,72c.06.06.12.11.17.17l-1.41-1.82a1.74,1.74,0,0,1,.11.18l-.91-2.15a1.38,1.38,0,0,1,.08.27l-.32-2.39a2,2,0,0,1,0,.49l.32-2.39a4.08,4.08,0,0,1-.28.9l.91-2.15a15.13,15.13,0,0,1-1.84,2.9l1.4-1.82a89,89,0,0,1-9.74,10.15c-5.16,4.81-10.52,9.4-15.94,13.91a9,9,0,0,0-2.64,6.36,9.2,9.2,0,0,0,2.64,6.37,9.07,9.07,0,0,0,6.36,2.63,10.2,10.2,0,0,0,6.37-2.63Z"/><path class="cls-2" d="M119.07,130.36c-6.42,7.81-12.76,15.74-18.49,24.08a71.3,71.3,0,0,0-8.18,14.77c-1.8,4.73-1.66,10.4,2,14.22,5.41,5.63,13.85,3.47,20.16.86,10.79-4.46,20.85-10.42,30.73-16.59,4-2.5,5.92-8.15,3.23-12.32-2.57-4-8-5.9-12.31-3.23-9,5.64-18.24,11.29-28,15.47l2.15-.91a32.39,32.39,0,0,1-8,2.52l2.39-.32a8.59,8.59,0,0,1-2.09,0l2.39.32a4.22,4.22,0,0,1-.91-.24l2.15.91a2.86,2.86,0,0,1-.54-.3l1.82,1.4a2.79,2.79,0,0,1-.39-.38l1.41,1.82a2.13,2.13,0,0,1-.27-.46l.9,2.15a3.41,3.41,0,0,1-.2-.76l.32,2.39a5.7,5.7,0,0,1,0-1.37l-.32,2.39a14.52,14.52,0,0,1,1.09-3.58l-.91,2.15a58.76,58.76,0,0,1,5.06-9c3.12-4.78,6.53-9.36,10-13.88l-1.41,1.82q4.4-5.67,9-11.22a9.69,9.69,0,0,0,2.63-6.36,9.16,9.16,0,0,0-2.63-6.36,9,9,0,0,0-6.37-2.64c-2.25.1-4.87.82-6.36,2.64Z"/><circle class="cls-3" cx="178.33" cy="119.28" r="55.34"/><path class="cls-3" d="M230.49,119.28c0,30.56-21.59,55.34-52.16,55.34A55.34,55.34,0,0,1,123,119.28c0-30.57,23.18-49.52,53.75-49.52S230.49,88.71,230.49,119.28Z"/><path class="cls-2" d="M145.31,167.7c12.15-7.61,24-15.69,35.67-24q19.28-13.69,37.89-28.26,9.1-7.1,18-14.44a9,9,0,0,0,2.63-6.37,9.16,9.16,0,0,0-2.63-6.36,9,9,0,0,0-6.37-2.64,10.21,10.21,0,0,0-6.36,2.64Q213.62,97,202.77,105.35l1.82-1.41c-17.53,13.54-35.47,26.57-53.9,38.85q-7.17,4.78-14.46,9.36c-4,2.5-5.92,8.15-3.23,12.32,2.58,4,8.05,5.9,12.31,3.23Z"/><path class="cls-4" d="M861.84,770.18a43.94,43.94,0,0,1-43.94,43.94,44.64,44.64,0,0,1-21.61-5.67c-13-7.51-22.51-22.3-22.33-38.27.25-21.77,18.46-43.93,43.94-43.93,15.51,0,26.54,8.77,29,10.89C848.38,738.48,861.84,751,861.84,770.18Z"/><path class="cls-4" d="M774,770.18a43.94,43.94,0,0,1,43.94-43.93Z"/><circle class="cls-3" cx="820.57" cy="772.85" r="41.27"/><path class="cls-3" d="M975.05,1064.78l-7.66,8.45-9.81.48-33-29.9-.48-9.82,7.65-8.44,9.81-.48,33,29.9Z"/><path class="cls-3" d="M982.34,1009.67a1.56,1.56,0,0,1-.41,1.07l-25.33,28-17,18.74L919.18,1080h-4.3l22.38-24.7,17-18.74,25.33-27.95a1.56,1.56,0,0,1,1.42-.51,1.6,1.6,0,0,1,.83.39,1.5,1.5,0,0,1,.47.79A1.74,1.74,0,0,1,982.34,1009.67Z"/><path class="cls-3" d="M909.77,1080H871.94l-1.36-1.23a1.6,1.6,0,0,1-.12-2.26l14.92-16.46a1.61,1.61,0,0,1,2.26-.11Z"/><path class="cls-4" d="M902.26,1080H887.6l5.54-6.11a1.61,1.61,0,0,1,2.26-.11Z"/><path class="cls-3" d="M977.46,959.93h23.81a0,0,0,0,1,0,0v75.78a0,0,0,0,1,0,0H977.46a1.6,1.6,0,0,1-1.6-1.6V961.53a1.6,1.6,0,0,1,1.6-1.6Z" transform="translate(-414.65 1060.36) rotate(-47.82)"/><path class="cls-3" d="M991,1080H974.61c-3.39-4.15-2-6.14-.22-8.12,2.21-2.43,4.21-3.93,11.33,2.52A46.62,46.62,0,0,1,991,1080Z"/><path class="cls-4" d="M986.92,1080H978.4l-.36-.32c-4-3.61-3.11-5-1.87-6.35s2.35-2.2,6.35,1.41A22.52,22.52,0,0,1,986.92,1080Z"/><rect class="cls-4" x="983.06" y="976.94" width="15.32" height="45.68" rx="1.6" transform="translate(-415.39 1062.61) rotate(-47.82)"/><path class="cls-5" d="M930.38,1049.07l6.84-2a1.52,1.52,0,0,0,.73-.46l7.4-8.16a1.59,1.59,0,0,0,.38-.74l1.63-7.33"/><path class="cls-5" d="M952.43,1069l6.84-2a1.57,1.57,0,0,0,.73-.46l7.4-8.16a1.59,1.59,0,0,0,.38-.74l1.63-7.34"/><path class="cls-4" d="M731.8,911.32a4.5,4.5,0,1,0-4.5-4.5,4.55,4.55,0,0,0,4.5,4.5Z"/><path class="cls-4" d="M731.8,911.32a4.5,4.5,0,1,0-4.5-4.5,4.55,4.55,0,0,0,4.5,4.5Z"/><circle class="cls-4" cx="43.2" cy="587.62" r="19.17"/><circle class="cls-4" cx="1026" cy="227.6" r="23.76"/><circle class="cls-4" cx="439.38" cy="146.37" r="13.56"/><circle class="cls-4" cx="383.35" cy="414.16" r="9.59"/><circle class="cls-4" cx="634.33" cy="807.64" r="13.56"/><circle class="cls-4" cx="974.29" cy="747.5" r="20.94"/><circle class="cls-4" cx="347.17" cy="960.64" r="13.56"/><circle class="cls-2" cx="62.37" cy="50.59" r="19.17"/><path class="cls-2" d="M614.53,0a30.76,30.76,0,0,1-27,16,30.76,30.76,0,0,1-27-16Z"/><circle class="cls-2" cx="113.27" cy="305.98" r="11.06"/><circle class="cls-2" cx="994.95" cy="79.97" r="11.06"/><circle class="cls-2" cx="737.44" cy="91.04" r="17.14"/><circle class="cls-2" cx="631.83" cy="1030.33" r="11.06"/><path class="cls-2" d="M28.34,1080H0v-20.33A29.91,29.91,0,0,1,28.34,1080Z"/><path class="cls-2" d="M1080,927v22.12a11.06,11.06,0,1,1,0-22.12Z"/><path class="cls-4" d="M29.93,63.93A29.93,29.93,0,0,1,0,93.86V34A29.93,29.93,0,0,1,29.93,63.93Z"/><path class="cls-4" d="M787.72,1080H728.5a29.93,29.93,0,0,1,59.22,0Z"/></g><g id="Camada_2" data-name="Camada 2"><path class="cls-6" d="M395.93,709.19l-85-84.34c-16.83-41.31-105.57-51.57-105.57-51.57,104.4-122.4,211.05-53.91,211.05-53.91"/><path class="cls-7" d="M410.29,516,571.62,673.37s68.49,106.65-53.91,211c0,0-10.26-88.74-51.57-105.57l-70.21-69.66"/><path class="cls-4" d="M383.35,699.34c4.88,4.57,9.81,9.12,14.69,13.58"/><path class="cls-8" d="M304.21,694.92l-5.8,5.8v28l63.71,63.72h28l5.81-5.8"/><path class="cls-8" d="M585.88,661.48l-13.37,13.37L548.8,698.56,512.32,735l-36.24,36.24-8.29,8.29L456.3,791.06H400.35l-4.42-4.42-91.72-91.72-3.7-3.7v-56l10.42-10.42,34.56-34.56L381,554.77l35.4-35.4,12.6-12.6"/><line class="cls-9" x1="381.01" y1="554.77" x2="548.8" y2="698.56"/><line class="cls-9" x1="512.32" y1="735.04" x2="345.49" y2="590.29"/><path class="cls-9" d="M310.93,624.85,476.08,771.28"/><path class="cls-10" d="M101.34,988.62c-4.46-4.46,9.52-87.7,51.46-154.7,37-59,92.6-106,150.94-47.7"/><path class="cls-11" d="M303.74,786.22c50.38,50.38,11.3,98.2-56.9,145.49-65,45-139.81,62.59-145.5,56.91"/><path class="cls-12" d="M148.48,938.08c4.9,5.08,31.38-13.69,54.72-30.24,21.81-15.46,71-52.62,67.24-74.89a24.84,24.84,0,0,0-6.76-13.43"/><path class="cls-13" d="M263.68,819.52a24.87,24.87,0,0,0-14-5.36c-18-1.28-42.12,31-68.59,69-33.63,48.33-34.31,53.13-32.62,54.88"/><path class="cls-7" d="M870.56,215.4q-3.76-3.77-7.64-7.32c-97.93-90.15-250.16-88.33-346.33,5.31l-2.45,2.42q-2.31,2.31-4.55,4.67c-.77.8-1.53,1.61-2.28,2.42a252.44,252.44,0,0,0-52.08,257.65L429,506.77,585.88,661.48l27.89-27.89a252.4,252.4,0,0,0,256.38-61.77C968.68,473.28,968.87,313.71,870.56,215.4Z"/><path class="cls-14" d="M654.93,151.72C586.06,164,523.72,196.36,478.12,274.6s-27.61,169.56-13.21,210.84l-25.53,21.33,24.1,21.87h0a73.16,73.16,0,0,0,20.9-65.58A251.17,251.17,0,0,1,809.82,179.15s-20.54-10.75-24.62-12S723.8,139.47,654.93,151.72Z"/><path class="cls-15" d="M539.31,672.25l19.46-18.57a5.39,5.39,0,0,1,7.43,0l8.28,7.82L548.8,688.72l-9.41-8.58A5.39,5.39,0,0,1,539.31,672.25Z"/><line class="cls-11" x1="297.6" y1="780.46" x2="307.92" y2="790.62"/><path class="cls-11" d="M258.91,816.55s7.2,3.25,9.29,9.41"/></g><g id="Camada_5" data-name="Camada 5"><path class="cls-3" d="M933.28,430.07C921,498.94,888.64,561.28,810.4,606.88S653.32,639,612,624.64l-26.16,25.5-29.52-28.62-30.85-31.23c7.1-7.29,66,3,75.81,5.65,59.66,16.25,128.16,11,196.83-24.41a201.86,201.86,0,0,0,86.43-86c38.49-73.78,42-147.58,21.27-210.39,0,0,10.75,20.54,11.95,24.62S945.53,361.2,933.28,430.07Z"/><g id="Camada_6" data-name="Camada 6"><path class="cls-16" d="M606.2,371.64a32.64,32.64,0,1,1,56.79-22"/><circle class="cls-16" cx="737.44" cy="460.42" r="32.22"/></g><polygon class="cls-16" points="481.48 547.36 544.72 488.87 599.73 490.59 605.03 541.2 543.26 607.24 481.48 547.36"/><path class="cls-4" d="M493.33,558.9l11.21-11.53a12,12,0,0,1,9.13-3.62l22.45,1a12,12,0,0,1,11.4,10.76l2.2,21.4a12,12,0,0,1-2.5,8.65L535.11,601c-.45.57.53.5,0,0Z"/><circle class="cls-16" cx="630.01" cy="349.65" r="35.35"/><path d="M488.56,548.13,509,528.42,541.55,497l7.49-7.21-4.25,1.75,19.18.49,30.31.77,7,.18-6-6,1.58,18.61,2.52,29.66.58,6.81,1.76-4.24-6.06,6.49L581.15,559.9l-17.51,18.75L548.43,595c-2.47,2.65-5,5.25-7.41,7.94l-.11.11c-2.14,2.3-2.44,6.24,0,8.49s6.2,2.45,8.49,0l14.52-15.56,28-29.95,18-19.24A6.77,6.77,0,0,0,612,541.8c-.07-1.32-.23-2.64-.34-4l-1.45-17.12-2.81-33.08-.06-.64c-.28-3.29-2.52-5.91-6-6l-27.26-.69-19.18-.49c-3.31-.08-6.65-.28-10-.25s-5.45,2.8-7.61,4.88l-10.19,9.83-28.47,27.45c-6.09,5.88-12.29,11.67-18.29,17.64l-.28.27a6.07,6.07,0,0,0,0,8.49,6.13,6.13,0,0,0,8.49,0Z"/><path d="M650.06,384.59a6,6,0,1,0-6-6,6.08,6.08,0,0,0,6,6Z"/><path d="M573.88,463.17l8.32-8.25,20-19.81,24.09-23.86,20.82-20.63c3.39-3.36,6.86-6.64,10.17-10.08l.15-.14a6.06,6.06,0,0,0,0-8.48,6.14,6.14,0,0,0-8.49,0l-.42.37a6,6,0,0,0,0,8.48,6.15,6.15,0,0,0,8.49,0,41.14,41.14,0,0,0,13.74-38.4,41.26,41.26,0,0,0-20.18-28.75,41.28,41.28,0,0,0-47.79,66.78c2.36,2.07,6.2,2.5,8.49,0,2.08-2.26,2.52-6.27,0-8.48a36.58,36.58,0,0,1-3.08-3c-.46-.51-.9-1-1.34-1.57-.86-1,.79,1.12,0,0-.25-.36-.51-.71-.76-1.08a34.52,34.52,0,0,1-2.13-3.56c-.32-.61-.61-1.24-.91-1.87-.58-1.23.49,1.3,0,0-.16-.42-.32-.84-.47-1.26a35,35,0,0,1-1.21-4.26c-.14-.64-.24-1.28-.36-1.92-.25-1.38.13,1.43,0,0,0-.52-.11-1.05-.15-1.58a36.07,36.07,0,0,1,0-4.16c0-.57.07-1.15.12-1.73,0-.34.1-.68.12-1-.13,2,0,.38,0-.09.22-1.22.5-2.43.84-3.62.16-.54.32-1.07.5-1.6.11-.31.22-.62.34-.94s.87-1.82,0-.1a48.24,48.24,0,0,1,3.7-6.58l.49-.66c.44-.66-1,1.21-.24.31q.62-.76,1.26-1.5a36.2,36.2,0,0,1,2.77-2.77l1.24-1.06c.36-.29,1.28-.79-.18.13.27-.17.52-.39.79-.58a34.43,34.43,0,0,1,3.32-2.1c1.06-.59,2.17-1.06,3.26-1.6-1.76.87-.07,0,.42-.13q1.1-.39,2.22-.72c1.19-.34,2.4-.62,3.62-.84.33-.06.68-.08,1-.16-1.61.4-.91.11-.41.06.75-.09,1.49-.15,2.24-.18a35.32,35.32,0,0,1,3.85,0c.63,0,1.27.1,1.9.17s1.2.34-.41-.06c.44.1.9.14,1.35.22q1.82.35,3.6.87c.64.2,1.27.41,1.9.63l.62.24c1.54.59-.86-.42.1,0a37.22,37.22,0,0,1,6.54,3.76c.36.26,1.14,1-.17-.15.24.22.52.41.77.62l1.23,1.07a34.5,34.5,0,0,1,2.74,2.8c.43.49.82,1,1.25,1.5-1.28-1.41-.06-.06.23.36a35.1,35.1,0,0,1,2.07,3.35c.32.58.62,1.17.9,1.76s.72,2.22.2.38c.36,1.28.93,2.5,1.29,3.79s.56,2.88.91,4.31c-.43-1.74-.1-.73,0-.24s.09.92.12,1.38c.05.7.07,1.39.08,2.09,0,.86,0,1.72-.07,2.58,0,.33,0,.66-.07,1s0,.53-.08.8q-.12,1,.06-.42c-.28.22-.34,1.91-.43,2.32-.19.89-.41,1.77-.68,2.64s-.46,1.47-.73,2.2c-.07.17-.48.91-.43,1.07.36-.84.41-1,.15-.38-.1.23-.21.46-.32.69a34.92,34.92,0,0,1-2.43,4.3l-.43.63c-.16.23-.88,1-.88,1.22l.47-.61-.48.58c-.32.39-.65.77-1,1.14a36.76,36.76,0,0,1-3.54,3.41l8.49,8.48.42-.37-8.49-8.48-8.33,8.25-20,19.8-24.09,23.86L575.7,444.46c-3.38,3.36-6.86,6.65-10.17,10.08l-.14.14a6,6,0,0,0,8.49,8.49Z"/><path d="M705.46,437.83l-7.78,7.63L679,463.79l-22.51,22.09-19.61,19.24c-3.15,3.09-6.39,6.11-9.46,9.28l-.13.13a6.06,6.06,0,0,0,0,8.49,6.12,6.12,0,0,0,8.48,0l7.78-7.64,18.68-18.33L684.74,475l19.61-19.24c3.15-3.09,6.38-6.11,9.45-9.28l.14-.13a6,6,0,0,0-8.48-8.49Z"/><path d="M713.94,446.77c2.1-2.25,4.24-4.47,6.52-6.55,1.08-1,2.4-1.84,3.41-2.89-1.09,1.13-.42.33,0,.05l.9-.64c.59-.41,1.2-.81,1.82-1.19,1.24-.75,2.52-1.4,3.82-2s-1.33.49-.1.05l1-.38c.69-.24,1.39-.45,2.1-.64s1.44-.35,2.17-.48l.37-.06c.66-.1.5-.08-.46.05a5.74,5.74,0,0,0,1.15-.11,31.76,31.76,0,0,1,4.47,0c.69,0,1.39.18,2.07.18-1.75,0-.74-.1-.23,0,.34.05.67.11,1,.18a33.23,33.23,0,0,1,3.93,1c.63.21,1.27.43,1.89.67.41.15,1.42.7-.2-.11.3.15.61.27.91.41A32.45,32.45,0,0,1,754,436.1c.57.34,1.12.7,1.66,1.08.27.18.53.38.8.57,1,.7-1.12-.92-.17-.14s2,1.69,2.93,2.62a36.5,36.5,0,0,1,2.62,2.93c.77.94-.85-1.18-.14-.17l.57.8q.57.81,1.08,1.65a35.42,35.42,0,0,1,1.87,3.49c.14.3.26.62.4.91-.8-1.61-.25-.6-.1-.2.24.63.46,1.26.66,1.9a33.27,33.27,0,0,1,1,3.93c.07.33.13.67.18,1,0,.18.21,1.33,0,.22s0,0,0,.23c0,.46.09.92.11,1.39a32.86,32.86,0,0,1,0,4.21c0,.63-.1,1.26-.16,1.9-.08.84.26-1.62,0-.4-.07.45-.14.9-.23,1.35a33.77,33.77,0,0,1-1,3.93c-.16.53-.35,1.05-.54,1.58-.11.3-.27.62-.36.93.5-1.77.16-.38-.06.09a34.32,34.32,0,0,1-1.87,3.49c-.29.47-.59.93-.89,1.39l-.57.8c-1,1.32.61-.71-.05.1a40.43,40.43,0,0,1-5.55,5.55c-1,.77,1.17-.85.17-.14-.27.18-.53.38-.8.57-.54.37-1.09.73-1.66,1.07a34.4,34.4,0,0,1-3.49,1.88c-.3.13-.61.25-.91.4,1.62-.8.61-.26.2-.1-.62.24-1.26.46-1.89.66a35.34,35.34,0,0,1-3.93,1l-1,.18c-1.67.26,1-.09-.11,0-.75.07-1.5.14-2.25.18a35.61,35.61,0,0,1-5.06-.14l-.38,0c-.66-.08-.51-.06.46.07a9.27,9.27,0,0,0-1.49-.25c-.74-.14-1.48-.31-2.2-.49s-1.68-.47-2.5-.75l-1-.38-.69-.27c-.59-.24-.46-.18.42.18a11,11,0,0,0-2.15-1c-.7-.37-1.39-.76-2.06-1.17s-1.43-.92-2.12-1.42l-.29-.22c-.51-.38-.39-.28.35.28a7.13,7.13,0,0,0-1.12-.92,33.88,33.88,0,0,1-3.36-3.31c-.24-.27-.48-.55-.71-.83l-.46-.56c.57.74.66.85.28.35-.5-.69-1-1.38-1.45-2.1-1.7-2.63-5.4-4-8.21-2.15-2.63,1.7-4,5.39-2.15,8.21,7.83,12.15,21.71,19.73,36.28,18.93a41.12,41.12,0,0,0,32.58-19.19c7.23-11.58,7.75-26.06,2.25-38.41a40.41,40.41,0,0,0-28.45-22.6,36.76,36.76,0,0,0-21.6,1.85c-6.43,2.71-11.86,7.14-16.75,12.06-1.19,1.19-2.35,2.42-3.49,3.65-2.14,2.3-2.45,6.24,0,8.48s6.2,2.46,8.48,0Z"/><path d="M641.76,418.4l21.9,21.91,3.12,3.11a6,6,0,0,0,8.48-8.48L653.36,413l-3.12-3.11a6,6,0,1,0-8.48,8.48Z"/></g><g id="Camada_7" data-name="Camada 7"><path class="cls-3" d="M242.26,572.56s64.73-77,148.43-39.12l-78,78.27S297.4,586.24,242.26,572.56Z"/><path class="cls-3" d="M560.32,698.06s13.44,96.5-43.92,142.1c0,0,7.92,25.44,6.72,28.08s45.36-40.1,55-85.09,1.92-71.63-7.44-94.43Z"/><polygon class="cls-14" points="328.48 747.16 328.48 729.88 306.16 709.19 306.16 725.56 328.48 747.16"/><polygon class="cls-14" points="330.28 709.19 330.28 666.88 337.12 659.32 310.88 635.56 308.32 637.36 308.32 687.04 330.28 709.19"/><path class="cls-14" d="M351.43,642.55,366.29,628a6.26,6.26,0,0,0-.32-9.24l-20.48-17.42L322.72,624l20.08,18.62A6.26,6.26,0,0,0,351.43,642.55Z"/><path class="cls-14" d="M356.92,590.29,381,565.72l20.74,17.46a6.26,6.26,0,0,1,.34,9.27l-15.7,15.3a6.25,6.25,0,0,1-8.4.3Z"/><path class="cls-14" d="M423.24,573.22l27.37-24.91a6.27,6.27,0,0,0,.06-9.21l-21.76-20.33-35.4,36,21.42,18.56A6.26,6.26,0,0,0,423.24,573.22Z"/><polygon class="cls-15" points="352 771.28 369.4 771.28 382.48 784.6 365.08 784.6 352 771.28"/><polygon class="cls-15" points="391.72 771.28 442.48 770.32 452.44 761.2 464.44 771.28 452.92 783.28 403.48 783.28 391.72 771.28"/><path class="cls-15" d="M466.77,745l17.07-17.41a5.39,5.39,0,0,1,7.35-.33l9.13,7.78L476.08,761.2,467,752.73A5.39,5.39,0,0,1,466.77,745Z"/><path class="cls-15" d="M512.32,724l-8.93-7.23a5.41,5.41,0,0,1-.34-8.09L521,691.48a5.4,5.4,0,0,1,7.44,0l8.4,7.9Z"/></g></svg>