<?xml version="1.0" encoding="UTF-8" standalone="no"?>
<svg
   xmlns:dc="http://purl.org/dc/elements/1.1/"
   xmlns:cc="http://creativecommons.org/ns#"
   xmlns:rdf="http://www.w3.org/1999/02/22-rdf-syntax-ns#"
   xmlns:svg="http://www.w3.org/2000/svg"
   xmlns="http://www.w3.org/2000/svg"
   xmlns:sodipodi="http://sodipodi.sourceforge.net/DTD/sodipodi-0.dtd"
   xmlns:inkscape="http://www.inkscape.org/namespaces/inkscape"
   width="245mm"
   height="200mm"
   viewBox="0 0 245 200"
   version="1.1"
   id="svg2861"
   inkscape:version="1.0 (4035a4fb49, 2020-05-01)"
   sodipodi:docname="hand-two.svg">
  <defs
     id="defs2855" />
  <sodipodi:namedview
     id="base"
     pagecolor="#ffffff"
     bordercolor="#666666"
     borderopacity="1.0"
     inkscape:pageopacity="0.0"
     inkscape:pageshadow="2"
     inkscape:zoom="0.35"
     inkscape:cx="400"
     inkscape:cy="560"
     inkscape:document-units="mm"
     inkscape:current-layer="layer1"
     inkscape:document-rotation="0"
     showgrid="false"
     inkscape:window-width="1902"
     inkscape:window-height="1030"
     inkscape:window-x="0"
     inkscape:window-y="0"
     inkscape:window-maximized="0" />
  <metadata
     id="metadata2858">
    <rdf:RDF>
      <cc:Work
         rdf:about="">
        <dc:format>image/svg+xml</dc:format>
        <dc:type
           rdf:resource="http://purl.org/dc/dcmitype/StillImage" />
        <dc:title></dc:title>
      </cc:Work>
    </rdf:RDF>
  </metadata>
  <g
     inkscape:label="Layer 1"
     inkscape:groupmode="layer"
     id="layer1">
    <path
       id="path810"
       style="fill:#f4f5f8;fill-opacity:1;fill-rule:nonzero;stroke:none;stroke-width:0.243031"
       d="m 218.68809,87.25872 -21.73783,-0.0988 c -18.27297,-0.083 -33.13078,13.75024 -33.19213,30.88526 -0.0613,17.14419 14.69692,31.10404 32.96988,31.18706 l 21.73783,0.0988 0.22225,-62.07233" />
    <path
       id="path812"
       style="fill:#44a0a0;fill-opacity:1;fill-rule:nonzero;stroke:none;stroke-width:0.243031"
       d="m 196.89006,87.15968 c -0.004,-2e-5 -0.0144,-6e-5 -0.0144,-6e-5 0.007,3e-5 0.0144,6e-5 0.0144,6e-5 m -0.0573,-2.6e-4 c -0.004,-2e-5 -0.0144,-6e-5 -0.0215,-1e-4 0.007,4e-5 0.0144,7e-5 0.0215,1e-4 m -0.0644,0.002 c -0.004,-2e-5 -0.007,-3e-5 -0.0144,-7e-5 0.004,2e-5 0.007,4e-5 0.0144,7e-5 m -0.0645,-2.9e-4 c -0.004,-2e-5 -0.007,-4e-5 -0.007,-4e-5 0.003,2e-5 0.007,4e-5 0.007,4e-5" />
    <path
       id="path814"
       style="fill:#cdd8e2;fill-opacity:1;fill-rule:nonzero;stroke:none;stroke-width:0.243031"
       d="m 218.68809,87.25872 -0.22225,62.07233 -4.75952,-0.0216 c 0.16195,-1.80907 0.24649,-3.60838 0.25288,-5.39486 0.0579,-16.17527 -6.34681,-31.13154 -20.69857,-39.4925 L 180.89396,90.9971 c 4.68556,-2.43165 10.06489,-3.822 15.79807,-3.83598 0.003,1e-5 0.004,2e-5 0.007,3e-5 0.0144,7e-5 0.0359,1.7e-4 0.0503,2.3e-4 0.004,2e-5 0.007,4e-5 0.0144,7e-5 0.0144,6e-5 0.0287,-0.002 0.043,-0.002 0.007,4e-5 0.0144,7e-5 0.0215,10e-5 0.0144,7e-5 0.0287,1.3e-4 0.0431,2e-4 0.004,2e-5 0.0144,6e-5 0.0144,6e-5 0.0215,1e-4 0.043,2e-4 0.0573,2.6e-4 l 21.73792,0.0988" />
    <path
       id="path816"
       style="fill:#1c1b1c;fill-opacity:1;fill-rule:nonzero;stroke:none;stroke-width:0.243031"
       d="m 245.96746,57.51185 -0.43618,121.82218 -14.98873,-0.0681 0.43618,-121.82217 14.98873,0.0681" />
    <path
       id="path818"
       style="fill:#2d2b38;fill-opacity:1;fill-rule:nonzero;stroke:none;stroke-width:0.243031"
       d="m 230.90829,77.1164 -0.29529,82.4731 -12.64529,-0.0575 0.29529,-82.4731 12.64529,0.0575" />
    <path
       id="path820"
       style="fill:#dae3ec;fill-opacity:1;fill-rule:nonzero;stroke:none;stroke-width:0.243031"
       d="m 183.87389,133.91455 c 3.57532,0.0162 7.18456,-1.04034 10.23841,-3.24306 4.49773,-3.23996 6.74106,-8.20392 6.50282,-13.14384 l -0.0273,-0.4003 -0.0414,-0.44748 -0.0485,-0.44044 c -0.0488,-0.34394 -0.10569,-0.68315 -0.17975,-1.02248 l -0.0917,-0.39592 -0.0281,-0.1484 -0.13372,-0.47145 c -0.54257,-1.94222 -1.50681,-3.81573 -2.89325,-5.51226 l -32.43617,-35.21363 -6.68812,-7.25975 c -2.51808,-3.08115 -6.31096,-4.70621 -10.1522,-4.72366 -2.7448,-0.0125 -5.51518,0.79415 -7.8672,2.48546 -3.24502,2.34169 -4.97115,5.83434 -5.02662,9.40051 -0.0381,2.62226 0.83422,5.26985 2.67028,7.51456 l 32.99914,46.86649 c 0.20468,0.26224 0.41231,0.50328 0.63498,0.74206 0.20982,0.23164 0.43757,0.45635 0.66462,0.67394 1.14517,1.1069 2.43155,2.01907 3.81395,2.74146 0.28035,0.14114 0.56069,0.28575 0.84402,0.41296 0.42058,0.19709 0.86179,0.37373 1.29524,0.53391 0.43361,0.15925 0.87962,0.2926 1.33584,0.4216 1.49646,0.40771 3.05378,0.62265 4.61184,0.62972" />
    <path
       id="path822"
       style="fill:#cdd8e2;fill-opacity:1;fill-rule:nonzero;stroke:none;stroke-width:0.243031"
       d="m 200.63728,118.34226 c -0.002,0.51788 -0.0324,1.03565 -0.0987,1.55088 0.0591,-0.52936 0.0919,-1.06127 0.0938,-1.59563 8.4e-4,-0.23308 -0.003,-0.46845 -0.0119,-0.70392 0.0135,0.24963 0.0197,0.49916 0.0188,0.74868 m -0.1848,-2.41377 c -0.035,-0.23791 -0.0815,-0.47588 -0.13288,-0.71153 l -0.0917,-0.39592 -0.0281,-0.1484 -0.13373,-0.47146 c -0.0494,-0.16971 -0.097,-0.33709 -0.15151,-0.50683 0.0566,0.17209 0.11198,0.34417 0.16151,0.51629 l 0.1287,0.47376 0.0424,0.15788 0.0788,0.39112 c 0.0565,0.21686 0.0936,0.45239 0.12575,0.69503" />
    <path
       id="path824"
       style="fill:#4aacaa;fill-opacity:1;fill-rule:nonzero;stroke:none;stroke-width:0.243031"
       d="m 180.88127,90.98058 c -0.004,0.005 -0.007,0.005 -0.0144,0.007 l -16.13058,-17.51225 -4.20386,-4.56011 4.21891,4.56018 16.12809,17.50518" />
    <path
       id="path826"
       style="fill:#cdd8e2;fill-opacity:1;fill-rule:nonzero;stroke:none;stroke-width:0.243031"
       d="m 197.86349,109.59841 c -0.21454,-0.30934 -0.44702,-0.61174 -0.68955,-0.90946 l -3.95142,-4.29059 c 0.0144,0.007 0.0287,0.0141 0.0358,0.0236 l 3.91645,4.25042 c 0.2425,0.30479 0.4721,0.61186 0.68662,0.92592 m -16.9698,-18.60131 c -0.003,0.002 -0.007,0.002 -0.0144,0.005 l -0.0143,-0.0141 c 0.004,-0.002 0.007,-0.002 0.0144,-0.007 l 0.0143,0.0168" />
    <path
       id="path828"
       style="fill:#abbbce;fill-opacity:1;fill-rule:nonzero;stroke:none;stroke-width:0.243031"
       d="m 193.26041,104.42207 c -0.0144,-0.009 -0.0286,-0.0168 -0.0358,-0.0236 L 180.88295,91.00186 c 0.004,-0.002 0.007,-0.002 0.0144,-0.005 l 12.36669,13.425" />
    <path
       id="path830"
       style="fill:#44a0a0;fill-opacity:1;fill-rule:nonzero;stroke:none;stroke-width:0.243031"
       d="m 151.12051,61.8785 -5e-5,0.0123 c -0.47889,-0.1175 -0.96525,-0.20918 -1.45422,-0.27499 l 5e-5,-0.014 c 0.4891,0.0656 0.97538,0.15977 1.45421,0.27733" />
    <path
       id="path832"
       style="fill:#4aacaa;fill-opacity:1;fill-rule:nonzero;stroke:none;stroke-width:0.243031"
       d="m 149.66629,61.60117 -4e-5,0.014 c -0.58437,-0.078 -1.17637,-0.12067 -1.76845,-0.12336 -0.0644,-2.9e-4 -0.12539,10e-4 -0.18843,10e-4 -0.16835,-0.003 -0.33601,-0.002 -0.5044,0.003 0.23576,-0.0129 0.47436,-0.0165 0.71007,-0.0155 0.58462,0.003 1.17155,0.0427 1.75081,0.12094" />
    <path
       id="path834"
       style="fill:#4aacaa;fill-opacity:1;fill-rule:nonzero;stroke:none;stroke-width:0.243031"
       d="m 154.59046,63.28082 c -1.08663,-0.6264 -2.25667,-1.09078 -3.47,-1.39055 l 5e-5,-0.0123 c 1.21074,0.3021 2.38084,0.77117 3.46995,1.40232" />
    <path
       id="path836"
       style="fill:#b6c5d6;fill-opacity:1;fill-rule:nonzero;stroke:none;stroke-width:0.243031"
       d="m 200.63243,118.29751 c -0.002,0.53436 -0.0325,1.06625 -0.0932,1.59564 -0.0591,0.51762 -0.15201,1.03039 -0.26916,1.53363 l -0.0426,-0.12024 -0.0425,-0.15554 -0.12868,-0.4761 c -0.5749,-1.91883 -1.52692,-3.80405 -2.90083,-5.49817 L 162.33215,76.80486 c 0,0 -2.72466,9.05079 -17.31909,14.49536 l -1.5627,-2.21286 10.67467,-6.67002 c 3.57057,-2.16365 5.51809,-5.7942 5.53139,-9.50651 0.004,-1.19819 -0.19201,-2.40202 -0.59979,-3.57149 -0.29765,-0.91473 -0.73379,-1.78537 -1.33796,-2.63087 -0.10759,-0.1535 -0.21743,-0.30468 -0.32938,-0.45113 -2.30998,-3.03548 -5.94714,-4.70455 -9.67784,-4.76388 0.0644,2.9e-4 0.12538,-10e-4 0.18843,-10e-4 0.59179,0.003 1.18408,0.0454 1.76842,0.12336 0.48912,0.0656 0.97542,0.15743 1.45424,0.27499 1.21333,0.29979 2.38338,0.76413 3.47001,1.39054 1.29702,0.75449 2.47524,1.73915 3.4645,2.95126 l 2.47931,2.68315 4.20385,4.5601 16.13058,17.51226 0.0143,0.0141 12.3416,13.39661 3.95141,4.29059 c 0.24255,0.29771 0.47431,0.60012 0.68957,0.90945 0.90368,1.29884 1.58122,2.66729 2.05283,4.096 0.0566,0.16975 0.10414,0.33712 0.15151,0.50683 l 0.13373,0.47145 0.0281,0.1484 0.0917,0.39592 c 0.0493,0.23565 0.0965,0.47362 0.13287,0.71154 0.014,0.10603 0.0279,0.21433 0.0419,0.32269 l 0.0415,0.42866 0.0415,0.43333 0.0415,0.431 c -6e-5,0.0167 0.003,0.0327 0.003,0.0494 0.0136,0.23548 0.0198,0.47093 0.019,0.70396" />
    <path
       id="path838"
       style="fill:#2d2b38;fill-opacity:1;fill-rule:nonzero;stroke:none;stroke-width:0.243031"
       d="m 82.687719,27.95377 -8.5508,0.01325 0.018,6.975191 8.54828,-0.006 -0.018,-6.982271" />
    <path
       id="path840"
       style="fill:#2d2b38;fill-opacity:1;fill-rule:nonzero;stroke:none;stroke-width:0.243031"
       d="m 80.309879,10.240342 -4.68683,0.0021 0.0664,23.472753 4.68437,0.005 -0.0643,-23.479799" />
    <path
       id="path842"
       style="fill:#1c1b1c;fill-opacity:1;fill-rule:nonzero;stroke:none;stroke-width:0.243031"
       d="m 87.741609,24.965869 -18.68478,0.02106 0.009,3.444039 18.68981,-0.02338 -0.0163,-3.441732" />
    <path
       id="path846"
       style="fill:#dae3ec;fill-opacity:1;fill-rule:nonzero;stroke:none;stroke-width:0.243031"
       d="m 73.385039,112.53803 c 0.454,6.2686 6.24318,11.0054 12.91371,10.57196 6.68308,-0.41459 11.72804,-5.83425 11.27129,-12.0958 l -6.13983,-70.03093 c -0.46189,-6.26629 -6.2432,-11.003048 -12.92371,-10.583778 -6.67807,0.419278 -11.72054,5.841348 -11.25623,12.114708 l 6.13477,70.02384" />
    <path
       id="path848"
       style="fill:#ffffff;fill-opacity:1;fill-rule:nonzero;stroke:none;stroke-width:0.243031"
       d="m 78.777939,94.744568 c 2.50229,-0.23346 4.32634,-2.315588 4.08131,-4.656658 l -3.69483,-35.31138 c -0.24235,-2.35047 -2.46942,-4.06728 -4.95667,-3.83376 -2.49982,0.22166 -4.32629,2.30381 -4.07626,4.64959 l 3.68727,35.32078 c 0.24237,2.338698 2.46686,4.055508 4.95918,3.831428" />
    <path
       id="path850"
       style="fill:#44a0a0;fill-opacity:1;fill-rule:nonzero;stroke:none;stroke-width:0.243031"
       d="m 95.856109,91.46761 -1e-5,0.002 -4.42589,-50.48671 c -0.25343,-3.45458 -2.1271,-6.44334 -4.87519,-8.36026 2e-5,-0.005 3e-5,-0.007 3e-5,-0.007 2.74558,1.91693 4.62411,4.90571 4.87518,8.36263 l 4.42588,50.48906" />
    <path
       id="path852"
       style="fill:#4aacaa;fill-opacity:1;fill-rule:nonzero;stroke:none;stroke-width:0.243031"
       d="m 73.201809,110.44208 c -3e-5,0.009 -0.003,0.0167 -0.003,0.026 l -0.5782,-6.59874 c 0.003,1e-5 0.003,1e-5 0.004,2e-5 l 0.57614,6.57284" />
    <path
       id="path854"
       style="fill:#b6c5d6;fill-opacity:1;fill-rule:nonzero;stroke:none;stroke-width:0.243031"
       d="m 95.856099,91.46996 -17.20528,10.74114 c -3.15571,1.91601 -5.04596,4.97948 -5.44901,8.23098 l -0.57615,-6.57284 c 7.74463,-3.3076 16.14214,-8.846232 18.7264,-16.54407 0.82674,-2.46802 1.17295,-5.95048 1.18738,-9.98059 0.0593,-17.17504 -5.87827,-44.24795 -5.98448,-44.7216 2.74807,1.91694 4.6216,4.9057 4.87518,8.36028 l 4.42588,50.4867" />
    <path
       id="path856"
       style="fill:#44a0a0;fill-opacity:1;fill-rule:nonzero;stroke:none;stroke-width:0.243031"
       d="m 93.575179,120.24048 c -1.56533,1.31823 -3.50817,2.2628 -5.67492,2.67199 -0.51694,0.10121 -1.0544,0.17177 -1.59643,0.19754 -0.0573,0.005 -0.11041,0.007 -0.16554,0.0113 0.0503,-0.005 0.10817,-0.007 0.16053,-0.0113 2.80823,-0.17321 5.32608,-1.23051 7.26888,-2.86247 l 0.007,-0.007" />
    <path
       id="path858"
       style="fill:#b6c5d6;fill-opacity:1;fill-rule:nonzero;stroke:none;stroke-width:0.243031"
       d="m 93.567629,120.24751 c -1.94281,1.63196 -4.46066,2.68927 -7.26888,2.86248 -0.0502,0.005 -0.10816,0.007 -0.16053,0.0113 -0.0982,0.004 -0.19347,0.009 -0.28877,0.0108 2.06524,-0.0918 4.13227,-0.68039 5.99301,-1.80659 l 1.72502,-1.07739" />
    <path
       id="path860"
       style="fill:#f4f5f8;fill-opacity:1;fill-rule:nonzero;stroke:none;stroke-width:0.243031"
       d="m 154.12302,82.41729 c 5.61989,-3.4067 7.22074,-10.44516 3.5815,-15.72305 -3.64178,-5.2779 -11.14839,-6.79273 -16.7633,-3.37657 L 78.650819,102.2111 c -5.61489,3.41143 -7.22326,10.45222 -3.57652,15.73014 3.63679,5.27788 11.14091,6.78797 16.76831,3.38366 L 154.12302,82.41729" />
    <path
       id="path862"
       style="fill:#99acc5;fill-opacity:1;fill-rule:nonzero;stroke:none;stroke-width:0.243031"
       d="m 159.05492,69.33929 c -0.32059,-0.91247 -0.76885,-1.79966 -1.3504,-2.64505 -0.10268,-0.14875 -0.20742,-0.29522 -0.31725,-0.43692 0.11268,0.14645 0.22247,0.29763 0.3294,0.45113 0.60453,0.8455 1.0401,1.71613 1.33789,2.63087" />
    <path
       id="path864"
       style="fill:#cdd8e2;fill-opacity:1;fill-rule:nonzero;stroke:none;stroke-width:0.243031"
       d="m 159.25066,70.03463 c -0.1224,-0.2289 -0.24909,-0.4649 -0.41876,-0.70106 -2.28114,-3.38375 -6.16114,-5.20696 -10.12785,-5.22498 -2.25803,-0.0103 -4.55336,0.56779 -6.60771,1.81793 l -62.313101,38.91452 c -3.56053,2.15663 -5.50031,5.74719 -5.51353,9.43832 -0.004,1.04283 0.14797,2.09579 0.45811,3.12358 -1.08254,-1.79166 -1.60241,-3.75261 -1.59548,-5.68763 0.0133,-3.70995 1.95568,-7.33111 5.53381,-9.50414 L 140.93393,63.33176 c 2.05433,-1.24539 4.34715,-1.82349 6.61028,-1.8132 3.78608,0.0172 7.49098,1.67953 9.84349,4.73874 0.10988,0.14176 0.21463,0.28818 0.31727,0.43691 0.58161,0.8454 1.03,1.73258 1.35044,2.64506 0.0716,0.22868 0.13879,0.45966 0.19597,0.69534" />
    <path
       id="path866"
       style="fill:#ffffff;fill-opacity:1;fill-rule:nonzero;stroke:none;stroke-width:0.243031"
       d="m 139.53364,83.65516 c -0.005,1.52071 -0.79109,3.00961 -2.23959,3.92112 l -36.18579,22.58769 c -2.310991,1.44903 -5.440091,0.85571 -6.982941,-1.31941 -0.57673,-0.81006 -0.84935,-1.72704 -0.84611,-2.63099 0.005,-1.52306 0.79109,-3.01432 2.24201,-3.91875 L 131.70451,79.70711 c 2.31599,-1.44663 5.43511,-0.84866 6.98293,1.31941 0.57672,0.81007 0.84943,1.72469 0.8462,2.62864" />
    <path
       id="path868"
       style="fill:#1c1b1c;fill-opacity:1;fill-rule:nonzero;stroke:none;stroke-width:0.243031"
       d="m 154.70776,73.26261 c 0.24914,-3.74656 -2.7901,-6.98779 -6.77861,-7.22014 -3.99348,-0.24176 -7.44606,2.60273 -7.6878,6.34696 -0.25413,3.74653 2.78258,6.98776 6.77859,7.22955 3.99608,0.23236 7.4336,-2.6075 7.68782,-6.35637" />
    <path
       id="path870"
       style="fill:#2d2b38;fill-opacity:1;fill-rule:nonzero;stroke:none;stroke-width:0.243031"
       d="m 147.12602,78.02105 c -3.05784,-0.18573 -5.38485,-2.66338 -5.18896,-5.52739 0.19364,-2.85698 2.83319,-5.04368 5.881,-4.85799 3.0478,0.18809 5.37481,2.66569 5.18397,5.52267 -0.19367,2.86638 -2.82569,5.04842 -5.87601,4.86271" />
    <path
       id="path872"
       style="fill:#1c1b1c;fill-opacity:1;fill-rule:nonzero;stroke:none;stroke-width:0.243031"
       d="m 84.572329,104.94754 c -4.49609,-0.0204 -8.15888,3.38575 -8.17396,7.59947 -0.0151,4.21843 3.62318,7.65543 8.11927,7.67586 4.49868,0.0204 8.15643,-3.38341 8.17154,-7.60184 0.0151,-4.21372 -3.61817,-7.65305 -8.11685,-7.67349" />
    <path
       id="path874"
       style="fill:#2d2b38;fill-opacity:1;fill-rule:nonzero;stroke:none;stroke-width:0.243031"
       d="m 90.777329,112.61235 c -0.0115,3.22267 -2.81846,5.8347 -6.25328,5.8191 -3.4348,-0.0156 -6.21784,-2.65304 -6.2063,-5.87572 0.0115,-3.22031 2.81337,-5.83473 6.24817,-5.81913 3.43483,0.0156 6.22294,2.65543 6.21141,5.87575" />
    <path
       id="path876"
       style="fill:#1c1b1c;fill-opacity:1;fill-rule:nonzero;stroke:none;stroke-width:0.243031"
       d="m 183.89931,107.18794 c -6.45559,-0.0293 -11.69936,4.84803 -11.72103,10.90024 -0.0217,6.04752 5.18702,10.97237 11.64261,11.0017 6.44311,0.0293 11.69191,-4.84806 11.71356,-10.89557 0.0217,-6.05222 -5.19203,-10.97709 -11.63514,-11.00637" />
    <path
       id="path878"
       style="fill:#2d2b38;fill-opacity:1;fill-rule:nonzero;stroke:none;stroke-width:0.243031"
       d="m 192.79208,118.18185 c -0.0165,4.61625 -4.03933,8.36214 -8.96199,8.33977 -4.92761,-0.0224 -8.91853,-3.80468 -8.902,-8.42094 0.0166,-4.62568 4.03438,-8.3551 8.96198,-8.33271 4.92267,0.0224 8.91857,3.7882 8.90201,8.41388" />
    <path
       id="path880"
       style="fill:#1c1b1c;fill-opacity:1;fill-rule:nonzero;stroke:none;stroke-width:0.243031"
       d="m 75.497519,35.47531 c -3.89896,2.09389 -5.24302,6.77002 -3.003,10.43372 2.23253,3.65426 7.21593,4.91986 11.11741,2.82597 3.90154,-2.09387 5.25052,-6.76292 3.00558,-10.429 -2.23253,-3.65895 -7.22091,-4.93634 -11.11999,-2.83069" />
    <path
       id="path882"
       style="fill:#2d2b38;fill-opacity:1;fill-rule:nonzero;stroke:none;stroke-width:0.243031"
       d="m 84.955839,39.19771 c 1.71614,2.80443 0.68429,6.385 -2.29426,7.98636 -2.98146,1.59428 -6.79666,0.62119 -8.51037,-2.17853 -1.70866,-2.79263 -0.67504,-6.36612 2.30423,-7.96982 2.97138,-1.59906 6.7967,-0.63296 8.5004,2.16199" />
    <path
       d="M 1.7067126,-3.1702256 156.79612,-3.5555176 156.88151,9.8782097 1.7921176,10.2635 1.7066586,-3.1702256"
       style="fill:#1c1b1c;fill-opacity:1;fill-rule:nonzero;stroke:none;stroke-width:0.259599"
       id="path816-0" />
  </g>
</svg>
