<?xml version="1.0" encoding="UTF-8" standalone="no"?>
<svg
   xmlns:dc="http://purl.org/dc/elements/1.1/"
   xmlns:cc="http://creativecommons.org/ns#"
   xmlns:rdf="http://www.w3.org/1999/02/22-rdf-syntax-ns#"
   xmlns:svg="http://www.w3.org/2000/svg"
   xmlns="http://www.w3.org/2000/svg"
   xmlns:sodipodi="http://sodipodi.sourceforge.net/DTD/sodipodi-0.dtd"
   xmlns:inkscape="http://www.inkscape.org/namespaces/inkscape"
   sodipodi:docname="hand-two.svg"
   inkscape:version="1.0 (4035a4fb49, 2020-05-01)"
   id="svg2861"
   version="1.1"
   viewBox="0 0 300 200"
   height="200mm"
   width="300mm">
  <defs
     id="defs2855" />
  <sodipodi:namedview
     inkscape:window-maximized="0"
     inkscape:window-y="0"
     inkscape:window-x="0"
     inkscape:window-height="1030"
     inkscape:window-width="1902"
     showgrid="false"
     inkscape:document-rotation="0"
     inkscape:current-layer="layer1"
     inkscape:document-units="mm"
     inkscape:cy="560"
     inkscape:cx="400"
     inkscape:zoom="0.35"
     inkscape:pageshadow="2"
     inkscape:pageopacity="0.0"
     borderopacity="1.0"
     bordercolor="#666666"
     pagecolor="#ffffff"
     id="base" />
  <metadata
     id="metadata2858">
    <rdf:RDF>
      <cc:Work
         rdf:about="">
        <dc:format>image/svg+xml</dc:format>
        <dc:type
           rdf:resource="http://purl.org/dc/dcmitype/StillImage" />
        <dc:title></dc:title>
      </cc:Work>
    </rdf:RDF>
  </metadata>
  <g
     id="layer1"
     inkscape:groupmode="layer"
     inkscape:label="Layer 1">
    <path
       d="m 269.66556,91.038482 -24.48788,-0.0988 c -20.58467,-0.083 -37.32214,13.750238 -37.39125,30.885258 -0.0691,17.14419 16.55622,31.10404 37.14089,31.18706 l 24.48788,0.0988 0.25036,-62.072328"
       style="fill:#f4f5f8;fill-opacity:1;fill-rule:nonzero;stroke:none;stroke-width:0.257946"
       id="path810" />
    <path
       d="m 245.10987,90.939442 c -0.005,-2e-5 -0.0162,-6e-5 -0.0162,-6e-5 0.008,3e-5 0.0162,6e-5 0.0162,6e-5 m -0.0645,-2.6e-4 c -0.005,-2e-5 -0.0162,-6e-5 -0.0242,-1e-4 0.008,4e-5 0.0162,7e-5 0.0242,1e-4 m -0.0726,0.002 c -0.005,-2e-5 -0.008,-3e-5 -0.0162,-7e-5 0.005,2e-5 0.008,4e-5 0.0162,7e-5 m -0.0726,-2.9e-4 c -0.005,-2e-5 -0.008,-4e-5 -0.008,-4e-5 0.003,2e-5 0.008,4e-5 0.008,4e-5"
       style="fill:#44a0a0;fill-opacity:1;fill-rule:nonzero;stroke:none;stroke-width:0.257946"
       id="path812" />
    <path
       d="m 269.66556,91.038482 -0.25036,62.072328 -5.36165,-0.0216 c 0.18244,-1.80907 0.27767,-3.60838 0.28487,-5.39486 0.0652,-16.17527 -7.14974,-31.13154 -23.31714,-39.4925 L 227.09011,94.776862 c 5.27833,-2.43165 11.33819,-3.822 17.79668,-3.83598 0.003,1e-5 0.005,2e-5 0.008,3e-5 0.0162,7e-5 0.0404,1.7e-4 0.0566,2.3e-4 0.005,2e-5 0.008,4e-5 0.0162,7e-5 0.0162,6e-5 0.0323,-0.002 0.0485,-0.002 0.008,4e-5 0.0162,7e-5 0.0242,1e-4 0.0162,7e-5 0.0323,1.3e-4 0.0485,2e-4 0.005,2e-5 0.0162,6e-5 0.0162,6e-5 0.0242,1e-4 0.0485,2e-4 0.0646,2.6e-4 l 24.48797,0.0988"
       style="fill:#cdd8e2;fill-opacity:1;fill-rule:nonzero;stroke:none;stroke-width:0.257946"
       id="path814" />
    <path
       d="m 300.39604,61.291612 -0.49136,121.822178 -16.88495,-0.0681 0.49136,-121.822168 16.88495,0.0681"
       style="fill:#1c1b1c;fill-opacity:1;fill-rule:nonzero;stroke:none;stroke-width:0.257946"
       id="path816" />
    <path
       d="m 283.43174,80.896162 -0.33265,82.473098 -14.24504,-0.0575 0.33264,-82.473098 14.24505,0.0575"
       style="fill:#2d2b38;fill-opacity:1;fill-rule:nonzero;stroke:none;stroke-width:0.257946"
       id="path818" />
    <path
       d="m 230.44703,137.69431 c 4.02763,0.0162 8.09347,-1.04034 11.53366,-3.24306 5.06674,-3.23996 7.59388,-8.20392 7.3255,-13.14384 l -0.0307,-0.4003 -0.0467,-0.44748 -0.0546,-0.44044 c -0.055,-0.34394 -0.11906,-0.68315 -0.20249,-1.02248 l -0.10331,-0.39592 -0.0317,-0.1484 -0.15064,-0.47145 c -0.61121,-1.94222 -1.69743,-3.81573 -3.25927,-5.51226 l -36.53966,-35.213628 -7.53424,-7.25975 c -2.83664,-3.08115 -7.10935,-4.70621 -11.43655,-4.72366 -3.09204,-0.0125 -6.2129,0.79415 -8.86248,2.48546 -3.65554,2.34169 -5.60005,5.83434 -5.66253,9.40051 -0.0429,2.62226 0.93975,5.26985 3.00809,7.51456 l 37.17386,46.866488 c 0.23057,0.26224 0.46447,0.50328 0.71531,0.74206 0.23636,0.23164 0.49292,0.45635 0.7487,0.67394 1.29004,1.1069 2.73916,2.01907 4.29645,2.74146 0.31582,0.14114 0.63162,0.28575 0.9508,0.41296 0.47379,0.19709 0.97081,0.37373 1.4591,0.53391 0.48847,0.15925 0.9909,0.2926 1.50484,0.4216 1.68577,0.40771 3.44011,0.62265 5.19528,0.62972"
       style="fill:#dae3ec;fill-opacity:1;fill-rule:nonzero;stroke:none;stroke-width:0.257946"
       id="path820" />
    <path
       d="m 249.33115,122.12202 c -0.002,0.51788 -0.0365,1.03565 -0.11116,1.55088 0.0666,-0.52936 0.10348,-1.06127 0.10563,-1.59563 9.4e-4,-0.23308 -0.003,-0.46845 -0.0134,-0.70392 0.0152,0.24963 0.0222,0.49916 0.0212,0.74868 m -0.20818,-2.41377 c -0.0394,-0.23791 -0.0918,-0.47588 -0.14968,-0.71153 l -0.10331,-0.39592 -0.0317,-0.1484 -0.15064,-0.47146 c -0.0557,-0.16971 -0.10923,-0.33709 -0.17068,-0.50683 0.0638,0.17209 0.12614,0.34417 0.18194,0.51629 l 0.14498,0.47376 0.0478,0.15788 0.0888,0.39112 c 0.0636,0.21686 0.10548,0.45239 0.14166,0.69503"
       style="fill:#cdd8e2;fill-opacity:1;fill-rule:nonzero;stroke:none;stroke-width:0.257946"
       id="path822" />
    <path
       d="m 227.07581,94.760342 c -0.005,0.005 -0.008,0.005 -0.0162,0.007 l -18.17126,-17.51225 -4.73568,-4.56011 4.75264,4.56018 18.16845,17.50518"
       style="fill:#4aacaa;fill-opacity:1;fill-rule:nonzero;stroke:none;stroke-width:0.257946"
       id="path824" />
    <path
       d="m 246.20645,113.37817 c -0.24168,-0.30934 -0.50358,-0.61174 -0.77679,-0.90946 l -4.45131,-4.29059 c 0.0162,0.007 0.0323,0.0141 0.0403,0.0236 l 4.41191,4.25042 c 0.27318,0.30479 0.53183,0.61186 0.77349,0.92592 M 227.08744,94.776752 c -0.003,0.002 -0.008,0.002 -0.0162,0.005 l -0.0161,-0.0141 c 0.005,-0.002 0.008,-0.002 0.0162,-0.007 l 0.0161,0.0168"
       style="fill:#cdd8e2;fill-opacity:1;fill-rule:nonzero;stroke:none;stroke-width:0.257946"
       id="path826" />
    <path
       d="m 241.02103,108.20183 c -0.0162,-0.009 -0.0322,-0.0168 -0.0403,-0.0236 L 227.0777,94.781622 c 0.005,-0.002 0.008,-0.002 0.0162,-0.005 l 13.9312,13.424998"
       style="fill:#abbbce;fill-opacity:1;fill-rule:nonzero;stroke:none;stroke-width:0.257946"
       id="path828" />
    <path
       d="m 193.55002,65.658262 -5e-5,0.0123 c -0.53948,-0.1175 -1.08737,-0.20918 -1.6382,-0.27499 l 6e-5,-0.014 c 0.55098,0.0656 1.09878,0.15977 1.63818,0.27733"
       style="fill:#44a0a0;fill-opacity:1;fill-rule:nonzero;stroke:none;stroke-width:0.257946"
       id="path830" />
    <path
       d="m 191.91183,65.380932 -5e-5,0.014 c -0.65829,-0.078 -1.32519,-0.12067 -1.99217,-0.12336 -0.0726,-2.9e-4 -0.14125,10e-4 -0.21227,10e-4 -0.18965,-0.003 -0.37852,-0.002 -0.56821,0.003 0.26559,-0.0129 0.53437,-0.0165 0.7999,-0.0155 0.65858,0.003 1.31976,0.0427 1.97231,0.12094"
       style="fill:#4aacaa;fill-opacity:1;fill-rule:nonzero;stroke:none;stroke-width:0.257946"
       id="path832" />
    <path
       d="m 197.45896,67.060582 c -1.2241,-0.6264 -2.54216,-1.09078 -3.90899,-1.39055 l 5e-5,-0.0123 c 1.36391,0.3021 2.68204,0.77117 3.90894,1.40232"
       style="fill:#4aacaa;fill-opacity:1;fill-rule:nonzero;stroke:none;stroke-width:0.257946"
       id="path834" />
    <path
       d="m 249.32568,122.07727 c -0.002,0.53436 -0.0366,1.06625 -0.10493,1.59564 -0.0666,0.51762 -0.17124,1.03039 -0.30321,1.53363 l -0.048,-0.12024 -0.0479,-0.15554 -0.14496,-0.4761 c -0.64763,-1.91883 -1.72009,-3.80405 -3.26781,-5.49817 L 206.18005,80.584622 c 0,0 -3.06936,9.05079 -19.51013,14.49536 l -1.7604,-2.21286 12.02513,-6.67002 c 4.02228,-2.16365 6.21618,-5.7942 6.23116,-9.50651 0.005,-1.19819 -0.2163,-2.40202 -0.67567,-3.57149 -0.3353,-0.91473 -0.82662,-1.78537 -1.50722,-2.63087 -0.12121,-0.1535 -0.24494,-0.30468 -0.37106,-0.45113 -2.60221,-3.03548 -6.69951,-4.70455 -10.90218,-4.76388 0.0726,2.9e-4 0.14125,-0.001 0.21227,-0.001 0.66666,0.003 1.33388,0.0454 1.99215,0.12336 0.55099,0.0656 1.09881,0.15743 1.63821,0.27499 1.36683,0.29979 2.6849,0.76413 3.909,1.39054 1.46111,0.75449 2.78838,1.73915 3.90279,2.95126 l 2.79297,2.68315 4.73568,4.5601 18.17125,17.51226 0.0161,0.0141 13.90294,13.396608 4.4513,4.29059 c 0.27323,0.29771 0.53431,0.60012 0.7768,0.90945 1.01801,1.29884 1.78126,2.66729 2.31254,4.096 0.0638,0.16975 0.11731,0.33712 0.17068,0.50683 l 0.15064,0.47145 0.0317,0.1484 0.10331,0.39592 c 0.0555,0.23565 0.10868,0.47362 0.14967,0.71154 0.0158,0.10603 0.0314,0.21433 0.0472,0.32269 l 0.0468,0.42866 0.0467,0.43333 0.0468,0.431 c -7e-5,0.0167 0.003,0.0327 0.003,0.0494 0.0153,0.23548 0.0223,0.47093 0.0214,0.70396"
       style="fill:#b6c5d6;fill-opacity:1;fill-rule:nonzero;stroke:none;stroke-width:0.257946"
       id="path836" />
    <path
       d="m 116.45981,31.733532 -9.63257,0.01325 0.0203,6.975191 9.62973,-0.006 -0.0203,-6.982271"
       style="fill:#2d2b38;fill-opacity:1;fill-rule:nonzero;stroke:none;stroke-width:0.257946"
       id="path838" />
    <path
       d="m 113.78114,14.020104 -5.27976,0.0021 0.0748,23.472753 5.27698,0.005 -0.0724,-23.479799"
       style="fill:#2d2b38;fill-opacity:1;fill-rule:nonzero;stroke:none;stroke-width:0.257946"
       id="path840" />
    <path
       d="m 122.15306,28.745631 -21.04859,0.02106 0.0103,3.444039 21.05425,-0.02338 -0.0184,-3.441732"
       style="fill:#1c1b1c;fill-opacity:1;fill-rule:nonzero;stroke:none;stroke-width:0.257946"
       id="path842" />
    <path
       d="m 105.98024,116.31779 c 0.51144,6.2686 7.03301,11.0054 14.54743,10.57196 7.52855,-0.41459 13.21175,-5.83425 12.69721,-12.0958 l -6.91657,-70.030928 c -0.52033,-6.26629 -7.03303,-11.003048 -14.55869,-10.583778 -7.52291,0.419278 -13.203303,5.841348 -12.680257,12.114708 l 6.910877,70.023838"
       style="fill:#dae3ec;fill-opacity:1;fill-rule:nonzero;stroke:none;stroke-width:0.257946"
       id="path846" />
    <path
       d="m 112.0554,98.52433 c 2.81885,-0.23346 4.87366,-2.315588 4.59763,-4.656658 l -4.16226,-35.31138 c -0.27301,-2.35047 -2.78182,-4.06728 -5.58373,-3.83376 -2.81607,0.22166 -4.87361,2.30381 -4.59195,4.64959 l 4.15374,35.32078 c 0.27304,2.338698 2.77895,4.055508 5.58657,3.831428"
       style="fill:#ffffff;fill-opacity:1;fill-rule:nonzero;stroke:none;stroke-width:0.257946"
       id="path848" />
    <path
       d="m 131.29412,95.247372 -1e-5,0.002 -4.9858,-50.48671 c -0.2855,-3.45458 -2.3962,-6.44334 -5.49195,-8.36026 2e-5,-0.005 3e-5,-0.007 3e-5,-0.007 3.09292,1.91693 5.20911,4.90571 5.49194,8.36263 l 4.98579,50.48906"
       style="fill:#44a0a0;fill-opacity:1;fill-rule:nonzero;stroke:none;stroke-width:0.257946"
       id="path850" />
    <path
       d="m 105.77383,114.22184 c -3e-5,0.009 -0.003,0.0167 -0.003,0.026 l -0.65135,-6.59874 c 0.003,10e-6 0.003,10e-6 0.005,2e-5 l 0.64903,6.57284"
       style="fill:#4aacaa;fill-opacity:1;fill-rule:nonzero;stroke:none;stroke-width:0.257946"
       id="path852" />
    <path
       d="M 131.29411,95.249722 111.9122,105.99086 c -3.55494,1.91601 -5.68433,4.97948 -6.13837,8.23098 L 105.1248,107.649 c 8.7244,-3.3076 18.18427,-8.84623 21.09547,-16.544068 0.93133,-2.46802 1.32134,-5.95048 1.33759,-9.98059 0.0668,-17.17504 -6.62193,-44.24795 -6.74157,-44.7216 3.09573,1.91694 5.20628,4.9057 5.49194,8.36028 l 4.98579,50.4867"
       style="fill:#b6c5d6;fill-opacity:1;fill-rule:nonzero;stroke:none;stroke-width:0.257946"
       id="path854" />
    <path
       d="m 128.72463,124.02024 c -1.76335,1.31823 -3.95198,2.2628 -6.39285,2.67199 -0.58234,0.10121 -1.18779,0.17177 -1.79839,0.19754 -0.0645,0.005 -0.12438,0.007 -0.18648,0.0113 0.0566,-0.005 0.12185,-0.007 0.18084,-0.0113 3.16349,-0.17321 5.99988,-1.23051 8.18846,-2.86247 l 0.008,-0.007"
       style="fill:#44a0a0;fill-opacity:1;fill-rule:nonzero;stroke:none;stroke-width:0.257946"
       id="path856" />
    <path
       d="m 128.71613,124.02727 c -2.18859,1.63196 -5.02498,2.68927 -8.18846,2.86248 -0.0566,0.005 -0.12185,0.007 -0.18084,0.0113 -0.11061,0.004 -0.21795,0.009 -0.3253,0.0108 2.32651,-0.0918 4.65504,-0.68039 6.75118,-1.80659 l 1.94325,-1.07739"
       style="fill:#b6c5d6;fill-opacity:1;fill-rule:nonzero;stroke:none;stroke-width:0.257946"
       id="path858" />
    <path
       d="m 196.93238,86.197052 c 6.33086,-3.4067 8.13424,-10.44516 4.0346,-15.72305 -4.10251,-5.2779 -12.55878,-6.79273 -18.88403,-3.37657 L 111.9122,105.99086 c -6.32523,3.41143 -8.13707,10.45222 -4.02899,15.73014 4.09688,5.27788 12.55035,6.78797 18.88967,3.38366 l 70.1595,-38.907608"
       style="fill:#f4f5f8;fill-opacity:1;fill-rule:nonzero;stroke:none;stroke-width:0.257946"
       id="path860" />
    <path
       d="m 202.48821,73.119052 c -0.36114,-0.91247 -0.86611,-1.79966 -1.52123,-2.64505 -0.11567,-0.14875 -0.23367,-0.29522 -0.35739,-0.43692 0.12693,0.14645 0.25062,0.29763 0.37107,0.45113 0.68101,0.8455 1.17169,1.71613 1.50715,2.63087"
       style="fill:#99acc5;fill-opacity:1;fill-rule:nonzero;stroke:none;stroke-width:0.257946"
       id="path862" />
    <path
       d="m 202.70872,73.814392 c -0.13789,-0.2289 -0.28061,-0.4649 -0.47174,-0.70106 -2.56973,-3.38375 -6.94059,-5.20696 -11.40912,-5.22498 -2.5437,-0.0103 -5.12941,0.56779 -7.44365,1.81793 L 113.18788,108.6208 c -4.01097,2.15663 -6.19615,5.74719 -6.21104,9.43832 -0.004,1.04283 0.16669,2.09579 0.51606,3.12358 -1.21949,-1.79166 -1.80513,-3.75261 -1.79732,-5.68763 0.015,-3.70995 2.20309,-7.33111 6.23389,-9.50414 l 70.14527,-38.879408 c 2.31423,-1.24539 4.89711,-1.82349 7.44655,-1.8132 4.26505,0.0172 8.43866,1.67953 11.08878,4.73874 0.12378,0.14176 0.24179,0.28818 0.35741,0.43691 0.65519,0.8454 1.16031,1.73258 1.52129,2.64506 0.0806,0.22868 0.15634,0.45966 0.22076,0.69534"
       style="fill:#cdd8e2;fill-opacity:1;fill-rule:nonzero;stroke:none;stroke-width:0.257946"
       id="path864" />
    <path
       d="m 180.4973,87.434922 c -0.006,1.52071 -0.89117,3.00961 -2.52292,3.92112 l -40.76366,22.587688 c -2.60335,1.44903 -6.12831,0.85571 -7.86635,-1.31941 -0.64969,-0.81006 -0.9568,-1.72704 -0.95315,-2.63099 0.006,-1.52306 0.89117,-3.01432 2.52565,-3.91875 l 40.76084,-22.587708 c 2.60898,-1.44663 6.1227,-0.84866 7.86634,1.31941 0.64968,0.81007 0.95689,1.72469 0.95325,2.62864"
       style="fill:#ffffff;fill-opacity:1;fill-rule:nonzero;stroke:none;stroke-width:0.257946"
       id="path866" />
    <path
       d="m 197.5911,77.042372 c 0.28065,-3.74656 -3.14308,-6.98779 -7.63617,-7.22014 -4.4987,-0.24176 -8.38806,2.60273 -8.66039,6.34696 -0.28628,3.74653 3.13461,6.98776 7.63615,7.22955 4.50163,0.23236 8.37403,-2.6075 8.66041,-6.35637"
       style="fill:#1c1b1c;fill-opacity:1;fill-rule:nonzero;stroke:none;stroke-width:0.257946"
       id="path868" />
    <path
       d="m 189.05019,81.800812 c -3.44468,-0.18573 -6.06608,-2.66338 -5.84541,-5.52739 0.21814,-2.85698 3.19161,-5.04368 6.625,-4.85799 3.43338,0.18809 6.05478,2.66569 5.83979,5.52267 -0.21817,2.86638 -3.18316,5.04842 -6.61938,4.86271"
       style="fill:#2d2b38;fill-opacity:1;fill-rule:nonzero;stroke:none;stroke-width:0.257946"
       id="path870" />
    <path
       d="m 118.58284,108.7273 c -5.06489,-0.0204 -9.19106,3.38575 -9.20805,7.59947 -0.017,4.21843 4.08155,7.65543 9.14644,7.67586 5.0678,0.0204 9.1883,-3.38341 9.20532,-7.60184 0.017,-4.21372 -4.07591,-7.65305 -9.14371,-7.67349"
       style="fill:#1c1b1c;fill-opacity:1;fill-rule:nonzero;stroke:none;stroke-width:0.257946"
       id="path872" />
    <path
       d="m 125.57283,116.39211 c -0.013,3.22267 -3.17502,5.8347 -7.04438,5.8191 -3.86934,-0.0156 -7.00446,-2.65304 -6.99146,-5.87572 0.013,-3.22031 3.16929,-5.83473 7.03863,-5.81913 3.86936,0.0156 7.0102,2.65543 6.99721,5.87575"
       style="fill:#2d2b38;fill-opacity:1;fill-rule:nonzero;stroke:none;stroke-width:0.257946"
       id="path874" />
    <path
       d="m 230.47566,110.9677 c -7.27228,-0.0293 -13.17944,4.84803 -13.20385,10.90024 -0.0244,6.04752 5.84323,10.97237 13.11551,11.0017 7.25823,0.0293 13.17105,-4.84806 13.19544,-10.89557 0.0244,-6.05222 -5.84887,-10.97709 -13.1071,-11.00637"
       style="fill:#1c1b1c;fill-opacity:1;fill-rule:nonzero;stroke:none;stroke-width:0.257946"
       id="path876" />
    <path
       d="m 240.49346,121.96161 c -0.0186,4.61625 -4.55035,8.36214 -10.09578,8.33977 -5.551,-0.0224 -10.04681,-3.80468 -10.02819,-8.42094 0.0187,-4.62568 4.54477,-8.3551 10.09576,-8.33271 5.54544,0.0224 10.04686,3.7882 10.02821,8.41388"
       style="fill:#2d2b38;fill-opacity:1;fill-rule:nonzero;stroke:none;stroke-width:0.257946"
       id="path878" />
    <path
       d="m 108.35998,39.255072 c -4.39222,2.09389 -5.90632,6.77002 -3.38291,10.43372 2.51496,3.65426 8.12881,4.91986 12.52387,2.82597 4.39512,-2.09387 5.91476,-6.76292 3.38581,-10.429 -2.51496,-3.65895 -8.13442,-4.93634 -12.52677,-2.83069"
       style="fill:#1c1b1c;fill-opacity:1;fill-rule:nonzero;stroke:none;stroke-width:0.257946"
       id="path880" />
    <path
       d="m 119.01487,42.977472 c 1.93324,2.80443 0.77085,6.385 -2.58451,7.98636 -3.35865,1.59428 -7.65651,0.62119 -9.58702,-2.17853 -1.92482,-2.79263 -0.76044,-6.36612 2.59574,-7.96982 3.34729,-1.59906 7.65655,-0.63296 9.57579,2.16199"
       style="fill:#2d2b38;fill-opacity:1;fill-rule:nonzero;stroke:none;stroke-width:0.257946"
       id="path882" />
    <path
       id="path816-0"
       style="fill:#1c1b1c;fill-opacity:1;fill-rule:nonzero;stroke:none;stroke-width:0.275531"
       d="M 25.23391,0.6095363 199.94365,0.22424434 200.03985,13.657972 25.33012,14.043262 25.23385,0.6095363" />
  </g>
</svg>
