<?xml version="1.0" encoding="UTF-8" standalone="no"?>
<svg
   xmlns:dc="http://purl.org/dc/elements/1.1/"
   xmlns:cc="http://creativecommons.org/ns#"
   xmlns:rdf="http://www.w3.org/1999/02/22-rdf-syntax-ns#"
   xmlns:svg="http://www.w3.org/2000/svg"
   xmlns="http://www.w3.org/2000/svg"
   xmlns:sodipodi="http://sodipodi.sourceforge.net/DTD/sodipodi-0.dtd"
   xmlns:inkscape="http://www.inkscape.org/namespaces/inkscape"
   sodipodi:docname="hand.svg"
   inkscape:version="1.0 (4035a4fb49, 2020-05-01)"
   id="svg1237"
   version="1.1"
   viewBox="0 0 50 50"
   height="50mm"
   width="50mm">
  <defs
     id="defs1231" />
  <sodipodi:namedview
     inkscape:window-maximized="0"
     inkscape:window-y="0"
     inkscape:window-x="0"
     inkscape:window-height="1030"
     inkscape:window-width="1902"
     showgrid="false"
     inkscape:document-rotation="0"
     inkscape:current-layer="layer1"
     inkscape:document-units="mm"
     inkscape:cy="95.329829"
     inkscape:cx="101.5378"
     inkscape:zoom="2.8"
     inkscape:pageshadow="2"
     inkscape:pageopacity="0.0"
     borderopacity="1.0"
     bordercolor="#666666"
     pagecolor="#ffffff"
     id="base" />
  <metadata
     id="metadata1234">
    <rdf:RDF>
      <cc:Work
         rdf:about="">
        <dc:format>image/svg+xml</dc:format>
        <dc:type
           rdf:resource="http://purl.org/dc/dcmitype/StillImage" />
        <dc:title></dc:title>
      </cc:Work>
    </rdf:RDF>
  </metadata>
  <g
     id="layer1"
     inkscape:groupmode="layer"
     inkscape:label="Layer 1">
    <path
       d="M 43.185807,10.47632 44.795528,12.461101 32.538002,22.507325 30.917691,20.523875 43.185807,10.47632"
       style="fill:#1c1b1c;fill-opacity:1;fill-rule:nonzero;stroke:none;stroke-width:0.143363"
       id="path34" />
    <path
       d="M 45.230104,10.823266 43.795012,12.202293 37.627061,5.7024073 39.06788,4.3220496 45.230104,10.823266"
       style="fill:#1c1b1c;fill-opacity:1;fill-rule:nonzero;stroke:none;stroke-width:0.143363"
       id="path36" />
    <path
       d="m 42.333319,11.462856 c -0.0021,0.923136 0.742091,1.678354 1.657267,1.687557 0.912163,0.009 1.667627,-0.730984 1.669676,-1.654121 0.0021,-0.926054 -0.750098,-1.6784816 -1.662258,-1.6876527 -0.915179,-0.00904 -1.662632,0.7281617 -1.664685,1.6542167"
       style="fill:#1c1b1c;fill-opacity:1;fill-rule:nonzero;stroke:none;stroke-width:0.143363"
       id="path38" />
    <path
       d="M 37.271108,2.0550105 39.15548,2.0739125 39.14072,8.793467 37.256343,8.774566 37.271103,2.0550081"
       style="fill:#1c1b1c;fill-opacity:1;fill-rule:nonzero;stroke:none;stroke-width:0.143363"
       id="path40" />
    <path
       d="M 10.912963,10.151958 9.2900738,12.10425 21.501201,22.396396 23.121941,20.445523 10.912963,10.151958"
       style="fill:#1c1b1c;fill-opacity:1;fill-rule:nonzero;stroke:none;stroke-width:0.143363"
       id="path42" />
    <path
       d="M 8.8620718,10.45775 10.298275,11.865628 16.488645,5.4899542 15.053592,4.0806867 8.8620718,10.45775"
       style="fill:#1c1b1c;fill-opacity:1;fill-rule:nonzero;stroke:none;stroke-width:0.143363"
       id="path44" />
    <path
       d="m 11.757752,11.155552 c -0.002,0.923138 -0.751933,1.663344 -1.669824,1.654118 -0.9194614,-0.009 -1.6581739,-0.764405 -1.6561243,-1.687546 0.00213,-0.926052 0.7440759,-1.6634699 1.6635373,-1.6542234 0.917891,0.00904 1.664467,0.7615964 1.662411,1.6876514"
       style="fill:#1c1b1c;fill-opacity:1;fill-rule:nonzero;stroke:none;stroke-width:0.143363"
       id="path46" />
    <path
       d="m 16.856337,1.8498334 -1.880372,-0.018885 -0.01476,6.7195496 1.880374,0.018901 0.01476,-6.7195545"
       style="fill:#1c1b1c;fill-opacity:1;fill-rule:nonzero;stroke:none;stroke-width:0.143363"
       id="path48" />
    <path
       d="m 34.235461,19.928842 -0.0082,3.708447 -14.430205,-0.14505 0.0082,-3.708453 14.430214,0.145051"
       style="fill:#1c1b1c;fill-opacity:1;fill-rule:nonzero;stroke:none;stroke-width:0.143363"
       id="path50" />
    <path
       d="m 30.623043,22.488073 -0.0082,3.708495 -7.215173,-0.07251 0.0082,-3.708491 7.215176,0.07251"
       style="fill:#1c1b1c;fill-opacity:1;fill-rule:nonzero;stroke:none;stroke-width:0.143363"
       id="path52" />
    <path
       d="m 19.663775,20.416518 22.860559,-6.983139 -0.271611,-0.88713 -22.586808,6.89966 -0.0021,0.970609"
       style="fill:#1c1b1c;fill-opacity:1;fill-rule:nonzero;stroke:none;stroke-width:0.143363"
       id="path54" />
    <path
       d="m 33.675653,20.353135 0.0021,-0.973475 -21.647649,-6.993365 -0.277123,0.88305 21.922588,7.08379"
       style="fill:#1c1b1c;fill-opacity:1;fill-rule:nonzero;stroke:none;stroke-width:0.143363"
       id="path56" />
    <path
       d="m 29.221998,24.561966 -4.416785,-0.0444 -0.02509,11.22607 4.41678,0.04437 0.02509,-11.226067"
       style="fill:#1c1b1c;fill-opacity:1;fill-rule:nonzero;stroke:none;stroke-width:0.143363"
       id="path58" />
    <path
       d="m 0.35782703,33.06437 c -0.1040416,3.442256 -0.53429937,7.121989 -0.4640012,10.721649 l 23.21318217,0.04141 c 4.142455,0.008 7.350306,-2.325663 7.153672,-5.204376 l -0.02145,-0.291424 c -0.198557,-2.873302 -3.722989,-5.218118 -7.868219,-5.22837 L 0.35821833,33.064344"
       style="fill:#2d2b38;fill-opacity:1;fill-rule:nonzero;stroke:none;stroke-width:0.168898"
       id="path60" />
    <path
       d="m 42.124518,46.17369 0.0033,0.0028 c -0.881632,0.784877 -1.783947,1.552331 -2.693384,2.305306 l -0.0016,-0.0014 c 0.90672,-0.75592 1.811178,-1.521914 2.691804,-2.306797"
       style="fill:#c4bfe5;fill-opacity:1;fill-rule:nonzero;stroke:none;stroke-width:0.143363"
       id="path62" />
    <path
       inkscape:transform-center-y="-8.3426894"
       inkscape:transform-center-x="10.848264"
       d="m 3.892095,36.115799 c 0.7519628,-0.304098 1.810668,-0.48886 3.0013613,-0.483709 l 17.8866617,0.111551 c -0.06928,1.151134 -0.211546,2.305364 -0.375489,3.454061 L 7.1929677,39.092331 c -2.3832,-0.02007 -4.3831188,-0.805847 -4.4711518,-1.757132 -0.04114,-0.47967 0.4077847,-0.911432 1.1702906,-1.219424"
       style="fill:#3f3d50;fill-opacity:1;fill-rule:nonzero;stroke:none;stroke-width:0.220794"
       id="path64" />
    <path
       d="m 25.05253,44.149954 c 3.526676,1.103884 7.252428,-0.871863 8.32555,-4.411438 1.065268,-3.541135 -0.918985,-7.308446 -4.456954,-8.411007 -3.521094,-1.109533 -7.24899,0.864699 -8.324412,4.410056 -1.073693,3.53813 0.921844,7.30704 4.455816,8.412389"
       style="fill:#eeeded;fill-opacity:1;fill-rule:nonzero;stroke:none;stroke-width:0.143363"
       id="path66" />
    <path
       d="m 29.197091,35.788033 c -2.30874,-0.726352 -4.757032,0.570562 -5.462267,2.892996 -0.700944,2.322451 0.600708,4.795936 2.925004,5.518176 2.308736,0.726356 4.762168,-0.566191 5.463548,-2.890107 0.699664,-2.325378 -0.607424,-4.794569 -2.926285,-5.521065"
       style="fill:#8ba2ba;fill-opacity:1;fill-rule:nonzero;stroke:none;stroke-width:0.143363"
       id="path68" />
    <path
       d="m 30.26477,38.761029 c -0.539369,1.776226 -2.415972,2.768275 -4.189109,2.216973 -1.757967,-0.556935 -2.754864,-2.44781 -2.223357,-4.224157 0.539345,-1.769039 2.40981,-2.764024 4.173933,-2.211375 1.768124,0.554168 2.772879,2.449431 2.238533,4.218559"
       style="fill:#2d2b38;fill-opacity:1;fill-rule:nonzero;stroke:none;stroke-width:0.143363"
       id="path70" />
    <path
       d="m 31.781766,-0.75678413 1.380116,0.0137283 -8e-6,0.001395 -1.379544,-0.0125563 -5.64e-4,-0.002846"
       style="fill:#7f7e89;fill-opacity:1;fill-rule:nonzero;stroke:none;stroke-width:0.143363"
       id="path76" />
  </g>
</svg>
