<svg id="Camada_1" data-name="Camada 1" xmlns="http://www.w3.org/2000/svg" viewBox="0 0 476.18 476.18"><defs><style>.cls-1{fill:none;stroke:#f7fe00;stroke-miterlimit:10;stroke-width:9px;}.cls-2{fill:#f7fe00;}</style></defs><title>Logo Zetta SVG</title><rect width="476.18" height="476.18"/><rect class="cls-1" x="22.62" y="22.62" width="430.94" height="430.94"/><path class="cls-2" d="M792,377.8h324.86L794.14,693.09l-3,2.71V638.37l198-193.71s9.43-9.86-6.85-9.43-191.15-1.71-191.15-1.71Z" transform="translate(-721.91 -301.91)"/><path class="cls-2" d="M1121.32,708.3H793.5L968.1,536.8l150.38-146.13-1.62,57.42L924.18,641.45s-9.43,9.85,6.86,9.42,191.14,1.72,191.14,1.72Z" transform="translate(-721.91 -301.91)"/><rect width="476.18" height="476.18"/><rect class="cls-1" x="22.62" y="22.62" width="430.94" height="430.94"/><path class="cls-2" d="M792,377.8h324.86L794.14,693.09l-3,2.71V638.37l198-193.71s9.43-9.86-6.85-9.43-191.15-1.71-191.15-1.71Z" transform="translate(-721.91 -301.91)"/><path class="cls-2" d="M1121.32,708.3H793.5L968.1,536.8l150.38-146.13-1.62,57.42L924.18,641.45s-9.43,9.85,6.86,9.42,191.14,1.72,191.14,1.72Z" transform="translate(-721.91 -301.91)"/></svg>