<?xml version="1.0" encoding="UTF-8" standalone="no"?>
<svg
   xmlns:dc="http://purl.org/dc/elements/1.1/"
   xmlns:cc="http://creativecommons.org/ns#"
   xmlns:rdf="http://www.w3.org/1999/02/22-rdf-syntax-ns#"
   xmlns:svg="http://www.w3.org/2000/svg"
   xmlns="http://www.w3.org/2000/svg"
   xmlns:sodipodi="http://sodipodi.sourceforge.net/DTD/sodipodi-0.dtd"
   xmlns:inkscape="http://www.inkscape.org/namespaces/inkscape"
   inkscape:version="1.0 (4035a4fb49, 2020-05-01)"
   sodipodi:docname="next.svg"
   id="svg7"
   version="1.1"
   viewBox="0 0 32 32">
  <metadata
     id="metadata13">
    <rdf:RDF>
      <cc:Work
         rdf:about="">
        <dc:format>image/svg+xml</dc:format>
        <dc:type
           rdf:resource="http://purl.org/dc/dcmitype/StillImage" />
      </cc:Work>
    </rdf:RDF>
  </metadata>
  <defs
     id="defs11" />
  <sodipodi:namedview
     inkscape:current-layer="svg7"
     inkscape:window-maximized="1"
     inkscape:window-y="-9"
     inkscape:window-x="-9"
     inkscape:cy="16"
     inkscape:cx="16"
     inkscape:zoom="26.5"
     showgrid="false"
     id="namedview9"
     inkscape:window-height="1001"
     inkscape:window-width="1920"
     inkscape:pageshadow="2"
     inkscape:pageopacity="0"
     guidetolerance="10"
     gridtolerance="10"
     objecttolerance="10"
     borderopacity="1"
     bordercolor="#666666"
     pagecolor="#ffffff" />
  <title
     id="title2" />
  <g
     style="fill:#555555;fill-opacity:1"
     id="Layer_2"
     data-name="Layer 2">
    <path
       style="fill:#555555;fill-opacity:1"
       id="path4"
       d="M29.58,15.19l-14-10A1,1,0,0,0,14,6v6.63L3.58,5.19A1,1,0,0,0,2,6V26a1,1,0,0,0,.54.89A1.07,1.07,0,0,0,3,27a1,1,0,0,0,.58-.19L14,19.37V26a1,1,0,0,0,.54.89A1.07,1.07,0,0,0,15,27a1,1,0,0,0,.58-.19l14-10a1,1,0,0,0,0-1.62Z" />
  </g>
</svg>
