<?xml version="1.0" encoding="UTF-8" standalone="no"?>
<svg
   xmlns:dc="http://purl.org/dc/elements/1.1/"
   xmlns:cc="http://creativecommons.org/ns#"
   xmlns:rdf="http://www.w3.org/1999/02/22-rdf-syntax-ns#"
   xmlns:svg="http://www.w3.org/2000/svg"
   xmlns="http://www.w3.org/2000/svg"
   xmlns:sodipodi="http://sodipodi.sourceforge.net/DTD/sodipodi-0.dtd"
   xmlns:inkscape="http://www.inkscape.org/namespaces/inkscape"
   inkscape:version="1.0 (4035a4fb49, 2020-05-01)"
   sodipodi:docname="play-marcada.svg"
   version="1.1"
   viewBox="0 0 851 851"
   data-name="Camada 1"
   id="Camada_1">
  <metadata
     id="metadata21">
    <rdf:RDF>
      <cc:Work
         rdf:about="">
        <dc:format>image/svg+xml</dc:format>
        <dc:type
           rdf:resource="http://purl.org/dc/dcmitype/StillImage" />
      </cc:Work>
    </rdf:RDF>
  </metadata>
  <sodipodi:namedview
     inkscape:current-layer="Camada_1"
     inkscape:window-maximized="1"
     inkscape:window-y="-9"
     inkscape:window-x="-9"
     inkscape:cy="425.5"
     inkscape:cx="425.5"
     inkscape:zoom="0.99647474"
     showgrid="false"
     id="namedview19"
     inkscape:window-height="1001"
     inkscape:window-width="1920"
     inkscape:pageshadow="2"
     inkscape:pageopacity="0"
     guidetolerance="10"
     gridtolerance="10"
     objecttolerance="10"
     borderopacity="1"
     bordercolor="#666666"
     pagecolor="#ffffff" />
  <defs
     id="defs4">
    <style
       id="style2">.cls-1{fill:#999;stroke:#000;stroke-miterlimit:10;}</style>
  </defs>
  <title
     id="title6">Play site</title>
  <circle
     style="fill:#ffff00;fill-opacity:1"
     id="circle8"
     r="425"
     cy="425.5"
     cx="425.5"
     class="cls-1" />
  <path
     style="fill:#444444;fill-opacity:1"
     id="path10"
     transform="translate(-47 -114)"
     d="M278.92,289.88a44.58,44.58,0,0,1,44.53-44.53,43.79,43.79,0,0,1,22.17,6L593.06,394.24,278.92,708.37Z" />
  <path
     id="path12"
     transform="translate(-47 -114)"
     d="M323.45,244.85v1h0a43.29,43.29,0,0,1,21.92,6L592.24,394.34,279.42,707.17V289.88a43.4,43.4,0,0,1,13.4-31.64,44.74,44.74,0,0,1,30.63-12.39v-1m0,0c-23.48,0-45,18.78-45,45v419.7L593.87,394.13l-248-143.19a44.65,44.65,0,0,0-22.42-6.09Z" />
  <path
     style="fill:#444444;fill-opacity:1"
     id="path14"
     transform="translate(-47 -114)"
     d="M323.45,834.65a44.58,44.58,0,0,1-44.53-44.53V770.79L632.63,417.08l146.21,84.41a44.46,44.46,0,0,1,0,77L345.62,828.63A43.79,43.79,0,0,1,323.45,834.65Z" />
  <path
     id="path16"
     transform="translate(-47 -114)"
     d="M632.72,417.7l145.87,84.23a43.95,43.95,0,0,1,0,76.14L345.37,828.19a43.29,43.29,0,0,1-21.92,6,44.69,44.69,0,0,1-30.63-12.39,43.4,43.4,0,0,1-13.4-31.64V771L632.72,417.7m-.17-1.25L278.42,770.58v19.54c0,26.25,21.55,45,45,45a44.62,44.62,0,0,0,22.42-6.09L779.09,578.94c30-17.31,30-60.57,0-77.88L632.55,416.45Z" />
</svg>
