<?xml version="1.0" encoding="UTF-8" standalone="no"?>
<svg
   xmlns:dc="http://purl.org/dc/elements/1.1/"
   xmlns:cc="http://creativecommons.org/ns#"
   xmlns:rdf="http://www.w3.org/1999/02/22-rdf-syntax-ns#"
   xmlns:svg="http://www.w3.org/2000/svg"
   xmlns="http://www.w3.org/2000/svg"
   xmlns:sodipodi="http://sodipodi.sourceforge.net/DTD/sodipodi-0.dtd"
   xmlns:inkscape="http://www.inkscape.org/namespaces/inkscape"
   sodipodi:docname="policial.svg"
   inkscape:version="1.0 (4035a4fb49, 2020-05-01)"
   id="svg3312"
   version="1.1"
   viewBox="0 0 210 297"
   height="297mm"
   width="210mm">
  <defs
     id="defs3306" />
  <sodipodi:namedview
     inkscape:window-maximized="0"
     inkscape:window-y="0"
     inkscape:window-x="0"
     inkscape:window-height="1030"
     inkscape:window-width="1902"
     showgrid="false"
     inkscape:document-rotation="0"
     inkscape:current-layer="layer1"
     inkscape:document-units="mm"
     inkscape:cy="560"
     inkscape:cx="400"
     inkscape:zoom="0.35"
     inkscape:pageshadow="2"
     inkscape:pageopacity="0.0"
     borderopacity="1.0"
     bordercolor="#666666"
     pagecolor="#ffffff"
     id="base" />
  <metadata
     id="metadata3309">
    <rdf:RDF>
      <cc:Work
         rdf:about="">
        <dc:format>image/svg+xml</dc:format>
        <dc:type
           rdf:resource="http://purl.org/dc/dcmitype/StillImage" />
        <dc:title></dc:title>
      </cc:Work>
    </rdf:RDF>
  </metadata>
  <g
     id="layer1"
     inkscape:groupmode="layer"
     inkscape:label="Layer 1">
    <path
       d="m 76.068084,63.903841 h -10.68665 v -17.17779 h 10.68665 v 17.17779"
       style="fill:#dae3ec;fill-opacity:1;fill-rule:nonzero;stroke:none;stroke-width:0.237532"
       id="path2198" />
    <path
       d="m 85.963481,62.52255 c 0,5.002733 -4.131265,9.054815 -9.219242,9.054815 -5.090365,0 -9.22404,-4.052082 -9.22404,-9.054815 V 48.107327 c 0,-4.993327 4.133675,-9.050112 9.22404,-9.050112 5.087977,0 9.219242,4.056785 9.219242,9.050112 V 62.52255"
       style="fill:#242e3d;fill-opacity:1;fill-rule:nonzero;stroke:none;stroke-width:0.237532"
       id="path2200" />
    <path
       d="m 145.9881,63.903841 h 10.69384 V 46.726051 H 145.9881 v 17.17779"
       style="fill:#dae3ec;fill-opacity:1;fill-rule:nonzero;stroke:none;stroke-width:0.237532"
       id="path2202" />
    <path
       d="m 136.09269,62.52255 c 0,5.002733 4.12888,9.054815 9.21925,9.054815 5.09036,0 9.21924,-4.052082 9.21924,-9.054815 V 48.107327 c 0,-4.993327 -4.12888,-9.050112 -9.21924,-9.050112 -5.09037,0 -9.21925,4.056785 -9.21925,9.050112 V 62.52255"
       style="fill:#242e3d;fill-opacity:1;fill-rule:nonzero;stroke:none;stroke-width:0.237532"
       id="path2204" />
    <path
       d="M 111.65989,62.746104 H 109.1255 V 4.1863008 h 2.53439 V 62.746104"
       style="fill:#242e3d;fill-opacity:1;fill-rule:nonzero;stroke:none;stroke-width:0.237532"
       id="path2206" />
    <path
       d="m 110.3891,1.0142954 c 1.7863,0 3.23452,1.4212808 3.23452,3.1720054 0,1.7507262 -1.44822,3.1720073 -3.23452,3.1720073 -1.78871,0 -3.22973,-1.4212811 -3.22973,-3.1720073 0,-1.7507246 1.44102,-3.1720054 3.22973,-3.1720054"
       style="fill:#1c2026;fill-opacity:1;fill-rule:nonzero;stroke:none;stroke-width:0.237532"
       id="path2208" />
    <path
       d="m 68.026117,204.54735 14.1178,45.17079 H 110.39149 V 204.54735 H 68.026117"
       style="fill:#242e3d;fill-opacity:1;fill-rule:nonzero;stroke:none;stroke-width:0.237532"
       id="path2210" />
    <path
       d="m 152.75206,204.54735 h -42.36057 v 45.17079 h 28.24278 l 14.11779,-45.17079"
       style="fill:#1c2026;fill-opacity:1;fill-rule:nonzero;stroke:none;stroke-width:0.237532"
       id="path2212" />
    <path
       d="M 93.849607,84.648966 V 118.49393 H 110.39149 V 84.648966 H 93.849607"
       style="fill:#242e3d;fill-opacity:1;fill-rule:nonzero;stroke:none;stroke-width:0.237532"
       id="path2214" />
    <path
       d="m 126.92858,84.648966 h -16.53709 v 33.844964 h 16.53709 V 84.648966"
       style="fill:#1c2026;fill-opacity:1;fill-rule:nonzero;stroke:none;stroke-width:0.237532"
       id="path2216" />
    <path
       d="M 153.56968,96.381868 H 110.39149 V 208.44932 h 43.17819 V 96.381868"
       style="fill:#f4f5f8;fill-opacity:1;fill-rule:nonzero;stroke:none;stroke-width:0.237532"
       id="path2218" />
    <path
       d="M 67.213294,96.381868 V 208.44932 H 110.39149 V 96.381868 H 67.213294"
       style="fill:#ffffff;fill-opacity:1;fill-rule:nonzero;stroke:none;stroke-width:0.237532"
       id="path2220" />
    <path
       d="m 69.459961,100.38219 c 0.342894,-1.125042 1.556118,-1.764842 2.709422,-1.426482 1.146113,0.34378 1.798298,1.536832 1.453026,2.666572 -0.342894,1.12219 -1.560924,1.76484 -2.704638,1.42834 -1.150904,-0.3466 -1.80788,-1.53235 -1.45781,-2.66843"
       style="fill:#49596e;fill-opacity:1;fill-rule:nonzero;stroke:none;stroke-width:0.237532"
       id="path2222" />
    <path
       d="m 145.50855,100.38219 c 0.3429,-1.125042 1.56092,-1.764842 2.71663,-1.426482 1.14131,0.34378 1.80068,1.536832 1.45061,2.666572 -0.34289,1.12219 -1.55612,1.76484 -2.70463,1.42834 -1.1581,-0.3466 -1.81508,-1.53235 -1.46261,-2.66843"
       style="fill:#49596e;fill-opacity:1;fill-rule:nonzero;stroke:none;stroke-width:0.237532"
       id="path2224" />
    <path
       d="m 70.279983,201.78714 c 0.347651,-1.12435 1.565708,-1.75756 2.71422,-1.42577 1.146114,0.34351 1.80069,1.53683 1.455418,2.66116 -0.345272,1.13235 -1.563316,1.77943 -2.709429,1.43304 -1.150904,-0.33618 -1.805481,-1.53608 -1.460209,-2.66843"
       style="fill:#49596e;fill-opacity:1;fill-rule:nonzero;stroke:none;stroke-width:0.237532"
       id="path2226" />
    <path
       d="m 146.33336,201.78714 c 0.33808,-1.12435 1.56331,-1.75756 2.70944,-1.42577 1.14851,0.34351 1.80787,1.53683 1.45781,2.66116 -0.34766,1.13235 -1.55612,1.77943 -2.71183,1.43304 -1.14612,-0.33618 -1.80068,-1.53608 -1.45542,-2.66843"
       style="fill:#49596e;fill-opacity:1;fill-rule:nonzero;stroke:none;stroke-width:0.237532"
       id="path2228" />
    <path
       d="m 76.761028,237.57391 c -5.591494,0 -10.13758,4.45421 -10.13758,9.95839 v 23.84841 c 0,5.49223 4.546086,9.95398 10.13758,9.95398 H 110.39149 V 237.57391 H 76.761028"
       style="fill:#ffffff;fill-opacity:1;fill-rule:nonzero;stroke:none;stroke-width:0.237532"
       id="path2230" />
    <path
       d="m 141.68897,237.57391 h -31.29748 v 43.76078 h 31.29748 c 5.60588,0 10.14238,-4.46175 10.14238,-9.95398 V 247.5323 c 0,-5.50418 -4.5365,-9.95839 -10.14238,-9.95839"
       style="fill:#dae3ec;fill-opacity:1;fill-rule:nonzero;stroke:none;stroke-width:0.237532"
       id="path2232" />
    <path
       d="m 37.752463,112.28663 v 83.22712 c 0,7.76973 6.416312,14.06432 14.335993,14.06432 V 98.223888 c -7.919681,0 -14.335993,6.299312 -14.335993,14.062742"
       style="fill:#242e3d;fill-opacity:1;fill-rule:nonzero;stroke:none;stroke-width:0.237532"
       id="path2234" />
    <path
       d="M 52.088456,98.223888 V 209.57807 c 7.914882,0 14.333586,-6.29459 14.333586,-14.06432 v -83.22712 c 0,-7.76343 -6.418704,-14.062742 -14.333586,-14.062742"
       style="fill:#1c2026;fill-opacity:1;fill-rule:nonzero;stroke:none;stroke-width:0.237532"
       id="path2236" />
    <path
       d="m 134.82429,21.241729 h -24.4328 v 68.15112 h 24.4328 c 5.6802,0 10.28383,-4.525048 10.28383,-10.099588 V 31.336625 c 0,-5.574549 -4.60363,-10.094896 -10.28383,-10.094896"
       style="fill:#f4f5f8;fill-opacity:1;fill-rule:nonzero;stroke:none;stroke-width:0.237532"
       id="path2238" />
    <path
       d="m 85.958685,21.241729 c -5.680192,0 -10.283825,4.520347 -10.283825,10.094896 v 47.956636 c 0,5.57454 4.603633,10.099588 10.283825,10.099588 H 110.39149 V 21.241729 H 85.958685"
       style="fill:#ffffff;fill-opacity:1;fill-rule:nonzero;stroke:none;stroke-width:0.237532"
       id="path2240" />
    <path
       d="m 134.26802,55.312587 c 0,-12.937465 -10.68905,-23.432389 -23.87653,-23.432389 -13.18987,0 -23.876521,10.494924 -23.876521,23.432389 0,12.946887 10.686651,23.434742 23.876521,23.434742 13.18748,0 23.87653,-10.487855 23.87653,-23.434742"
       style="fill:#242e3d;fill-opacity:1;fill-rule:nonzero;stroke:none;stroke-width:0.237532"
       id="path2242" />
    <path
       d="m 129.59726,55.312587 c 0,-10.407858 -8.60063,-18.848508 -19.20577,-18.848508 -10.607531,0 -19.208158,8.44065 -19.208158,18.848508 0,10.412561 8.600627,18.855571 19.208158,18.855571 10.60514,0 19.20577,-8.44301 19.20577,-18.855571"
       style="fill:#1c2026;fill-opacity:1;fill-rule:nonzero;stroke:none;stroke-width:0.237532"
       id="path2244" />
    <path
       d="m 67.469848,282.47804 c 0,4.17211 -3.443132,7.54933 -7.689497,7.54933 -4.248763,0 -7.691895,-3.37722 -7.691895,-7.54933 V 246.5645 c 0,-4.16224 3.443132,-7.5392 7.691895,-7.5392 4.246365,0 7.689497,3.37696 7.689497,7.5392 v 35.91354"
       style="fill:#1c2026;fill-opacity:1;fill-rule:nonzero;stroke:none;stroke-width:0.237532"
       id="path2258" />
    <path
       d="m 168.13585,282.47804 c 0,4.17211 -3.44311,7.54933 -7.69188,7.54933 -4.24637,0 -7.69191,-3.37722 -7.69191,-7.54933 V 246.5645 c 0,-4.16224 3.44554,-7.5392 7.69191,-7.5392 4.24877,0 7.69188,3.37696 7.69188,7.5392 v 35.91354"
       style="fill:#1c2026;fill-opacity:1;fill-rule:nonzero;stroke:none;stroke-width:0.237532"
       id="path2260" />
    <path
       d="m 153.56968,112.28663 v 83.22712 c 0,7.76973 6.41393,14.06432 14.3288,14.06432 V 98.223888 c -7.91487,0 -14.3288,6.299312 -14.3288,14.062742"
       style="fill:#242e3d;fill-opacity:1;fill-rule:nonzero;stroke:none;stroke-width:0.237532"
       id="path2262" />
    <path
       d="M 167.89848,98.223888 V 209.57807 c 7.91969,0 14.3312,-6.29459 14.3312,-14.06432 v -83.22712 c 0,-7.76343 -6.41151,-14.062742 -14.3312,-14.062742"
       style="fill:#1c2026;fill-opacity:1;fill-rule:nonzero;stroke:none;stroke-width:0.237532"
       id="path2264" />
  </g>
</svg>
