<?xml version="1.0" encoding="UTF-8" standalone="no"?>
<svg
   xmlns:dc="http://purl.org/dc/elements/1.1/"
   xmlns:cc="http://creativecommons.org/ns#"
   xmlns:rdf="http://www.w3.org/1999/02/22-rdf-syntax-ns#"
   xmlns:svg="http://www.w3.org/2000/svg"
   xmlns="http://www.w3.org/2000/svg"
   xmlns:sodipodi="http://sodipodi.sourceforge.net/DTD/sodipodi-0.dtd"
   xmlns:inkscape="http://www.inkscape.org/namespaces/inkscape"
   height="1158.73"
   width="1200"
   id="Camada_1"
   data-name="Camada 1"
   viewBox="0 0 1200 1158.73"
   version="1.1"
   sodipodi:docname="reflexivo.svg"
   inkscape:version="1.0 (4035a4fb49, 2020-05-01)">
  <metadata
     id="metadata79">
    <rdf:RDF>
      <cc:Work
         rdf:about="">
        <dc:format>image/svg+xml</dc:format>
        <dc:type
           rdf:resource="http://purl.org/dc/dcmitype/StillImage" />
        <dc:title>Baner reflexivo</dc:title>
      </cc:Work>
    </rdf:RDF>
  </metadata>
  <sodipodi:namedview
     inkscape:document-rotation="0"
     pagecolor="#ffffff"
     bordercolor="#666666"
     borderopacity="1"
     objecttolerance="10"
     gridtolerance="10"
     guidetolerance="10"
     inkscape:pageopacity="0"
     inkscape:pageshadow="2"
     inkscape:window-width="1920"
     inkscape:window-height="1001"
     id="namedview77"
     showgrid="false"
     inkscape:zoom="0.73183573"
     inkscape:cx="540"
     inkscape:cy="251.42254"
     inkscape:window-x="-9"
     inkscape:window-y="-9"
     inkscape:window-maximized="1"
     inkscape:current-layer="Camada_1" />
  <defs
     id="defs4">
    <style
       id="style2">.cls-1{fill:#212d3b;}.cls-12,.cls-2{fill:#3e348a;}.cls-3{fill:#00000f;}.cls-11,.cls-4{fill:none;}.cls-4{stroke:#000;stroke-width:8px;}.cls-11,.cls-12,.cls-4,.cls-9{stroke-miterlimit:10;}.cls-5{fill:#151e27;}.cls-6{fill:#11171e;}.cls-7{font-size:138px;}.cls-7,.cls-9{fill:#3e618a;font-family:Inlanders-Bold, Inlanders;font-weight:700;}.cls-8{letter-spacing:-0.03em;}.cls-9{font-size:73.6px;}.cls-11,.cls-9{stroke:#3e618a;}.cls-10{font-size:61.33px;font-family:Humanist777BT-BlackCondensedB, Humnst777 BlkCn BT;font-weight:800;}.cls-11{stroke-width:2px;}.cls-12{stroke:#3e348a;}</style>
  </defs>
  <title
     id="title6">Baner reflexivo</title>
  <rect
     x="0"
     class="cls-1"
     y="1.9686096"
     width="1200.2456"
     height="1155.6614"
     id="rect8"
     style="fill:#151e27;fill-opacity:1;stroke-width:1.09051" />
  <path
     class="cls-2"
     d="m 683.4335,290.58571 h 32.05 a 68.51,68.51 0 0 1 68.54,68.5 v 47.55 a 84.53,84.53 0 0 1 -84.53,84.53 v 0 a 84.53,84.53 0 0 1 -84.53,-84.53 v -47.55 a 68.51,68.51 0 0 1 68.51,-68.51 z"
     id="path10" />
  <path
     class="cls-3"
     d="m 577.6835,359.09571 v 47.54 a 84.54,84.54 0 1 1 -169.07,0 v -47.54 a 68.51,68.51 0 0 1 68.51,-68.51 h 32 a 68.51,68.51 0 0 1 68.56,68.51 z"
     id="path12" />
  <line
     y2="5.4657073"
     class="cls-4"
     x1="479.0235"
     y1="292.01569"
     x2="479.0235"
     id="line14" />
  <line
     class="cls-4"
     x1="506.1835"
     y1="308.3157"
     x2="506.1835"
     y2="21.765707"
     id="line16" />
  <line
     y2="5.4657073"
     class="cls-4"
     x1="699.4635"
     y1="292.01569"
     x2="699.4635"
     id="line18" />
  <line
     class="cls-4"
     x1="726.62347"
     y1="313.7457"
     x2="726.62347"
     y2="27.195707"
     id="line20" />
  <path
     d="m 361.3335,234.70571 v 134.68 l 34.39,31.52 h 395.43 l 31.53,-31.52 v -134.68 z"
     id="path22" />
  <line
     class="cls-5"
     x1="794.0235"
     y1="370.44571"
     x2="392.39349"
     y2="370.44571"
     id="line24" />
  <line
     class="cls-5"
     x1="392.85349"
     y1="234.70572"
     x2="392.85349"
     y2="369.38571"
     id="line26" />
  <line
     class="cls-5"
     x1="794.0235"
     y1="370.8157"
     x2="794.0235"
     y2="370.44571"
     id="line28" />
  <line
     class="cls-5"
     x1="794.0235"
     y1="369.38571"
     x2="794.0235"
     y2="236.13571"
     id="line30" />
  <line
     class="cls-5"
     x1="392.85349"
     y1="369.38571"
     x2="378.5235"
     y2="383.7157"
     id="line32" />
  <line
     class="cls-5"
     x1="808.35352"
     y1="383.7157"
     x2="795.0835"
     y2="370.44571"
     id="line34" />
  <path
     d="m 604.9035,400.90571 v 88.26 l -6.31,6.3 h -5 l -5.85,-5.84 v -88.72 z"
     id="path36" />
  <rect
     class="cls-6"
     x="388.8335"
     y="239.05571"
     width="406.34"
     height="134.72"
     id="rect38" />
  <polygon
     transform="translate(56.023501,5.4657074)"
     class="cls-6"
     points="332.64,368.74 339.58,395.61 305.29,364.06 "
     id="polygon40" />
  <polygon
     transform="translate(56.023501,5.4657074)"
     class="cls-6"
     points="740.35,369.03 766.73,363.97 735.29,395.42 "
     id="polygon42" />
  <path
     d="m 399.6935,189.26571 v 45.57 h -13.81 v -45.6 c 0,-2.8 3.1,-5.07 6.91,-5.07 v 0 c 3.81,0.03 6.9,2.3 6.9,5.1 z"
     id="path44" />
  <path
     d="m 800.7535,189.50571 v 45.6 h -13.81 v -45.6 c 0,-2.8 3.09,-5.07 6.91,-5.07 v 0 c 3.81,0 6.9,2.27 6.9,5.07 z"
     id="path46" />
  <text
     y="750.67212"
     x="66.205704"
     class="cls-7"
     id="text54">Sensor Optico <tspan
   x="220.6857"
   y="916.27216"
   id="tspan48">reflexi</tspan><tspan
   class="cls-8"
   x="710.55566"
   y="916.27216"
   id="tspan50">v</tspan><tspan
   x="789.25568"
   y="916.27216"
   id="tspan52">o</tspan></text>
  <text
     class="cls-9"
     transform="matrix(0.98,0,0,1,675.46,1050.01)"
     id="text58">TCrt<tspan
   class="cls-10"
   x="172.78999"
   y="0"
   id="tspan56">5000</tspan></text>
  <rect
     class="cls-11"
     x="661.01477"
     y="981.76477"
     width="359.78403"
     height="88.800491"
     id="rect60" />
  <path
     class="cls-2"
     d="m 648.8935,620.02571 a 0.73,0.73 0 0 0 1.22,0.36"
     id="path62" />
  <path
     class="cls-12"
     d="m 632.5635,576.89571 15.06,15.06 a 2.47,2.47 0 0 1 -1.11,4.13 l -20.57,5.51 a 2.47,2.47 0 0 1 -3,-3 l 5.51,-20.57 a 2.47,2.47 0 0 1 4.11,-1.13 z"
     id="path64" />
  <line
     class="cls-2"
     x1="639.94348"
     y1="584.56567"
     x2="674.98352"
     y2="549.5257"
     id="line66" />
  <path
     class="cls-2"
     d="m 643.4835,588.10571 35,-35 c 4.55,-4.55 -2.52,-11.62 -7.08,-7.07 l -35,35 c -4.56,4.56 2.51,11.63 7.07,7.07 z"
     id="path68" />
  <path
     class="cls-12"
     d="m 528.8735,573.04571 15.06,-15.06 a 2.47,2.47 0 0 0 -1.1,-4.13 l -20.57,-5.51 a 2.47,2.47 0 0 0 -3,3 l 5.52,20.57 a 2.46,2.46 0 0 0 4.09,1.13 z"
     id="path70" />
  <line
     class="cls-2"
     x1="536.26349"
     y1="565.36572"
     x2="571.29352"
     y2="600.4057"
     id="line72" />
  <path
     class="cls-2"
     d="m 532.7235,568.90571 35,35 c 4.55,4.55 11.63,-2.52 7.07,-7.08 l -35,-35 c -4.55,-4.56 -11.63,2.51 -7.07,7.07 z"
     id="path74" />
</svg>
