<?xml version="1.0" encoding="UTF-8" standalone="no"?>
<svg
   xmlns:dc="http://purl.org/dc/elements/1.1/"
   xmlns:cc="http://creativecommons.org/ns#"
   xmlns:rdf="http://www.w3.org/1999/02/22-rdf-syntax-ns#"
   xmlns:svg="http://www.w3.org/2000/svg"
   xmlns="http://www.w3.org/2000/svg"
   xmlns:sodipodi="http://sodipodi.sourceforge.net/DTD/sodipodi-0.dtd"
   xmlns:inkscape="http://www.inkscape.org/namespaces/inkscape"
   inkscape:version="1.0 (4035a4fb49, 2020-05-01)"
   sodipodi:docname="reflexivo.svg"
   version="1.1"
   viewBox="0 0 1080 1158.73"
   data-name="Camada 1"
   id="Camada_1">
  <metadata
     id="metadata79">
    <rdf:RDF>
      <cc:Work
         rdf:about="">
        <dc:format>image/svg+xml</dc:format>
        <dc:type
           rdf:resource="http://purl.org/dc/dcmitype/StillImage" />
      </cc:Work>
    </rdf:RDF>
  </metadata>
  <sodipodi:namedview
     inkscape:current-layer="Camada_1"
     inkscape:window-maximized="1"
     inkscape:window-y="-9"
     inkscape:window-x="-9"
     inkscape:cy="579.36499"
     inkscape:cx="540"
     inkscape:zoom="0.73183573"
     showgrid="false"
     id="namedview77"
     inkscape:window-height="1001"
     inkscape:window-width="1920"
     inkscape:pageshadow="2"
     inkscape:pageopacity="0"
     guidetolerance="10"
     gridtolerance="10"
     objecttolerance="10"
     borderopacity="1"
     bordercolor="#666666"
     pagecolor="#ffffff" />
  <defs
     id="defs4">
    <style
       id="style2">.cls-1{fill:#212d3b;}.cls-12,.cls-2{fill:#3e348a;}.cls-3{fill:#00000f;}.cls-11,.cls-4{fill:none;}.cls-4{stroke:#000;stroke-width:8px;}.cls-11,.cls-12,.cls-4,.cls-9{stroke-miterlimit:10;}.cls-5{fill:#151e27;}.cls-6{fill:#11171e;}.cls-7{font-size:138px;}.cls-7,.cls-9{fill:#3e618a;font-family:Inlanders-Bold, Inlanders;font-weight:700;}.cls-8{letter-spacing:-0.03em;}.cls-9{font-size:73.6px;}.cls-11,.cls-9{stroke:#3e618a;}.cls-10{font-size:61.33px;font-family:Humanist777BT-BlackCondensedB, Humnst777 BlkCn BT;font-weight:800;}.cls-11{stroke-width:2px;}.cls-12{stroke:#3e348a;}</style>
  </defs>
  <title
     id="title6">Baner reflexivo</title>
  <rect
     style="fill:#151e27;fill-opacity:1"
     id="rect8"
     height="1080"
     width="1080"
     y="39.37"
     class="cls-1" />
  <path
     id="path10"
     d="M627.41,285.12h32.05A68.51,68.51,0,0,1,728,353.62v47.55a84.53,84.53,0,0,1-84.53,84.53h0a84.53,84.53,0,0,1-84.53-84.53V353.62a68.51,68.51,0,0,1,68.51-68.51Z"
     class="cls-2" />
  <path
     id="path12"
     transform="translate(0 39.37)"
     d="M521.66,314.26V361.8a84.54,84.54,0,1,1-169.07,0V314.26a68.51,68.51,0,0,1,68.51-68.51h32A68.51,68.51,0,0,1,521.66,314.26Z"
     class="cls-3" />
  <line
     id="line14"
     x2="423"
     y1="286.55"
     x1="423"
     class="cls-4" />
  <line
     id="line16"
     y2="16.3"
     x2="450.16"
     y1="302.85"
     x1="450.16"
     class="cls-4" />
  <line
     id="line18"
     x2="643.44"
     y1="286.55"
     x1="643.44"
     class="cls-4" />
  <line
     id="line20"
     y2="21.73"
     x2="670.6"
     y1="308.28"
     x1="670.6"
     class="cls-4" />
  <path
     id="path22"
     transform="translate(0 39.37)"
     d="M305.31,189.87V324.55l34.39,31.52H735.13l31.53-31.52V189.87Z" />
  <line
     id="line24"
     y2="364.98"
     x2="336.37"
     y1="364.98"
     x1="738"
     class="cls-5" />
  <line
     id="line26"
     y2="363.92"
     x2="336.83"
     y1="229.24"
     x1="336.83"
     class="cls-5" />
  <line
     id="line28"
     y2="364.98"
     x2="738"
     y1="365.35"
     x1="738"
     class="cls-5" />
  <line
     id="line30"
     y2="230.67"
     x2="738"
     y1="363.92"
     x1="738"
     class="cls-5" />
  <line
     id="line32"
     y2="378.25"
     x2="322.5"
     y1="363.92"
     x1="336.83"
     class="cls-5" />
  <line
     id="line34"
     y2="364.98"
     x2="739.06"
     y1="378.25"
     x1="752.33"
     class="cls-5" />
  <path
     id="path36"
     transform="translate(0 39.37)"
     d="M548.88,356.07v88.26l-6.31,6.3h-5l-5.85-5.84V356.07Z" />
  <rect
     id="rect38"
     height="134.72"
     width="406.34"
     y="233.59"
     x="332.81"
     class="cls-6" />
  <polygon
     id="polygon40"
     points="332.64 368.74 339.58 395.61 305.29 364.06 332.64 368.74"
     class="cls-6" />
  <polygon
     id="polygon42"
     points="740.35 369.03 766.73 363.97 735.29 395.42 740.35 369.03"
     class="cls-6" />
  <path
     id="path44"
     transform="translate(0 39.37)"
     d="M343.67,144.43V190H329.86v-45.6c0-2.8,3.1-5.07,6.91-5.07h0C340.58,139.36,343.67,141.63,343.67,144.43Z" />
  <path
     id="path46"
     transform="translate(0 39.37)"
     d="M744.73,144.67v45.6H730.92v-45.6c0-2.8,3.09-5.07,6.91-5.07h0C741.64,139.6,744.73,141.87,744.73,144.67Z" />
  <text
     transform="translate(60.74 743.84)"
     id="text54"
     class="cls-7">Sensor Optico <tspan
   id="tspan48"
   y="165.6"
   x="154.48">reflexi</tspan><tspan
   id="tspan50"
   y="165.6"
   x="644.35"
   class="cls-8">v</tspan><tspan
   id="tspan52"
   y="165.6"
   x="723.05">o</tspan></text>
  <text
     id="text58"
     transform="translate(675.46 1050.01) scale(0.98 1)"
     class="cls-9">TCrt<tspan
   id="tspan56"
   y="0"
   x="172.79"
   class="cls-10">5000</tspan></text>
  <rect
     id="rect60"
     height="88.91"
     width="323"
     y="981.71"
     x="660.96"
     class="cls-11" />
  <path
     transform="translate(0 39.37)"
     id="path62"
     d="M592.87,575.19a.73.73,0,0,0,1.22.36"
     class="cls-2" />
  <path
     id="path64"
     transform="translate(0 39.37)"
     d="M576.54,532.06l15.06,15.06a2.47,2.47,0,0,1-1.11,4.13l-20.57,5.51a2.47,2.47,0,0,1-3-3l5.51-20.57A2.47,2.47,0,0,1,576.54,532.06Z"
     class="cls-12" />
  <line
     id="line66"
     y2="544.06"
     x2="618.96"
     y1="579.1"
     x1="583.92"
     class="cls-2" />
  <path
     id="path68"
     transform="translate(0 39.37)"
     d="M587.46,543.27l35-35c4.55-4.55-2.52-11.62-7.08-7.07l-35,35c-4.56,4.56,2.51,11.63,7.07,7.07Z"
     class="cls-2" />
  <path
     id="path70"
     transform="translate(0 39.37)"
     d="M472.85,528.21l15.06-15.06a2.47,2.47,0,0,0-1.1-4.13l-20.57-5.51a2.47,2.47,0,0,0-3,3l5.52,20.57A2.46,2.46,0,0,0,472.85,528.21Z"
     class="cls-12" />
  <line
     id="line72"
     y2="594.94"
     x2="515.27"
     y1="559.9"
     x1="480.24"
     class="cls-2" />
  <path
     id="path74"
     transform="translate(0 39.37)"
     d="M476.7,524.07l35,35c4.55,4.55,11.63-2.52,7.07-7.08l-35-35c-4.55-4.56-11.63,2.51-7.07,7.07Z"
     class="cls-2" />
</svg>
