<?xml version="1.0" encoding="UTF-8" standalone="no"?>
<svg
   xmlns:dc="http://purl.org/dc/elements/1.1/"
   xmlns:cc="http://creativecommons.org/ns#"
   xmlns:rdf="http://www.w3.org/1999/02/22-rdf-syntax-ns#"
   xmlns:svg="http://www.w3.org/2000/svg"
   xmlns="http://www.w3.org/2000/svg"
   xmlns:sodipodi="http://sodipodi.sourceforge.net/DTD/sodipodi-0.dtd"
   xmlns:inkscape="http://www.inkscape.org/namespaces/inkscape"
   sodipodi:docname="robot.svg"
   inkscape:version="1.0 (4035a4fb49, 2020-05-01)"
   id="svg1908"
   version="1.1"
   viewBox="0 0 150 100"
   height="100mm"
   width="150mm">
  <defs
     id="defs1902" />
  <sodipodi:namedview
     inkscape:window-maximized="1"
     inkscape:window-y="-9"
     inkscape:window-x="-9"
     inkscape:window-height="1001"
     inkscape:window-width="1920"
     showgrid="false"
     inkscape:document-rotation="0"
     inkscape:current-layer="layer1"
     inkscape:document-units="mm"
     inkscape:cy="236.75119"
     inkscape:cx="400"
     inkscape:zoom="0.98994949"
     inkscape:pageshadow="2"
     inkscape:pageopacity="0.0"
     borderopacity="1.0"
     bordercolor="#666666"
     pagecolor="#ffffff"
     id="base" />
  <metadata
     id="metadata1905">
    <rdf:RDF>
      <cc:Work
         rdf:about="">
        <dc:format>image/svg+xml</dc:format>
        <dc:type
           rdf:resource="http://purl.org/dc/dcmitype/StillImage" />
        <dc:title></dc:title>
      </cc:Work>
    </rdf:RDF>
  </metadata>
  <g
     id="layer1"
     inkscape:groupmode="layer"
     inkscape:label="Layer 1">
    <path
       d="M 101.44174,52.35324 C 101.00643,41.804533 91.717816,33.373175 80.32363,33.373175 c -11.393811,0 -20.682409,8.431358 -21.119066,18.980065 h 42.237176"
       style="fill:#dae3ec;fill-opacity:1;fill-rule:nonzero;stroke:none;stroke-width:0.323419"
       id="path1272" />
    <path
       d="m 101.43767,52.2529 v 0 c -9.8e-4,-0.003 -9.8e-4,-0.009 -9.8e-4,-0.0179 0,0.006 0,0.009 9.8e-4,0.0179 m -0.003,-0.0357 c 0,-0.009 -9.9e-4,-0.0268 -9.9e-4,-0.0357 0,0.009 9.9e-4,0.0268 9.9e-4,0.0357 m -0.003,-0.0536 c -9.8e-4,-0.009 -9.8e-4,-0.0268 -0.003,-0.0446 9.9e-4,0.0178 9.9e-4,0.0268 0.003,0.0446 m -0.003,-0.0536 c -9.8e-4,-0.0178 -0.003,-0.0446 -0.004,-0.0625 9.8e-4,0.0179 0.003,0.0357 0.004,0.0625 m -0.004,-0.0714 c -9.9e-4,-0.0178 -0.003,-0.0268 -0.004,-0.0446 9.8e-4,0.0178 0.003,0.0357 0.004,0.0446 m -0.004,-0.0625 c -9.9e-4,-0.0178 -0.003,-0.0268 -0.003,-0.0446 0,0.009 9.8e-4,0.0268 0.003,0.0446 m -0.004,-0.0625 c -9.8e-4,-0.0178 -9.8e-4,-0.0268 -0.003,-0.0446 9.6e-4,0.009 9.6e-4,0.0268 0.003,0.0446 m -0.004,-0.0625 c -9.8e-4,-0.0178 -0.003,-0.0357 -0.004,-0.0536 9.8e-4,0.0179 0.003,0.0357 0.004,0.0536 m -0.004,-0.0536 c -9.8e-4,-0.0179 -0.003,-0.0357 -0.004,-0.0536 9.9e-4,0.0179 0.003,0.0357 0.004,0.0536 m -0.006,-0.0714 c -9.8e-4,-0.009 -0.003,-0.0268 -0.004,-0.0446 9.8e-4,0.009 0.003,0.0268 0.004,0.0446 m -0.004,-0.0625 c 0,-0.009 -9.8e-4,-0.0268 -0.003,-0.0446 9.8e-4,0.009 0.003,0.0268 0.003,0.0446 m -0.004,-0.0625 c -9.8e-4,-0.0179 -0.003,-0.0357 -0.004,-0.0446 9.9e-4,0.0179 0.003,0.0357 0.004,0.0446 m -0.006,-0.0536 c -9.8e-4,-0.0178 -0.003,-0.0357 -0.004,-0.0536 9.8e-4,0.0179 0.003,0.0357 0.004,0.0536 m -0.004,-0.0625 c -9.8e-4,-0.0178 -0.003,-0.0357 -0.004,-0.0446 9.9e-4,0.0178 0.003,0.0357 0.004,0.0446 m -0.007,-0.0625 c -9.8e-4,-0.009 -9.8e-4,-0.0268 -0.003,-0.0357 9.8e-4,0.0179 9.8e-4,0.0268 0.003,0.0357 m -0.004,-0.0625 c -9.8e-4,-0.009 -0.003,-0.0268 -0.004,-0.0357 9.8e-4,0.009 0.003,0.0268 0.004,0.0357 m -0.006,-0.0536 c -9.8e-4,-0.0179 -0.003,-0.0268 -0.006,-0.0446 0.003,0.0179 0.004,0.0357 0.006,0.0446 m -0.006,-0.0536 c -0.003,-0.0178 -0.004,-0.0357 -0.006,-0.0536 0.003,0.0179 0.004,0.0357 0.006,0.0536 m -0.007,-0.0714 c -9.8e-4,-0.009 -0.003,-0.0268 -0.004,-0.0357 9.8e-4,0.009 0.003,0.0268 0.004,0.0357 m -0.007,-0.0625 c -9.9e-4,-0.009 -0.003,-0.0179 -0.004,-0.0357 9.8e-4,0.009 0.003,0.0178 0.004,0.0357 m -0.006,-0.0536 c -9.8e-4,-0.009 -0.003,-0.0268 -0.004,-0.0357 9.8e-4,0.009 0.003,0.0179 0.004,0.0357 m -0.007,-0.0536 c -9.8e-4,-0.0179 -0.004,-0.0357 -0.004,-0.0536 9.8e-4,0.0178 0.004,0.0357 0.004,0.0536 m -0.007,-0.0714 c -9.8e-4,-0.0178 -0.003,-0.0268 -0.004,-0.0446 9.8e-4,0.0179 0.003,0.0268 0.004,0.0446 m -0.007,-0.0625 c -9.8e-4,-0.009 -0.003,-0.0179 -0.004,-0.0357 9.8e-4,0.0179 0.003,0.0179 0.004,0.0357 m -0.006,-0.0536 c -9.8e-4,-0.009 -0.003,-0.0179 -0.004,-0.0357 9.8e-4,0.0178 0.003,0.0178 0.004,0.0357 m -0.007,-0.0536 c -0.003,-0.009 -0.004,-0.0268 -0.004,-0.0357 9.9e-4,0.009 0.003,0.0179 0.004,0.0357 m -0.009,-0.0625 c -9.8e-4,-0.0178 -0.004,-0.0268 -0.006,-0.0446 9.8e-4,0.0178 0.004,0.0268 0.006,0.0446 m -0.009,-0.0714 c -9.9e-4,-0.009 -0.003,-0.0179 -0.004,-0.0268 9.8e-4,0.009 0.003,0.0179 0.004,0.0268 m -0.009,-0.0536 c -9.9e-4,-0.008 -0.003,-0.0178 -0.003,-0.0178 0,0.006 9.8e-4,0.0178 0.003,0.0178 m -0.007,-0.0536 c -9.8e-4,-0.008 -9.8e-4,-0.0179 -0.003,-0.0179 9.8e-4,0.006 9.8e-4,0.009 0.003,0.0179 m -0.0191,-0.14824 c 0,-0.003 0,-0.003 0,-0.006 0,0.003 0,0.003 0,0.006 m -0.006,-0.0446 c 0,-0.003 -9.8e-4,-0.009 -9.8e-4,-0.009 0,0.003 9.8e-4,0.009 9.8e-4,0.009 m -0.009,-0.0536 c -9.8e-4,-0.003 -9.8e-4,-0.006 -0.003,-0.009 9.5e-4,0.006 9.5e-4,0.009 0.003,0.009 m -0.007,-0.0536 c 0,0 -9.8e-4,0 -9.8e-4,-0.003 0,0.003 9.8e-4,0.003 9.8e-4,0.003 m -0.0379,-0.19372 v -0.003 0.003"
       style="fill:#5aa8d9;fill-opacity:1;fill-rule:nonzero;stroke:none;stroke-width:0.323419"
       id="path1274" />
    <path
       d="M 101.43767,52.2529 H 73.54339 v -5.039885 c 3.391632,-1.360242 6.57017,-3.216674 9.382606,-5.577309 2.182486,-2.041842 3.111935,-4.755093 3.315754,-7.474967 7.752846,2.112734 13.665546,8.259056 14.95407,15.847761 v 0.003 c 0.0102,0.0625 0.0191,0.1286 0.0285,0.19015 0,0.003 9.8e-4,0.003 9.8e-4,0.003 9.8e-4,0.0179 0.004,0.0268 0.006,0.0446 9.8e-4,0.006 9.8e-4,0.009 0.003,0.009 9.8e-4,0.0179 0.004,0.0268 0.007,0.0446 0,0.003 9.8e-4,0.009 9.8e-4,0.009 0.003,0.009 0.004,0.0268 0.006,0.0446 0,0.003 0,0.003 0,0.006 0.007,0.0446 0.0102,0.0893 0.0189,0.12859 9.9e-4,0.006 9.9e-4,0.009 0.003,0.0179 9.8e-4,0.009 0.003,0.0178 0.004,0.0357 0,0.006 9.8e-4,0.0178 0.003,0.0178 9.9e-4,0.009 0.003,0.0178 0.004,0.0268 9.8e-4,0.009 0.003,0.0179 0.004,0.0268 9.8e-4,0.009 0.003,0.0179 0.004,0.0268 9.8e-4,0.0178 0.004,0.0268 0.006,0.0446 9.8e-4,0.009 0.003,0.0179 0.004,0.0268 9.8e-4,0.009 0.003,0.0179 0.004,0.0357 0,0.006 9.8e-4,0.0179 0.003,0.0179 9.9e-4,0.0178 0.003,0.0178 0.004,0.0357 9.8e-4,0.009 0.003,0.0178 0.003,0.0268 9.8e-4,0.0178 0.003,0.0178 0.004,0.0357 9.8e-4,0.009 0.003,0.0178 0.004,0.0268 9.9e-4,0.0179 0.003,0.0268 0.004,0.0446 9.9e-4,0.003 9.9e-4,0.008 0.003,0.0178 9.8e-4,0.0178 0.004,0.0357 0.004,0.0536 9.8e-4,0.006 9.8e-4,0.009 0.003,0.0179 9.9e-4,0.009 0.003,0.0178 0.004,0.0357 9.8e-4,0.009 0.003,0.0178 0.003,0.0178 9.8e-4,0.009 0.003,0.0179 0.004,0.0357 9.8e-4,0.006 9.8e-4,0.0178 0.003,0.0178 9.8e-4,0.009 0.003,0.0268 0.004,0.0357 0,0.006 9.8e-4,0.009 9.8e-4,0.0179 0.003,0.0178 0.004,0.0357 0.006,0.0536 0,0.003 0,0.006 0,0.009 0.003,0.0178 0.004,0.0357 0.006,0.0446 9.8e-4,0.006 9.8e-4,0.0178 9.8e-4,0.0178 9.8e-4,0.009 0.003,0.0268 0.004,0.0357 9.8e-4,0.008 9.8e-4,0.0178 0.003,0.0178 9.9e-4,0.0179 9.9e-4,0.0268 0.003,0.0357 9.8e-4,0.006 9.8e-4,0.009 0.003,0.0179 9.8e-4,0.0178 0.003,0.0357 0.004,0.0446 0,0.003 0,0.006 9.8e-4,0.009 9.8e-4,0.0178 0.003,0.0357 0.004,0.0536 0,0.003 9.8e-4,0.006 9.8e-4,0.009 9.8e-4,0.0179 0.003,0.0357 0.004,0.0446 0,0.006 9.8e-4,0.009 9.8e-4,0.0178 9.8e-4,0.009 0.003,0.0268 0.003,0.0446 9.9e-4,0.006 9.9e-4,0.0178 9.9e-4,0.0178 9.4e-4,0.009 0.003,0.0268 0.004,0.0446 0,0.006 0,0.009 9.9e-4,0.0179 9.8e-4,0.0179 0.003,0.0357 0.004,0.0536 0,0.003 0,0.003 0,0.003 9.8e-4,0.0178 0.003,0.0357 0.004,0.0536 0,0.006 9.9e-4,0.009 9.9e-4,0.0179 9.8e-4,0.009 9.8e-4,0.0268 0.003,0.0446 0,0.006 0,0.009 9.8e-4,0.0179 0,0.009 9.9e-4,0.0268 0.003,0.0446 0,0.006 0,0.009 0,0.0179 9.8e-4,0.0178 0.003,0.0357 0.004,0.0446 0,0.003 0,0.008 0,0.009 9.8e-4,0.0179 0.003,0.0357 0.004,0.0625 0,0.003 0,0.008 0,0.0179 9.4e-4,0.0178 9.4e-4,0.0268 0.003,0.0446 0,0.006 0,0.009 9.8e-4,0.0179 0,0.009 9.9e-4,0.0268 9.9e-4,0.0357 0,0.009 9.8e-4,0.0178 9.8e-4,0.0178 0,0.006 0,0.009 9.8e-4,0.0179"
       style="fill:#b6c5d6;fill-opacity:1;fill-rule:nonzero;stroke:none;stroke-width:0.323419"
       id="path1276" />
    <path
       d="m 148.00588,50.43594 -0.61931,-0.36245 c -0.20202,-0.31245 -0.17924,-0.71954 -0.0102,-1.052614 -0.31868,-0.647232 -0.58993,-1.063864 -0.73882,-1.066358 -0.6288,-0.01792 -2.771,0.565086 -5.54161,1.313012 -1.09144,0.29282 -2.24671,3.37638 -2.38528,3.66964 -0.13564,0.29103 1.25201,6.16821 3.26627,5.58078 0.98398,-0.28478 2.5943,-0.75703 4.07648,-1.21615 l -0.18872,-0.20622 c -0.24186,-0.38119 -0.0948,-0.86595 0.30348,-1.08832 l 0.22761,-0.0937 0.65916,0.0803 0.3879,0.47225 0.0102,0.37227 c 0.94083,-0.31603 1.69131,-0.59724 1.95526,-0.76953 0.46946,-0.30978 -0.47042,-3.35826 -1.40357,-5.63703"
       style="fill:#2d2b38;fill-opacity:1;fill-rule:nonzero;stroke:none;stroke-width:0.323419"
       id="path1278" />
    <path
       d="m 144.44695,55.55018 c 0,-1.04038 -0.91142,-1.89043 -2.03084,-1.89043 -1.11885,0 -2.0299,0.84987 -2.0299,1.89043 0,1.04798 0.91142,1.89803 2.0299,1.89803 1.1198,0 2.03084,-0.84988 2.03084,-1.89803"
       style="fill:#1c1b1c;fill-opacity:1;fill-rule:nonzero;stroke:none;stroke-width:0.323419"
       id="path1280" />
    <path
       d="m 101.4665,53.75634 5.8799,-26.367192 2.03227,1.944267 -5.55572,24.870005 c -0.13188,0.6133 -0.76824,1.00387 -1.42065,0.88112 -0.65155,-0.12408 -1.06934,-0.71954 -0.93609,-1.32865"
       style="fill:#2d2b38;fill-opacity:1;fill-rule:nonzero;stroke:none;stroke-width:0.323419"
       id="path1282" />
    <path
       d="M 114.43411,31.152889 108.96839,55.7065 c -0.13565,0.60705 -0.77297,1.00136 -1.42197,0.87308 -0.6506,-0.12236 -1.07028,-0.70971 -0.93609,-1.31989 l 5.94022,-26.623853 0.12998,-0.11784 1.75382,2.635157"
       style="fill:#2d2b38;fill-opacity:1;fill-rule:nonzero;stroke:none;stroke-width:0.323419"
       id="path1284" />
    <path
       d="m 134.40559,42.598254 -25.02692,-10.341425 2.33699,-1.378728 23.60467,9.766237 c 0.57665,0.238362 0.84599,0.865953 0.58992,1.406848 -0.25228,0.540989 -0.92471,0.787393 -1.50428,0.547239"
       style="fill:#2d2b38;fill-opacity:1;fill-rule:nonzero;stroke:none;stroke-width:0.323419"
       id="path1286" />
    <path
       d="m 114.52411,26.857981 23.31096,9.619296 c 0.57663,0.241042 0.8403,0.868617 0.58991,1.409341 -0.25608,0.538324 -0.9266,0.785601 -1.50428,0.547239 l -25.27255,-10.444878 -0.0948,-0.13483 2.96675,-0.996371"
       style="fill:#2d2b38;fill-opacity:1;fill-rule:nonzero;stroke:none;stroke-width:0.323419"
       id="path1288" />
    <path
       d="m 145.73548,51.97713 -2.13432,1.21366 -4.99361,-7.709478 2.13565,-1.203932 4.99228,7.69975"
       style="fill:#1a1817;fill-opacity:1;fill-rule:nonzero;stroke:none;stroke-width:0.323419"
       id="path1290" />
    <path
       d="m 142.41611,44.677849 -4.19798,2.378855 -3.23108,-4.983649 4.20472,-2.372855 3.22434,4.977649"
       style="fill:#2d2b38;fill-opacity:1;fill-rule:nonzero;stroke:none;stroke-width:0.323419"
       id="path1292" />
    <path
       d="m 143.56199,44.43369 -6.106,3.460832 -0.83557,-1.288383 6.10876,-3.457341 0.83271,1.284892"
       style="fill:#dae3ec;fill-opacity:1;fill-rule:nonzero;stroke:none;stroke-width:0.323419"
       id="path1294" />
    <path
       d="m 145.43103,45.459443 -7.87574,4.448707 -1.17737,-1.816963 7.87934,-4.45496 1.17377,1.823216"
       style="fill:#ffffff;fill-opacity:1;fill-rule:nonzero;stroke:none;stroke-width:0.323419"
       id="path1296" />
    <path
       d="m 140.21254,43.636227 c 1.8519,-1.813582 1.78399,-4.679758 -0.15553,-6.405227 -1.93458,-1.729379 -5.00166,-1.666889 -6.85392,0.143716 -1.84648,1.809826 -1.77989,4.676002 0.15648,6.398883 1.93564,1.731701 5.00301,1.669477 6.8526,-0.13748"
       style="fill:#dae3ec;fill-opacity:1;fill-rule:nonzero;stroke:none;stroke-width:0.323419"
       id="path1298" />
    <path
       d="m 134.14932,43.008464 c -1.47924,-1.320259 -1.53045,-3.51707 -0.11573,-4.895798 1.4102,-1.382486 3.76132,-1.432474 5.23545,-0.109741 1.48086,1.318998 1.53444,3.514936 0.12053,4.892403 -1.41297,1.385865 -3.76398,1.432472 -5.23981,0.113322"
       style="fill:#1a1817;fill-opacity:1;fill-rule:nonzero;stroke:none;stroke-width:0.323419"
       id="path1300" />
    <path
       d="m 134.9349,42.239013 c -1.02316,-0.915925 -1.05862,-2.435001 -0.0759,-3.392264 0.9763,-0.956374 2.60873,-0.990479 3.63083,-0.08027 1.02713,0.915675 1.05965,2.436248 0.0759,3.394773 -0.98029,0.953881 -2.6074,0.987986 -3.63083,0.07139"
       style="fill:#2d2b38;fill-opacity:1;fill-rule:nonzero;stroke:none;stroke-width:0.323419"
       id="path1302" />
    <path
       d="m 116.40881,31.862595 c 1.20884,-2.713609 -0.16881,-5.820204 -3.06604,-6.950128 -2.90558,-1.124483 -6.23565,0.159785 -7.43672,2.869934 -1.20488,2.713701 0.16976,5.821544 3.07808,6.949769 2.89618,1.122348 6.22351,-0.162466 7.42468,-2.869575"
       style="fill:#dae3ec;fill-opacity:1;fill-rule:nonzero;stroke:none;stroke-width:0.323419"
       id="path1304" />
    <path
       d="m 109.49372,33.579488 c -2.21931,-0.859701 -3.27252,-3.248455 -2.35379,-5.31466 0.92092,-2.073719 3.47131,-3.054379 5.69059,-2.194676 2.21257,0.856116 3.26579,3.238899 2.34468,5.314755 -0.91806,2.062729 -3.4676,3.050621 -5.68148,2.194581"
       style="fill:#1a1817;fill-opacity:1;fill-rule:nonzero;stroke:none;stroke-width:0.323419"
       id="path1306" />
    <path
       d="m 109.96954,32.513489 c -1.58927,-0.619549 -2.34478,-2.326623 -1.686,-3.807837 0.6544,-1.482556 2.48324,-2.185932 4.07117,-1.569142 1.58394,0.61509 2.33538,2.319125 1.67793,3.801586 -0.65534,1.481293 -2.48296,2.187179 -4.0631,1.575393"
       style="fill:#2d2b38;fill-opacity:1;fill-rule:nonzero;stroke:none;stroke-width:0.323419"
       id="path1308" />
    <path
       d="M 109.22066,56.75073 V 80.02944 H 29.964304 V 56.75073 h 79.256356"
       style="fill:#f4f5f8;fill-opacity:1;fill-rule:nonzero;stroke:none;stroke-width:0.323419"
       id="path1310" />
    <path
       d="m 49.13977,78.11329 c 0,-6.25007 -5.423903,-11.31691 -12.111473,-11.31691 -6.688994,0 -12.114134,5.06684 -12.114134,11.31691 0,6.2489 5.42514,11.31466 12.114134,11.31466 6.68757,0 12.111473,-5.06576 12.111473,-11.31466"
       style="fill:#1c1b1c;fill-opacity:1;fill-rule:nonzero;stroke:none;stroke-width:0.323419"
       id="path1312" />
    <path
       d="m 44.837372,78.11329 c 0,-4.02977 -3.496049,-7.29429 -7.809075,-7.29429 -4.31179,0 -7.807752,3.26452 -7.807752,7.29429 0,4.03011 3.495962,7.29677 7.807752,7.29677 4.313026,0 7.809075,-3.26666 7.809075,-7.29677"
       style="fill:#2d2b38;fill-opacity:1;fill-rule:nonzero;stroke:none;stroke-width:0.323419"
       id="path1314" />
    <path
       d="m 40.530991,78.11329 c 0,-1.80733 -1.567163,-3.27631 -3.502694,-3.27631 -1.934193,0 -3.504118,1.46898 -3.504118,3.27631 0,1.80732 1.569925,3.27291 3.504118,3.27291 1.935531,0 3.502694,-1.46559 3.502694,-3.27291"
       style="fill:#9f9f9e;fill-opacity:1;fill-rule:nonzero;stroke:none;stroke-width:0.323419"
       id="path1316" />
    <path
       d="m 40.530991,78.11329 c 0,-1.80733 -1.567163,-3.27631 -3.502694,-3.27631 -1.934193,0 -3.504118,1.46898 -3.504118,3.27631 0,1.80732 1.569925,3.27291 3.504118,3.27291 1.935531,0 3.502694,-1.46559 3.502694,-3.27291"
       style="fill:#9f9f9e;fill-opacity:1;fill-rule:nonzero;stroke:none;stroke-width:0.323419"
       id="path1318" />
    <path
       d="m 38.219037,72.87299 c 0,-0.61866 -0.535856,-1.11233 -1.19074,-1.11233 -0.657254,0 -1.189402,0.49367 -1.189402,1.11233 0,0.60973 0.532061,1.1102 1.189402,1.1102 0.654404,0 1.19074,-0.50082 1.19074,-1.1102"
       style="fill:#9f9f9e;fill-opacity:1;fill-rule:nonzero;stroke:none;stroke-width:0.323419"
       id="path1320" />
    <path
       d="m 38.219037,83.35233 c 0,-0.61597 -0.535856,-1.11483 -1.19074,-1.11483 -0.657254,0 -1.189402,0.49903 -1.189402,1.11483 0,0.61062 0.532061,1.11019 1.189402,1.11019 0.654404,0 1.19074,-0.49993 1.19074,-1.11019"
       style="fill:#9f9f9e;fill-opacity:1;fill-rule:nonzero;stroke:none;stroke-width:0.323419"
       id="path1322" />
    <path
       d="m 42.635156,79.21972 c 0.659145,0 1.190827,-0.49723 1.190827,-1.11019 0,-0.61152 -0.53206,-1.11608 -1.190827,-1.11608 -0.657254,0 -1.189415,0.50439 -1.189415,1.11608 0,0.6133 0.53206,1.11019 1.189415,1.11019"
       style="fill:#9f9f9e;fill-opacity:1;fill-rule:nonzero;stroke:none;stroke-width:0.323419"
       id="path1324" />
    <path
       d="m 31.419082,79.21972 c 0.658199,0 1.191772,-0.49723 1.191772,-1.11019 0,-0.61152 -0.533006,-1.11608 -1.191772,-1.11608 -0.657254,0 -1.190841,0.50439 -1.190841,1.11608 0,0.6133 0.53302,1.11019 1.190841,1.11019"
       style="fill:#9f9f9e;fill-opacity:1;fill-rule:nonzero;stroke:none;stroke-width:0.323419"
       id="path1326" />
    <path
       d="m 40.151907,82.59888 c 0.465676,0.43833 1.218247,0.43833 1.683254,0 0.462827,-0.4312 0.462827,-1.13699 0,-1.56933 -0.464731,-0.43298 -1.217869,-0.43298 -1.683254,0 -0.463773,0.43207 -0.463773,1.13823 0,1.56933"
       style="fill:#9f9f9e;fill-opacity:1;fill-rule:nonzero;stroke:none;stroke-width:0.323419"
       id="path1328" />
    <path
       d="m 32.221346,75.18988 c 0.462827,0.43833 1.219192,0.43833 1.683255,0 0.463771,-0.4312 0.463771,-1.13447 0,-1.5694 -0.467582,-0.43477 -1.22053,-0.43477 -1.683255,0 -0.465677,0.43476 -0.466622,1.1383 0,1.5694"
       style="fill:#9f9f9e;fill-opacity:1;fill-rule:nonzero;stroke:none;stroke-width:0.323419"
       id="path1330" />
    <path
       d="m 32.221346,81.02955 c -0.465677,0.43207 -0.465677,1.13823 0,1.56933 0.462827,0.43833 1.219192,0.43833 1.683255,0 0.463771,-0.4312 0.463771,-1.13699 0,-1.56933 -0.463787,-0.43298 -1.22053,-0.43298 -1.683255,0"
       style="fill:#9f9f9e;fill-opacity:1;fill-rule:nonzero;stroke:none;stroke-width:0.323419"
       id="path1332" />
    <path
       d="m 40.151907,73.62048 c -0.463773,0.43476 -0.463773,1.1383 0,1.5694 0.465676,0.43833 1.218247,0.43833 1.683254,0 0.462827,-0.4312 0.462827,-1.13447 0,-1.5694 -0.464731,-0.43477 -1.217869,-0.43477 -1.683254,0"
       style="fill:#9f9f9e;fill-opacity:1;fill-rule:nonzero;stroke:none;stroke-width:0.323419"
       id="path1334" />
    <path
       d="m 41.107438,67.30944 c 0,1.06859 -0.929449,1.93176 -2.073054,1.93176 h -4.012276 c -1.146251,0 -2.071338,-0.86327 -2.071338,-1.93176 0,-1.07359 0.924709,-1.94177 2.071338,-1.94177 h 4.012276 c 1.143605,0 2.073054,0.86861 2.073054,1.94177"
       style="fill:#1c1b1c;fill-opacity:1;fill-rule:nonzero;stroke:none;stroke-width:0.323419"
       id="path1336" />
    <path
       d="m 31.735184,67.77839 c 0.8052,0.75256 0.8052,1.97836 0,2.73173 l -2.838897,2.65363 c -0.8109,0.75702 -2.119519,0.75702 -2.931277,0 -0.808049,-0.75346 -0.808049,-1.98204 0,-2.73549 l 2.838622,-2.64987 c 0.80805,-0.75704 2.118573,-0.75704 2.931552,0"
       style="fill:#1c1b1c;fill-opacity:1;fill-rule:nonzero;stroke:none;stroke-width:0.323419"
       id="path1338" />
    <path
       d="m 25.463205,74.30205 c 1.144927,0 2.071352,0.86328 2.071352,1.93795 v 3.74532 c 0,1.06985 -0.926613,1.93955 -2.071352,1.93955 -1.144928,0 -2.074085,-0.86953 -2.074085,-1.93955 V 76.24 c 0,-1.07477 0.929448,-1.93795 2.074085,-1.93795"
       style="fill:#1c1b1c;fill-opacity:1;fill-rule:nonzero;stroke:none;stroke-width:0.323419"
       id="path1340" />
    <path
       d="m 25.96501,83.05908 c 0.811845,-0.75346 2.119912,-0.75346 2.931277,0 l 2.834913,2.65147 c 0.808996,0.75971 0.808996,1.98203 0,2.7355 -0.808995,0.75613 -2.119897,0.75613 -2.927568,0 L 25.96501,85.79716 c -0.808049,-0.75972 -0.808994,-1.97837 0,-2.73808"
       style="fill:#1c1b1c;fill-opacity:1;fill-rule:nonzero;stroke:none;stroke-width:0.323419"
       id="path1342" />
    <path
       d="m 32.95077,88.92088 c 0,-1.07199 0.924709,-1.93792 2.071338,-1.93792 h 4.012276 c 1.143605,0 2.073054,0.86593 2.073054,1.93792 0,1.06861 -0.929449,1.93205 -2.073054,1.93205 h -4.012276 c -1.146251,0 -2.071338,-0.86327 -2.071338,-1.93205"
       style="fill:#1c1b1c;fill-opacity:1;fill-rule:nonzero;stroke:none;stroke-width:0.323419"
       id="path1344" />
    <path
       d="m 42.322646,88.44605 c -0.80994,-0.75347 -0.80994,-1.97586 0,-2.7355 l 2.834914,-2.65147 c 0.811844,-0.75346 2.122557,-0.75346 2.932977,0 0.80616,0.75971 0.80616,1.97863 0,2.73808 l -2.837559,2.64889 c -0.809956,0.75613 -2.123605,0.75613 -2.930332,0"
       style="fill:#1c1b1c;fill-opacity:1;fill-rule:nonzero;stroke:none;stroke-width:0.323419"
       id="path1346" />
    <path
       d="m 48.593767,81.92487 c -1.143604,0 -2.07314,-0.86953 -2.07314,-1.93955 V 76.24 c 0,-1.07477 0.929449,-1.93795 2.07314,-1.93795 1.14455,0 2.072675,0.86328 2.072675,1.93795 v 3.74532 c 0,1.06985 -0.928503,1.93955 -2.072675,1.93955"
       style="fill:#1c1b1c;fill-opacity:1;fill-rule:nonzero;stroke:none;stroke-width:0.323419"
       id="path1348" />
    <path
       d="m 48.090537,73.16375 c -0.8109,0.75702 -2.119897,0.75702 -2.932977,0 l -2.834914,-2.65363 c -0.808995,-0.75346 -0.808995,-1.97953 0,-2.73173 0.807105,-0.75704 2.119897,-0.75704 2.930332,0 l 2.837559,2.64987 c 0.80616,0.75345 0.80616,1.98203 0,2.73549"
       style="fill:#1c1b1c;fill-opacity:1;fill-rule:nonzero;stroke:none;stroke-width:0.323419"
       id="path1350" />
    <path
       d="m 37.028297,68.0654 c -5.930827,0 -10.752389,4.5012 -10.752389,10.04789 0,5.53704 4.821562,10.04449 10.752389,10.04449 5.928457,0 10.75239,-4.50745 10.75239,-10.04449 0,-5.54669 -4.823933,-10.04789 -10.75239,-10.04789 z m 0,20.66766 c -6.268082,0 -11.366682,-4.76385 -11.366682,-10.61977 0,-5.85931 5.0986,-10.62316 11.366682,-10.62316 6.268374,0 11.366682,4.76385 11.366682,10.62316 0,5.85592 -5.098308,10.61977 -11.366682,10.61977"
       style="fill:#1a1817;fill-opacity:1;fill-rule:nonzero;stroke:none;stroke-width:0.323419"
       id="path1352" />
    <path
       d="m 78.415505,78.11329 c 0,-6.25007 -5.422479,-11.31691 -12.110151,-11.31691 -6.690215,0 -12.110049,5.06684 -12.110049,11.31691 0,6.2489 5.419834,11.31466 12.110049,11.31466 6.687672,0 12.110151,-5.06576 12.110151,-11.31466"
       style="fill:#1c1b1c;fill-opacity:1;fill-rule:nonzero;stroke:none;stroke-width:0.323419"
       id="path1354" />
    <path
       d="m 74.114531,78.11329 c 0,-4.02977 -3.497387,-7.29429 -7.809177,-7.29429 -4.313011,0 -7.809075,3.26452 -7.809075,7.29429 0,4.03011 3.496064,7.29677 7.809075,7.29677 4.31179,0 7.809177,-3.26666 7.809177,-7.29677"
       style="fill:#2d2b38;fill-opacity:1;fill-rule:nonzero;stroke:none;stroke-width:0.323419"
       id="path1356" />
    <path
       d="m 69.809473,78.11329 c 0,-1.80733 -1.569809,-3.27631 -3.504119,-3.27631 -1.935517,0 -3.505339,1.46898 -3.505339,3.27631 0,1.80732 1.569822,3.27291 3.505339,3.27291 1.93431,0 3.504119,-1.46559 3.504119,-3.27291"
       style="fill:#9f9f9e;fill-opacity:1;fill-rule:nonzero;stroke:none;stroke-width:0.323419"
       id="path1358" />
    <path
       d="m 69.809473,78.11329 c 0,-1.80733 -1.569809,-3.27631 -3.504119,-3.27631 -1.935517,0 -3.505339,1.46898 -3.505339,3.27631 0,1.80732 1.569822,3.27291 3.505339,3.27291 1.93431,0 3.504119,-1.46559 3.504119,-3.27291"
       style="fill:#9f9f9e;fill-opacity:1;fill-rule:nonzero;stroke:none;stroke-width:0.323419"
       id="path1360" />
    <path
       d="m 67.496196,72.87299 c 0,-0.61866 -0.537761,-1.11233 -1.190842,-1.11233 -0.659143,0 -1.190725,0.49367 -1.190725,1.11233 0,0.60973 0.532061,1.1102 1.190725,1.1102 0.653459,0 1.190842,-0.50082 1.190842,-1.1102"
       style="fill:#9f9f9e;fill-opacity:1;fill-rule:nonzero;stroke:none;stroke-width:0.323419"
       id="path1362" />
    <path
       d="m 67.496196,83.35233 c 0,-0.61597 -0.537761,-1.11483 -1.190842,-1.11483 -0.659143,0 -1.190725,0.49903 -1.190725,1.11483 0,0.61062 0.532061,1.11019 1.190725,1.11019 0.653459,0 1.190842,-0.49993 1.190842,-1.11019"
       style="fill:#9f9f9e;fill-opacity:1;fill-rule:nonzero;stroke:none;stroke-width:0.323419"
       id="path1364" />
    <path
       d="m 71.912301,79.21972 c 0.657254,0 1.190463,-0.49723 1.190463,-1.11019 0,-0.61152 -0.53302,-1.11608 -1.190463,-1.11608 -0.659144,0 -1.189401,0.50439 -1.189401,1.11608 0,0.6133 0.53017,1.11019 1.189401,1.11019"
       style="fill:#9f9f9e;fill-opacity:1;fill-rule:nonzero;stroke:none;stroke-width:0.323419"
       id="path1366" />
    <path
       d="m 60.697186,79.21972 c 0.656294,0 1.189402,-0.49723 1.189402,-1.11019 0,-0.61152 -0.533006,-1.11608 -1.189402,-1.11608 -0.657254,0 -1.190463,0.50439 -1.190463,1.11608 0,0.6133 0.53302,1.11019 1.190463,1.11019"
       style="fill:#9f9f9e;fill-opacity:1;fill-rule:nonzero;stroke:none;stroke-width:0.323419"
       id="path1368" />
    <path
       d="m 69.427743,82.59888 c 0.466621,0.43833 1.216822,0.43833 1.683254,0 0.466607,-0.4312 0.466607,-1.13699 0,-1.56933 -0.466622,-0.43298 -1.216546,-0.43298 -1.683254,0 -0.462827,0.43207 -0.462827,1.13823 0,1.56933"
       style="fill:#9f9f9e;fill-opacity:1;fill-rule:nonzero;stroke:none;stroke-width:0.323419"
       id="path1370" />
    <path
       d="m 61.497167,75.18988 c 0.463787,0.43833 1.219192,0.43833 1.684578,0 0.462826,-0.4312 0.462826,-1.13447 0,-1.5694 -0.466622,-0.43477 -1.220515,-0.43477 -1.684578,0 -0.463772,0.43476 -0.465662,1.1383 0,1.5694"
       style="fill:#9f9f9e;fill-opacity:1;fill-rule:nonzero;stroke:none;stroke-width:0.323419"
       id="path1372" />
    <path
       d="m 61.497167,81.02955 c -0.463772,0.43207 -0.463772,1.13823 0,1.56933 0.463787,0.43833 1.219192,0.43833 1.684578,0 0.462826,-0.4312 0.462826,-1.13699 0,-1.56933 -0.465663,-0.43298 -1.220515,-0.43298 -1.684578,0"
       style="fill:#9f9f9e;fill-opacity:1;fill-rule:nonzero;stroke:none;stroke-width:0.323419"
       id="path1374" />
    <path
       d="m 69.427743,73.62048 c -0.462827,0.43476 -0.462827,1.1383 0,1.5694 0.466621,0.43833 1.216822,0.43833 1.683254,0 0.466607,-0.4312 0.466607,-1.13447 0,-1.5694 -0.466622,-0.43477 -1.216546,-0.43477 -1.683254,0"
       style="fill:#9f9f9e;fill-opacity:1;fill-rule:nonzero;stroke:none;stroke-width:0.323419"
       id="path1376" />
    <path
       d="m 70.383274,67.30944 c 0,1.06859 -0.928504,1.93176 -2.073054,1.93176 h -4.010953 c -1.147588,0 -2.072763,-0.86327 -2.072763,-1.93176 0,-1.07359 0.924709,-1.94177 2.072763,-1.94177 h 4.010953 c 1.144928,0 2.073054,0.86861 2.073054,1.94177"
       style="fill:#1c1b1c;fill-opacity:1;fill-rule:nonzero;stroke:none;stroke-width:0.323419"
       id="path1378" />
    <path
       d="m 61.009683,67.77839 c 0.809954,0.75256 0.809954,1.97836 0,2.73173 l -2.83756,2.65363 c -0.80901,0.75702 -2.119621,0.75702 -2.931276,0 -0.805201,-0.75346 -0.805201,-1.98204 0,-2.73549 l 2.838606,-2.64987 c 0.80805,-0.75704 2.121234,-0.75704 2.93023,0"
       style="fill:#1c1b1c;fill-opacity:1;fill-rule:nonzero;stroke:none;stroke-width:0.323419"
       id="path1380" />
    <path
       d="m 54.738939,74.30205 c 1.144927,0 2.072762,0.86328 2.072762,1.93795 v 3.74532 c 0,1.06985 -0.927544,1.93955 -2.072762,1.93955 -1.144927,0 -2.073053,-0.86953 -2.073053,-1.93955 V 76.24 c 0,-1.07477 0.928504,-1.93795 2.073053,-1.93795"
       style="fill:#1c1b1c;fill-opacity:1;fill-rule:nonzero;stroke:none;stroke-width:0.323419"
       id="path1382" />
    <path
       d="m 55.240847,83.05908 c 0.811844,-0.75346 2.122266,-0.75346 2.931276,0 l 2.83756,2.65147 c 0.809954,0.75971 0.809954,1.98203 0,2.7355 -0.808996,0.75613 -2.122558,0.75613 -2.93023,0 l -2.838606,-2.64889 c -0.805201,-0.75972 -0.80805,-1.97837 0,-2.73808"
       style="fill:#1c1b1c;fill-opacity:1;fill-rule:nonzero;stroke:none;stroke-width:0.323419"
       id="path1384" />
    <path
       d="m 62.226504,88.92088 c 0,-1.07199 0.924709,-1.93792 2.072763,-1.93792 h 4.010953 c 1.144928,0 2.073054,0.86593 2.073054,1.93792 0,1.06861 -0.928504,1.93205 -2.073054,1.93205 h -4.010953 c -1.147588,0 -2.072763,-0.86327 -2.072763,-1.93205"
       style="fill:#1c1b1c;fill-opacity:1;fill-rule:nonzero;stroke:none;stroke-width:0.323419"
       id="path1386" />
    <path
       d="m 71.598482,88.44605 c -0.80901,-0.75347 -0.80901,-1.97586 0,-2.7355 l 2.836236,-2.65147 c 0.811845,-0.75346 2.122558,-0.75346 2.931553,0 0.80805,0.75971 0.80805,1.97863 0,2.73808 l -2.837559,2.64889 c -0.806161,0.75613 -2.121235,0.75613 -2.93023,0"
       style="fill:#1c1b1c;fill-opacity:1;fill-rule:nonzero;stroke:none;stroke-width:0.323419"
       id="path1388" />
    <path
       d="m 77.870548,81.92487 c -1.142267,0 -2.071439,-0.86953 -2.071439,-1.93955 V 76.24 c 0,-1.07477 0.929448,-1.93795 2.071439,-1.93795 1.144928,0 2.073053,0.86328 2.073053,1.93795 v 3.74532 c 0,1.06985 -0.928504,1.93955 -2.073053,1.93955"
       style="fill:#1c1b1c;fill-opacity:1;fill-rule:nonzero;stroke:none;stroke-width:0.323419"
       id="path1390" />
    <path
       d="m 77.366271,73.16375 c -0.808995,0.75702 -2.119897,0.75702 -2.931553,0 l -2.836236,-2.65363 c -0.80901,-0.75346 -0.80901,-1.97953 0,-2.73173 0.808995,-0.75704 2.12388,-0.75704 2.93023,0 l 2.837559,2.64987 c 0.80805,0.75345 0.80805,1.98203 0,2.73549"
       style="fill:#1c1b1c;fill-opacity:1;fill-rule:nonzero;stroke:none;stroke-width:0.323419"
       id="path1392" />
    <path
       d="m 66.305354,68.0654 c -5.928355,0 -10.753712,4.5012 -10.753712,10.04789 0,5.53704 4.825357,10.04449 10.753712,10.04449 5.927134,0 10.753829,-4.50745 10.753829,-10.04449 0,-5.54669 -4.826695,-10.04789 -10.753829,-10.04789 z m 0,20.66766 c -6.267981,0 -11.368005,-4.76385 -11.368005,-10.61977 0,-5.85931 5.100024,-10.62316 11.368005,-10.62316 6.265728,0 11.36546,4.76385 11.36546,10.62316 0,5.85592 -5.099732,10.61977 -11.36546,10.61977"
       style="fill:#1a1817;fill-opacity:1;fill-rule:nonzero;stroke:none;stroke-width:0.323419"
       id="path1394" />
    <path
       d="m 107.69134,78.11329 c 0,-6.25007 -5.42258,-11.31691 -12.110154,-11.31691 -6.690226,0 -12.110147,5.06684 -12.110147,11.31691 0,6.2489 5.419921,11.31466 12.110147,11.31466 6.687574,0 12.110154,-5.06576 12.110154,-11.31466"
       style="fill:#1c1b1c;fill-opacity:1;fill-rule:nonzero;stroke:none;stroke-width:0.323419"
       id="path1396" />
    <path
       d="m 103.39026,78.11329 c 0,-4.02977 -3.497384,-7.29429 -7.809074,-7.29429 -4.31311,0 -7.807748,3.26452 -7.807748,7.29429 0,4.03011 3.494638,7.29677 7.807748,7.29677 4.31169,0 7.809074,-3.26666 7.809074,-7.29677"
       style="fill:#2d2b38;fill-opacity:1;fill-rule:nonzero;stroke:none;stroke-width:0.323419"
       id="path1398" />
    <path
       d="m 99.085206,78.11329 c 0,-1.80733 -1.56981,-3.27631 -3.50402,-3.27631 -1.93552,0 -3.50269,1.46898 -3.50269,3.27631 0,1.80732 1.56717,3.27291 3.50269,3.27291 1.93421,0 3.50402,-1.46559 3.50402,-3.27291"
       style="fill:#9f9f9e;fill-opacity:1;fill-rule:nonzero;stroke:none;stroke-width:0.323419"
       id="path1400" />
    <path
       d="m 99.085206,78.11329 c 0,-1.80733 -1.56981,-3.27631 -3.50402,-3.27631 -1.93552,0 -3.50269,1.46898 -3.50269,3.27631 0,1.80732 1.56717,3.27291 3.50269,3.27291 1.93421,0 3.50402,-1.46559 3.50402,-3.27291"
       style="fill:#9f9f9e;fill-opacity:1;fill-rule:nonzero;stroke:none;stroke-width:0.323419"
       id="path1402" />
    <path
       d="m 96.771926,72.87299 c 0,-0.61866 -0.53206,-1.11233 -1.19074,-1.11233 -0.6544,0 -1.18942,0.49367 -1.18942,1.11233 0,0.60973 0.53492,1.1102 1.18942,1.1102 0.65915,0 1.19074,-0.50082 1.19074,-1.1102"
       style="fill:#9f9f9e;fill-opacity:1;fill-rule:nonzero;stroke:none;stroke-width:0.323419"
       id="path1404" />
    <path
       d="m 96.771926,83.35233 c 0,-0.61597 -0.53206,-1.11483 -1.19074,-1.11483 -0.6544,0 -1.18942,0.49903 -1.18942,1.11483 0,0.61062 0.53492,1.11019 1.18942,1.11019 0.65915,0 1.19074,-0.49993 1.19074,-1.11019"
       style="fill:#9f9f9e;fill-opacity:1;fill-rule:nonzero;stroke:none;stroke-width:0.323419"
       id="path1406" />
    <path
       d="m 101.18814,79.21972 c 0.65726,0 1.19037,-0.49723 1.19037,-1.11019 0,-0.61152 -0.53303,-1.11608 -1.19037,-1.11608 -0.65631,0 -1.189514,0.50439 -1.189514,1.11608 0,0.6133 0.533014,1.11019 1.189514,1.11019"
       style="fill:#9f9f9e;fill-opacity:1;fill-rule:nonzero;stroke:none;stroke-width:0.323419"
       id="path1408" />
    <path
       d="m 89.974347,79.21972 c 0.654403,0 1.188079,-0.49723 1.188079,-1.11019 0,-0.61152 -0.533018,-1.11608 -1.188079,-1.11608 -0.659161,0 -1.190465,0.50439 -1.190465,1.11608 0,0.6133 0.531116,1.11019 1.190465,1.11019"
       style="fill:#9f9f9e;fill-opacity:1;fill-rule:nonzero;stroke:none;stroke-width:0.323419"
       id="path1410" />
    <path
       d="m 98.704796,82.59888 c 0.46663,0.43833 1.21691,0.43833 1.681944,0 0.46566,-0.4312 0.46566,-1.13699 0,-1.56933 -0.464744,-0.43298 -1.215134,-0.43298 -1.681944,0 -0.46377,0.43207 -0.46377,1.13823 0,1.56933"
       style="fill:#9f9f9e;fill-opacity:1;fill-rule:nonzero;stroke:none;stroke-width:0.323419"
       id="path1412" />
    <path
       d="m 90.772898,75.18988 c 0.463788,0.43833 1.219298,0.43833 1.684688,0 0.46283,-0.4312 0.46283,-1.13447 0,-1.5694 -0.46568,-0.43477 -1.22062,-0.43477 -1.684688,0 -0.462821,0.43476 -0.462821,1.1383 0,1.5694"
       style="fill:#9f9f9e;fill-opacity:1;fill-rule:nonzero;stroke:none;stroke-width:0.323419"
       id="path1414" />
    <path
       d="m 90.772898,81.02955 c -0.462821,0.43207 -0.462821,1.13823 0,1.56933 0.463788,0.43833 1.219298,0.43833 1.684688,0 0.46283,-0.4312 0.46283,-1.13699 0,-1.56933 -0.46568,-0.43298 -1.22062,-0.43298 -1.684688,0"
       style="fill:#9f9f9e;fill-opacity:1;fill-rule:nonzero;stroke:none;stroke-width:0.323419"
       id="path1416" />
    <path
       d="m 98.704796,73.62048 c -0.46377,0.43476 -0.46377,1.1383 0,1.5694 0.46663,0.43833 1.21691,0.43833 1.681944,0 0.46566,-0.4312 0.46566,-1.13447 0,-1.5694 -0.464744,-0.43477 -1.215134,-0.43477 -1.681944,0"
       style="fill:#9f9f9e;fill-opacity:1;fill-rule:nonzero;stroke:none;stroke-width:0.323419"
       id="path1418" />
    <path
       d="m 99.659096,67.30944 c 0,1.06859 -0.9266,1.93176 -2.07172,1.93176 h -4.01237 c -1.14493,0 -2.07267,-0.86327 -2.07267,-1.93176 0,-1.07359 0.92755,-1.94177 2.07267,-1.94177 h 4.01237 c 1.14493,0 2.07172,0.86861 2.07172,1.94177"
       style="fill:#1c1b1c;fill-opacity:1;fill-rule:nonzero;stroke:none;stroke-width:0.323419"
       id="path1420" />
    <path
       d="m 90.286753,67.77839 c 0.808993,0.75256 0.808993,1.97836 0,2.73173 l -2.834825,2.65363 c -0.81279,0.75702 -2.123605,0.75702 -2.9326,0 -0.80805,-0.75346 -0.80805,-1.98204 0,-2.73549 l 2.835859,-2.64987 c 0.812804,-0.75704 2.123891,-0.75704 2.931566,0"
       style="fill:#1c1b1c;fill-opacity:1;fill-rule:nonzero;stroke:none;stroke-width:0.323419"
       id="path1422" />
    <path
       d="m 84.014775,74.30205 c 1.14625,0 2.071338,0.86328 2.071338,1.93795 v 3.74532 c 0,1.06985 -0.92471,1.93955 -2.071338,1.93955 -1.143604,0 -2.07173,-0.86953 -2.07173,-1.93955 V 76.24 c 0,-1.07477 0.928504,-1.93795 2.07173,-1.93795"
       style="fill:#1c1b1c;fill-opacity:1;fill-rule:nonzero;stroke:none;stroke-width:0.323419"
       id="path1424" />
    <path
       d="m 84.519328,83.05908 c 0.808995,-0.75346 2.11952,-0.75346 2.9326,0 l 2.834825,2.65147 c 0.808993,0.75971 0.808993,1.98203 0,2.7355 -0.812801,0.75613 -2.123894,0.75613 -2.931566,0 l -2.835859,-2.64889 c -0.80805,-0.75972 -0.811844,-1.97837 0,-2.73808"
       style="fill:#1c1b1c;fill-opacity:1;fill-rule:nonzero;stroke:none;stroke-width:0.323419"
       id="path1426" />
    <path
       d="m 91.502336,88.92088 c 0,-1.07199 0.92755,-1.93792 2.07267,-1.93792 h 4.01237 c 1.14493,0 2.07172,0.86593 2.07172,1.93792 0,1.06861 -0.9266,1.93205 -2.07172,1.93205 h -4.01237 c -1.14493,0 -2.07267,-0.86327 -2.07267,-1.93205"
       style="fill:#1c1b1c;fill-opacity:1;fill-rule:nonzero;stroke:none;stroke-width:0.323419"
       id="path1428" />
    <path
       d="m 100.87563,88.44605 c -0.80994,-0.75347 -0.80994,-1.97586 0,-2.7355 l 2.83483,-2.65147 c 0.81184,-0.75346 2.12398,-0.75346 2.93297,0 0.80996,0.75971 0.80996,1.97863 0,2.73808 l -2.8389,2.64889 c -0.80615,0.75613 -2.11989,0.75613 -2.9289,0"
       style="fill:#1c1b1c;fill-opacity:1;fill-rule:nonzero;stroke:none;stroke-width:0.323419"
       id="path1430" />
    <path
       d="m 107.14628,81.92487 c -1.1436,0 -2.07001,-0.86953 -2.07001,-1.93955 V 76.24 c 0,-1.07477 0.92945,-1.93795 2.07001,-1.93795 1.14626,0 2.07306,0.86328 2.07306,1.93795 v 3.74532 c 0,1.06985 -0.92662,1.93955 -2.07306,1.93955"
       style="fill:#1c1b1c;fill-opacity:1;fill-rule:nonzero;stroke:none;stroke-width:0.323419"
       id="path1432" />
    <path
       d="m 106.64343,73.16375 c -0.80899,0.75702 -2.12123,0.75702 -2.93297,0 l -2.83483,-2.65363 c -0.80994,-0.75346 -0.80994,-1.97953 0,-2.73173 0.80901,-0.75704 2.12256,-0.75704 2.9289,0 l 2.8389,2.64987 c 0.80996,0.75345 0.80996,1.98203 0,2.73549"
       style="fill:#1c1b1c;fill-opacity:1;fill-rule:nonzero;stroke:none;stroke-width:0.323419"
       id="path1434" />
    <path
       d="m 95.581186,68.0654 c -5.928458,0 -10.751063,4.5012 -10.751063,10.04789 0,5.53704 4.822605,10.04449 10.751063,10.04449 5.931124,0 10.753744,-4.50745 10.753744,-10.04449 0,-5.54669 -4.82262,-10.04789 -10.753744,-10.04789 z m 0,20.66766 c -6.267991,0 -11.368001,-4.76385 -11.368001,-10.61977 0,-5.85931 5.10001,-10.62316 11.368001,-10.62316 6.268004,0 11.365364,4.76385 11.365364,10.62316 0,5.85592 -5.09736,10.61977 -11.365364,10.61977"
       style="fill:#1a1817;fill-opacity:1;fill-rule:nonzero;stroke:none;stroke-width:0.323419"
       id="path1436" />
    <path
       d="M 37.872766,56.75073 H 118.38654 V 52.253 H 37.872766 Z"
       style="fill:#1c1b1c;fill-opacity:1;fill-rule:nonzero;stroke:none;stroke-width:0.323419"
       id="path1438" />
    <path
       d="M 100.20908,17.429098 H 95.581186 V 52.68649 h 4.627894 V 17.429098"
       style="fill:#1c1b1c;fill-opacity:1;fill-rule:nonzero;stroke:none;stroke-width:0.323419"
       id="path1440" />
    <path
       d="M 105.07627,19.104483 H 90.719414 v 4.511199 h 14.356856 v -4.511199"
       style="fill:#1c1b1c;fill-opacity:1;fill-rule:nonzero;stroke:none;stroke-width:0.323419"
       id="path1442" />
    <path
       d="m 102.37851,23.615682 h -8.966714 v 5.555173 h 8.966714 v -5.555173"
       style="fill:#2d2b38;fill-opacity:1;fill-rule:nonzero;stroke:none;stroke-width:0.323419"
       id="path1444" />
    <path
       d="m 102.37851,46.575525 h -8.966714 v 6.683745 h 8.966714 v -6.683745"
       style="fill:#1c1b1c;fill-opacity:1;fill-rule:nonzero;stroke:none;stroke-width:0.323419"
       id="path1446" />
    <path
       d="M 21.137007,52.68649 H 73.54339 V 38.840405 H 21.137007 Z"
       style="fill:#2d2b38;fill-opacity:1;fill-rule:nonzero;stroke:none;stroke-width:0.323419"
       id="path1448" />
    <path
       d="m 28.846782,43.449288 c 0,1.215171 -1.053217,2.200569 -2.352459,2.200569 -1.303124,0 -2.357766,-0.985398 -2.357766,-2.200569 0,-1.214016 1.054642,-2.201907 2.357766,-2.201907 1.299242,0 2.352459,0.987891 2.352459,2.201907"
       style="fill:#1c1b1c;fill-opacity:1;fill-rule:nonzero;stroke:none;stroke-width:0.323419"
       id="path1450" />
    <path
       d="M 73.54339,52.68649 H 21.137007 v -3.43511 c 6.496937,0.13483 13.303637,0.81327 19.961141,0.81327 9.076826,0 17.872633,-1.260173 25.205883,-6.875326 1.705732,-1.290877 3.159186,-2.759857 4.422852,-4.348638 H 73.54339 V 52.68668"
       style="fill:#24242e;fill-opacity:1;fill-rule:nonzero;stroke:none;stroke-width:0.323419"
       id="path1452" />
    <path
       d="m 77.119025,60.78084 v 4.49273 H 29.964304 v -4.49273 h 47.154721"
       style="fill:#dae3ec;fill-opacity:1;fill-rule:nonzero;stroke:none;stroke-width:0.323419"
       id="path1454" />
    <path
       d="M 74.481853,58.53019 H 3.1350081 V 63.0289 H 74.481853 v -4.49871"
       style="fill:#1c1b1c;fill-opacity:1;fill-rule:nonzero;stroke:none;stroke-width:0.323419"
       id="path1456" />
    <path
       d="m 109.26382,2.7574268 c 0,1.180708 -1.02345,2.138345 -2.28711,2.138345 H 88.816318 c -1.262343,0 -2.289565,-0.957637 -2.289565,-2.138345 0,-1.182062 1.027222,-2.13594305 2.289565,-2.13594305 h 18.160392 c 1.26366,0 2.28711,0.95388105 2.28711,2.13594305"
       style="fill:#1c1b1c;fill-opacity:1;fill-rule:nonzero;stroke:none;stroke-width:0.323419"
       id="path1458" />
    <path
       d="m 116.52527,12.742106 c 0,4.368106 -3.79147,7.909556 -8.46385,7.909556 H 87.731624 c -4.675128,0 -8.465195,-3.54145 -8.465195,-7.909556 v -2.076119 c 0,-4.3671252 3.790067,-7.9085602 8.465195,-7.9085602 h 20.329796 c 4.67238,0 8.46385,3.541435 8.46385,7.9085602 v 2.076119"
       style="fill:#ffffff;fill-opacity:1;fill-rule:nonzero;stroke:none;stroke-width:0.323419"
       id="path1460" />
    <path
       d="M 108.06142,2.7574268 H 97.895806 V 20.651662 h 10.165614 c 4.67238,0 8.46385,-3.54145 8.46385,-7.909556 v -2.076119 c 0,-4.3671252 -3.79147,-7.9085602 -8.46385,-7.9085602"
       style="fill:#dae3ec;fill-opacity:1;fill-rule:nonzero;stroke:none;stroke-width:0.323419"
       id="path1462" />
    <path
       d="m 94.333166,11.707624 c 0,-3.1103532 -2.69768,-5.6310532 -6.021402,-5.6310532 -3.331411,0 -6.02482,2.5207 -6.02482,5.6310532 0,3.107843 2.693409,5.623632 6.02482,5.623632 3.323722,0 6.021402,-2.515789 6.021402,-5.623632"
       style="fill:#1c1b1c;fill-opacity:1;fill-rule:nonzero;stroke:none;stroke-width:0.323419"
       id="path1464" />
    <path
       d="m 91.531066,10.094463 c 0,-0.9341472 -0.808047,-1.6853772 -1.801049,-1.6853772 -0.997341,0 -1.805013,0.751682 -1.805013,1.6853772 0,0.928255 0.80805,1.681635 1.805013,1.681635 0.993375,0 1.801049,-0.753474 1.801049,-1.681635"
       style="fill:#ffffff;fill-opacity:1;fill-rule:nonzero;stroke:none;stroke-width:0.323419"
       id="path1466" />
    <path
       d="m 113.50731,11.707624 c 0,-3.1103532 -2.69871,-5.6310532 -6.02509,-5.6310532 -3.32611,0 -6.02482,2.5207 -6.02482,5.6310532 0,3.107843 2.69871,5.623632 6.02482,5.623632 3.32638,0 6.02509,-2.515789 6.02509,-5.623632"
       style="fill:#1c1b1c;fill-opacity:1;fill-rule:nonzero;stroke:none;stroke-width:0.323419"
       id="path1468" />
    <path
       d="m 111.18104,10.094463 c 0,-0.9341472 -0.80616,-1.6853772 -1.80237,-1.6853772 -0.99707,0 -1.80209,0.751682 -1.80209,1.6853772 0,0.928255 0.80521,1.681635 1.80209,1.681635 0.99602,0 1.80237,-0.753474 1.80237,-1.681635"
       style="fill:#ffffff;fill-opacity:1;fill-rule:nonzero;stroke:none;stroke-width:0.323419"
       id="path1470" />
    <path
       d="m 132.76909,94.7011 c 0,2.39475 -2.0831,4.34241 -4.64723,4.34241 H 18.968928 c -2.568229,0 -4.647621,-1.94766 -4.647621,-4.34241 0,-2.39723 2.079392,-4.34274 4.647621,-4.34274 H 128.12186 c 2.56413,0 4.64723,1.94551 4.64723,4.34274"
       style="fill:#2d2b38;fill-opacity:1;fill-rule:nonzero;stroke:none;stroke-width:0.323419"
       id="path1472" />
    <path
       d="m 28.643065,93.67884 c 0,-1.30311 -1.130607,-2.36286 -2.527825,-2.36286 -1.397205,0 -2.529048,1.05975 -2.529048,2.36286 0,1.30429 1.131843,2.36315 2.529048,2.36315 1.397218,0 2.527825,-1.05886 2.527825,-2.36315"
       style="fill:#1c1b1c;fill-opacity:1;fill-rule:nonzero;stroke:none;stroke-width:0.323419"
       id="path1474" />
    <path
       d="m 27.473378,91.68708 c 0.343333,0.40442 0.551033,0.91345 0.551033,1.47025 0,1.30311 -1.13052,2.36321 -2.529047,2.36321 -0.497923,0 -0.965591,-0.13841 -1.359083,-0.36602 0.463772,0.54099 1.176418,0.88826 1.978682,0.88826 1.397204,0 2.527811,-1.05886 2.527811,-2.36322 0,-0.83738 -0.466621,-1.5753 -1.169687,-1.99176"
       style="fill:#1c1b1c;fill-opacity:1;fill-rule:nonzero;stroke:none;stroke-width:0.323419"
       id="path1476" />
    <path
       d="m 103.47393,94.09183 c 0,-1.30302 -1.13318,-2.36073 -2.52773,-2.36073 -1.395884,0 -2.527434,1.05771 -2.527434,2.36073 0,1.30051 1.13155,2.36285 2.527434,2.36285 1.39455,0 2.52773,-1.06234 2.52773,-2.36285"
       style="fill:#1c1b1c;fill-opacity:1;fill-rule:nonzero;stroke:none;stroke-width:0.323419"
       id="path1478" />
    <path
       d="m 102.30556,92.09971 c 0.34239,0.4044 0.55009,0.91352 0.55009,1.47281 0,1.30428 -1.13289,2.36314 -2.53009,2.36314 -0.497924,0 -0.963214,-0.13654 -1.355394,-0.3687 0.46378,0.53831 1.177384,0.88826 1.976034,0.88826 1.39455,0 2.52782,-1.06224 2.52782,-2.36286 0,-0.83382 -0.46663,-1.57906 -1.16835,-1.99202"
       style="fill:#1c1b1c;fill-opacity:1;fill-rule:nonzero;stroke:none;stroke-width:0.323419"
       id="path1480" />
    <path
       d="m 32.917956,95.78658 c 0,-0.68472 -0.594665,-1.24178 -1.330631,-1.24178 -0.736912,0 -1.334325,0.55706 -1.334325,1.24178 0,0.69364 0.5975,1.25053 1.334325,1.25053 0.735966,0 1.330631,-0.55707 1.330631,-1.25053"
       style="fill:#1c1b1c;fill-opacity:1;fill-rule:nonzero;stroke:none;stroke-width:0.323419"
       id="path1482" />
    <path
       d="m 32.301003,94.73896 c 0.182099,0.21246 0.293073,0.48119 0.293073,0.77756 0,0.68561 -0.600349,1.24456 -1.334339,1.24456 l -0.713199,-0.1964 c 0.241838,0.28478 0.616473,0.47225 1.041543,0.47225 0.735981,0 1.330631,-0.55706 1.330631,-1.25052 0,-0.43835 -0.243743,-0.82936 -0.616472,-1.04763"
       style="fill:#1c1b1c;fill-opacity:1;fill-rule:nonzero;stroke:none;stroke-width:0.323419"
       id="path1484" />
    <path
       d="m 82.024331,92.85094 c 0,-0.69454 -0.594665,-1.25045 -1.330632,-1.25045 -0.736926,0 -1.333,0.55528 -1.333,1.25045 0,0.68115 0.595609,1.24089 1.333,1.24089 0.735967,0 1.330632,-0.55974 1.330632,-1.24089"
       style="fill:#1c1b1c;fill-opacity:1;fill-rule:nonzero;stroke:none;stroke-width:0.323419"
       id="path1486" />
    <path
       d="m 81.407378,91.79707 c 0.181154,0.21247 0.293073,0.48118 0.293073,0.77488 0,0.68741 -0.59846,1.24466 -1.33338,1.24466 l -0.717008,-0.19463 c 0.242798,0.28835 0.622158,0.46868 1.044204,0.46868 0.735967,0 1.330631,-0.55974 1.330631,-1.24089 0,-0.44724 -0.245647,-0.83559 -0.616473,-1.05386"
       style="fill:#1c1b1c;fill-opacity:1;fill-rule:nonzero;stroke:none;stroke-width:0.323419"
       id="path1488" />
    <path
       d="m 96.580916,92.72872 c 0,-0.6874 -0.59466,-1.24803 -1.32893,-1.24803 -0.73881,0 -1.3347,0.56063 -1.3347,1.24803 0,0.69097 0.59656,1.24465 1.3347,1.24465 0.73408,0 1.32893,-0.55349 1.32893,-1.24465"
       style="fill:#1c1b1c;fill-opacity:1;fill-rule:nonzero;stroke:none;stroke-width:0.323419"
       id="path1490" />
    <path
       d="m 95.966626,91.67861 c 0.1821,0.21246 0.29117,0.48117 0.29117,0.77757 0,0.68115 -0.59846,1.24454 -1.33168,1.24454 l -0.71795,-0.19639 c 0.24564,0.28744 0.62121,0.46867 1.04326,0.46867 0.73407,0 1.32893,-0.55348 1.32893,-1.24454 0,-0.43745 -0.2466,-0.82757 -0.61459,-1.05012"
       style="fill:#1c1b1c;fill-opacity:1;fill-rule:nonzero;stroke:none;stroke-width:0.323419"
       id="path1492" />
    <path
       d="m 124.25071,93.86329 c 0,-0.68384 -0.59656,-1.24429 -1.3333,-1.24429 -0.73312,0 -1.32891,0.56062 -1.32891,1.24429 0,0.6874 0.59559,1.24455 1.32891,1.24455 0.73693,0 1.3333,-0.55707 1.3333,-1.24455"
       style="fill:#1c1b1c;fill-opacity:1;fill-rule:nonzero;stroke:none;stroke-width:0.323419"
       id="path1494" />
    <path
       d="m 123.63508,92.81657 c 0.18115,0.2089 0.29307,0.48118 0.29307,0.77221 0,0.68738 -0.59751,1.24089 -1.33567,1.24089 l -0.71321,-0.19016 c 0.2428,0.28834 0.61933,0.46869 1.0389,0.46869 0.73692,0 1.3333,-0.55707 1.3333,-1.24465 0,-0.44101 -0.2428,-0.83113 -0.61554,-1.04663"
       style="fill:#1c1b1c;fill-opacity:1;fill-rule:nonzero;stroke:none;stroke-width:0.323419"
       id="path1496" />
    <path
       d="m 52.204862,92.72872 c 0,-0.70972 -0.613624,-1.28204 -1.369799,-1.28204 -0.75968,0 -1.373783,0.57313 -1.373783,1.28204 0,0.70614 0.614583,1.28839 1.373783,1.28839 0.756844,0 1.369799,-0.58206 1.369799,-1.28839"
       style="fill:#1c1b1c;fill-opacity:1;fill-rule:nonzero;stroke:none;stroke-width:0.323419"
       id="path1498" />
    <path
       d="m 120.32976,96.45468 c 0,-0.70971 -0.61553,-1.28114 -1.37378,-1.28114 -0.75685,0 -1.36839,0.57134 -1.36839,1.28114 0,0.71061 0.61174,1.28241 1.36839,1.28241 0.75778,0 1.37378,-0.57133 1.37378,-1.28241"
       style="fill:#1c1b1c;fill-opacity:1;fill-rule:nonzero;stroke:none;stroke-width:0.323419"
       id="path1500" />
    <path
       d="m 41.62243,95.43858 c 0,-1.02822 -0.891517,-1.8598 -1.992145,-1.8598 -1.102722,0 -1.993105,0.83112 -1.993105,1.8598 0,1.0295 0.890573,1.86357 1.993105,1.86357 1.100818,0 1.992145,-0.8338 1.992145,-1.86357"
       style="fill:#1c1b1c;fill-opacity:1;fill-rule:nonzero;stroke:none;stroke-width:0.323419"
       id="path1502" />
    <path
       d="m 97.267086,97.03711 c 0,-0.7133 -0.61457,-1.28838 -1.37339,-1.28838 -0.75778,0 -1.37113,0.5749 -1.37113,1.28838 0,0.70346 0.61268,1.27864 1.37113,1.27864 0.75872,0 1.37339,-0.5749 1.37339,-1.27864"
       style="fill:#1c1b1c;fill-opacity:1;fill-rule:nonzero;stroke:none;stroke-width:0.323419"
       id="path1504" />
    <path
       d="m 23.281751,96.04199 c 0,-0.41512 -0.359442,-0.74989 -0.801406,-0.74989 -0.442909,0 -0.802365,0.33477 -0.802365,0.74989 0,0.41244 0.359456,0.74721 0.802365,0.74721 0.441964,0 0.801406,-0.33477 0.801406,-0.74721"
       style="fill:#1c1b1c;fill-opacity:1;fill-rule:nonzero;stroke:none;stroke-width:0.323419"
       id="path1506" />
    <path
       d="m 87.327781,93.57878 c 0,-0.41513 -0.359456,-0.75347 -0.801406,-0.75347 -0.441963,0 -0.800475,0.33834 -0.800475,0.75347 0,0.41244 0.358512,0.74362 0.800475,0.74362 0.44195,0 0.801406,-0.33118 0.801406,-0.74362"
       style="fill:#1c1b1c;fill-opacity:1;fill-rule:nonzero;stroke:none;stroke-width:0.323419"
       id="path1508" />
    <path
       d="m 32.656665,91.81269 c 0,-0.41065 -0.359442,-0.75079 -0.801405,-0.75079 -0.444814,0 -0.801421,0.34104 -0.801421,0.75079 0,0.41334 0.356607,0.7499 0.801421,0.7499 0.441963,0 0.801405,-0.33746 0.801405,-0.7499"
       style="fill:#1c1b1c;fill-opacity:1;fill-rule:nonzero;stroke:none;stroke-width:0.323419"
       id="path1510" />
    <path
       d="m 64.37116,92.13408 -0.478005,-0.44726 -0.477046,0.44726 0.477046,0.44457 0.478005,-0.44457"
       style="fill:#1c1b1c;fill-opacity:1;fill-rule:nonzero;stroke:none;stroke-width:0.323419"
       id="path1512" />
    <path
       d="m 106.62637,95.88317 -0.4799,-0.44459 -0.47706,0.44459 0.47706,0.45083 0.4799,-0.45083"
       style="fill:#1c1b1c;fill-opacity:1;fill-rule:nonzero;stroke:none;stroke-width:0.323419"
       id="path1514" />
    <path
       d="m 47.035619,93.57878 -0.476116,-0.44726 -0.479895,0.44726 0.479895,0.44725 0.476116,-0.44725"
       style="fill:#1c1b1c;fill-opacity:1;fill-rule:nonzero;stroke:none;stroke-width:0.323419"
       id="path1516" />
    <path
       d="M 42.995835,45.543536 H 31.618816 v -4.296155 h 11.377019 v 4.296155"
       style="fill:#1c1b1c;fill-opacity:1;fill-rule:nonzero;stroke:none;stroke-width:0.323419"
       id="path1518" />
  </g>
</svg>
