<?xml version="1.0" encoding="UTF-8" standalone="no"?>
<svg
   xmlns:dc="http://purl.org/dc/elements/1.1/"
   xmlns:cc="http://creativecommons.org/ns#"
   xmlns:rdf="http://www.w3.org/1999/02/22-rdf-syntax-ns#"
   xmlns:svg="http://www.w3.org/2000/svg"
   xmlns="http://www.w3.org/2000/svg"
   xmlns:sodipodi="http://sodipodi.sourceforge.net/DTD/sodipodi-0.dtd"
   xmlns:inkscape="http://www.inkscape.org/namespaces/inkscape"
   width="210mm"
   height="250mm"
   viewBox="0 0 210 250"
   version="1.1"
   id="svg2671"
   inkscape:version="1.0 (4035a4fb49, 2020-05-01)"
   sodipodi:docname="robot-i.svg">
  <defs
     id="defs2665" />
  <sodipodi:namedview
     inkscape:snap-global="false"
     id="base"
     pagecolor="#ffffff"
     bordercolor="#666666"
     borderopacity="1.0"
     inkscape:pageopacity="0.0"
     inkscape:pageshadow="2"
     inkscape:zoom="0.35"
     inkscape:cx="400"
     inkscape:cy="560"
     inkscape:document-units="mm"
     inkscape:current-layer="layer1"
     inkscape:document-rotation="0"
     showgrid="false"
     inkscape:window-width="1902"
     inkscape:window-height="1030"
     inkscape:window-x="0"
     inkscape:window-y="0"
     inkscape:window-maximized="0" />
  <metadata
     id="metadata2668">
    <rdf:RDF>
      <cc:Work
         rdf:about="">
        <dc:format>image/svg+xml</dc:format>
        <dc:type
           rdf:resource="http://purl.org/dc/dcmitype/StillImage" />
        <dc:title />
      </cc:Work>
    </rdf:RDF>
  </metadata>
  <g
     inkscape:label="Layer 1"
     inkscape:groupmode="layer"
     id="layer1">
    <path
       id="path1224"
       style="fill:#4d4d4d;fill-opacity:1;fill-rule:nonzero;stroke:none;stroke-width:0.655421"
       d="m 163.32805,190.73776 c 0,-29.3475 -24.0703,-53.13693 -53.76427,-53.13693 -29.693965,0 -53.77079,23.78943 -53.77079,53.13693 0,29.34748 24.076825,53.14357 53.77079,53.14357 29.69397,0 53.76427,-23.79609 53.76427,-53.14357" />
    <path
       id="path1226"
       style="fill:#808080;fill-opacity:1;fill-rule:nonzero;stroke:none;stroke-width:0.655421"
       d="m 147.44602,190.73776 c 0,-20.66833 -16.9699,-37.4402 -37.88224,-37.4402 -20.918894,0 -37.882236,16.77187 -37.882236,37.4402 0,20.68144 16.963342,37.43374 37.882236,37.43374 20.91234,0 37.88224,-16.7523 37.88224,-37.43374" />
    <path
       id="path1228"
       style="fill:#242e3d;fill-opacity:1;fill-rule:nonzero;stroke:none;stroke-width:0.655421"
       d="M 144.59138,105.64703 H 77.839341 V 89.565778 h 66.752039 v 16.081252" />
    <path
       id="path1230"
       style="fill:#f4f5f8;fill-opacity:1;fill-rule:nonzero;stroke:none;stroke-width:0.655421"
       d="m 135.13736,11.876968 c 0,4.724127 -3.87669,8.555398 -8.66295,8.555398 H 95.956292 c -4.779882,0 -8.656404,-3.831271 -8.656404,-8.555398 0,-4.7304119 3.876522,-8.5618669 8.656404,-8.5618669 h 30.518118 c 4.78626,0 8.66295,3.831455 8.66295,8.5618669" />
    <path
       id="path1232"
       style="fill:#ffffff;fill-opacity:1;fill-rule:nonzero;stroke:none;stroke-width:0.655421"
       d="M 146.91863,23.04516 V 95.599428 H 75.505351 V 23.04516 c 0,-6.170542 5.063406,-11.174661 11.30004,-11.174661 h 48.813199 c 5.05666,0 9.34207,3.290465 10.78573,7.81253 l 0.25789,1.010313 c 0.18687,0.755438 0.2579,1.538572 0.2579,2.352187" />
    <path
       id="path1234"
       style="fill:#49596e;fill-opacity:1;fill-rule:nonzero;stroke:none;stroke-width:0.655421"
       d="m 172.41951,142.47476 1.66885,1.71403 14.34585,-13.67035 -1.67448,-1.71957 -14.33948,13.67682" />
    <path
       id="path1236"
       style="fill:#f4f5f8;fill-opacity:1;fill-rule:nonzero;stroke:none;stroke-width:0.655421"
       d="m 161.89745,176.58535 1.76044,0.55963 19.26423,-54.95495 -4.39081,-1.39449 -16.63367,55.78907" />
    <path
       id="path1238"
       style="fill:#ffffff;fill-opacity:1;fill-rule:nonzero;stroke:none;stroke-width:0.655421"
       d="m 188.34786,133.89333 3.58648,-3.55129 -41.561,-47.507192 -6.32262,12.58874 44.29714,38.469742" />
    <path
       id="path1240"
       style="fill:#49596e;fill-opacity:1;fill-rule:nonzero;stroke:none;stroke-width:0.655421"
       d="m 50.050634,142.47476 -1.674467,1.71403 -14.345852,-13.67035 1.674467,-1.71957 14.346048,13.67682" />
    <path
       id="path1242"
       style="fill:#f4f5f8;fill-opacity:1;fill-rule:nonzero;stroke:none;stroke-width:0.655421"
       d="m 60.566153,176.58535 -1.76044,0.55963 -19.257696,-54.95495 4.384282,-1.39449 16.633658,55.78888" />
    <path
       id="path1244"
       style="fill:#ffffff;fill-opacity:1;fill-rule:nonzero;stroke:none;stroke-width:0.655421"
       d="m 34.122445,133.89333 -3.593191,-3.55129 41.56773,-47.507192 6.322433,12.58874 -44.296972,38.469742" />
    <path
       id="path1246"
       style="fill:#49596e;fill-opacity:1;fill-rule:nonzero;stroke:none;stroke-width:0.655421"
       d="M 150.37334,101.6266 H 72.070465 V 82.834848 H 150.37334 V 101.6266" />
    <path
       id="path1248"
       style="fill:#49596e;fill-opacity:1;fill-rule:nonzero;stroke:none;stroke-width:0.655421"
       d="m 98.824191,46.293787 c -7.192737,1.595827 -14.35912,-2.886524 -15.97435,-9.995346 -1.622148,-7.108798 2.920615,-14.198027 10.119873,-15.787961 7.186216,-1.595828 14.352596,2.893176 15.967826,9.995344 1.61467,7.108799 -2.92733,14.198235 -10.113349,15.787963" />
    <path
       id="path1250"
       style="fill:#242e3d;fill-opacity:1;fill-rule:nonzero;stroke:none;stroke-width:0.655421"
       d="m 105.94441,31.177027 c -1.2521,-5.486381 -6.757656,-8.933302 -12.308817,-7.701703 -5.544635,1.231967 -9.038778,6.678635 -7.786104,12.158569 1.246518,5.479911 6.744417,8.933302 12.295578,7.695234 5.551163,-1.224578 9.038753,-6.672167 7.799343,-12.1521" />
    <path
       id="path1252"
       style="fill:#f4f5f8;fill-opacity:1;fill-rule:nonzero;stroke:none;stroke-width:0.655421"
       d="m 116.84229,129.82083 h -11.24081 l -0.63353,-46.985982 h 12.49329 l -0.62042,46.985982" />
    <path
       id="path1254"
       style="fill:#ffffff;fill-opacity:1;fill-rule:nonzero;stroke:none;stroke-width:0.655421"
       d="m 105.60148,129.82083 h 11.24081 l -3.12504,41.1673 h -5.00397 l -3.1118,-41.1673" />
  </g>
</svg>
