<svg id="Camada_1" data-name="Camada 1" xmlns="http://www.w3.org/2000/svg" viewBox="0 0 1080 1080"><defs><style>.cls-1{fill:#151e27;}.cls-2,.cls-5,.cls-6{fill:#68a3d7;}.cls-10,.cls-14,.cls-3,.cls-7{fill:#3e618a;}.cls-4{fill:#212d3b;}.cls-5{font-size:21px;}.cls-10,.cls-14,.cls-5,.cls-6,.cls-7{font-family:Inlanders-Bold, Inlanders;font-weight:700;}.cls-6{font-size:36px;}.cls-7{font-size:138px;}.cls-8{letter-spacing:-0.18em;}.cls-13,.cls-9{fill:none;stroke-miterlimit:10;}.cls-9{stroke:#68a3d7;stroke-width:8px;}.cls-10{font-size:6px;}.cls-11,.cls-12{font-size:72px;}.cls-12{font-family:Swiss721BT-Black, Swis721 Blk BT;font-weight:800;}.cls-13{stroke:#3e618a;stroke-width:2px;}.cls-14{font-size:60px;}</style></defs><title>Sensor Ultrasônico</title><rect class="cls-1" y="0.32" width="1080" height="1080" transform="translate(-0.32 1080) rotate(-90)"/><rect class="cls-2" x="438.6" y="453.78" width="28.8" height="58.88"/><rect class="cls-2" x="492.6" y="453.78" width="28.8" height="58.88"/><rect class="cls-2" x="552.6" y="453.78" width="28.8" height="58.88"/><rect class="cls-2" x="612.6" y="453.78" width="28.8" height="58.88"/><rect class="cls-3" x="165.6" y="112.34" width="748.8" height="344.32" rx="30.24"/><circle class="cls-4" cx="334.08" cy="284.5" r="112.32"/><circle class="cls-4" cx="745.92" cy="284.5" r="112.32"/><circle class="cls-1" cx="334.08" cy="284.5" r="79.42"/><circle class="cls-1" cx="747.06" cy="281.49" r="79.42"/><rect class="cls-2" x="438.6" y="135.66" width="202.8" height="51.56" rx="25.78"/><circle class="cls-2" cx="195.28" cy="135.66" r="8.5"/><circle class="cls-2" cx="195.28" cy="434.54" r="8.5"/><circle class="cls-2" cx="882.16" cy="135.66" r="8.5"/><circle class="cls-2" cx="882.16" cy="434.54" r="8.5"/><text class="cls-5" transform="translate(433.02 440.53) scale(1 1.02)"><tspan xml:space="preserve">vCC   tRIG   eCHO   gND</tspan></text><text class="cls-6" transform="translate(244.94 441.26) scale(1 1.02)">T</text><text class="cls-6" transform="translate(798.94 441.26) scale(1 1.02)"><tspan xml:space="preserve">  r</tspan></text><text class="cls-7" transform="translate(296.98 712.5) scale(1 1.02)">Sensor <tspan x="-205.15" y="162.35">U</tspan><tspan class="cls-8" x="-122.06" y="162.35">l</tspan><tspan x="-81.36" y="162.35">trassonico</tspan></text><polyline class="cls-9" points="453 512.66 170.08 512.66 170.08 668.18 236.16 668.18"/><circle class="cls-9" cx="242.8" cy="668.18" r="9.44"/><polyline class="cls-9" points="624.44 512.66 907.36 512.66 907.36 668.18 841.28 668.18"/><circle class="cls-9" cx="834.64" cy="668.18" r="9.44"/><text class="cls-10" transform="translate(690.1 996.07) scale(1 1.02)"> <tspan class="cls-11" x="1.49" y="0">HC-SRO</tspan><tspan class="cls-12" x="244.49" y="0">4</tspan></text><rect class="cls-13" x="667.64" y="930.42" width="333.32" height="84.24"/><text class="cls-14" transform="translate(658.24 812.57)">^</text></svg>