<?xml version="1.0" encoding="UTF-8" standalone="no"?>
<svg
   xmlns:dc="http://purl.org/dc/elements/1.1/"
   xmlns:cc="http://creativecommons.org/ns#"
   xmlns:rdf="http://www.w3.org/1999/02/22-rdf-syntax-ns#"
   xmlns:svg="http://www.w3.org/2000/svg"
   xmlns="http://www.w3.org/2000/svg"
   xmlns:sodipodi="http://sodipodi.sourceforge.net/DTD/sodipodi-0.dtd"
   xmlns:inkscape="http://www.inkscape.org/namespaces/inkscape"
   version="1.1"
   id="Capa_1"
   x="0px"
   y="0px"
   viewBox="0 0 595.3 595.3"
   enable-background="new 0 0 595.3 595.3"
   xml:space="preserve"
   sodipodi:docname="winner-marcada.svg"
   inkscape:version="1.0 (4035a4fb49, 2020-05-01)"><metadata
   id="metadata2162"><rdf:RDF><cc:Work
       rdf:about=""><dc:format>image/svg+xml</dc:format><dc:type
         rdf:resource="http://purl.org/dc/dcmitype/StillImage" /><dc:title></dc:title></cc:Work></rdf:RDF></metadata><defs
   id="defs2160" /><sodipodi:namedview
   inkscape:document-rotation="0"
   pagecolor="#ffffff"
   bordercolor="#666666"
   borderopacity="1"
   objecttolerance="10"
   gridtolerance="10"
   guidetolerance="10"
   inkscape:pageopacity="0"
   inkscape:pageshadow="2"
   inkscape:window-width="1920"
   inkscape:window-height="1001"
   id="namedview2158"
   showgrid="false"
   inkscape:zoom="1.394255"
   inkscape:cx="297.64999"
   inkscape:cy="297.64999"
   inkscape:window-x="-9"
   inkscape:window-y="-9"
   inkscape:window-maximized="1"
   inkscape:current-layer="Capa_1" />
<g
   id="g2155"
   style="fill:#ffff00;fill-opacity:1">
	<polygon
   points="275.7,508 275.7,382.4 299.5,386.3 323.3,382.4 323.3,508  "
   id="polygon2143"
   style="fill:#ffff00;fill-opacity:1" />
	<path
   d="M136.2,79c0,0-82.2-41.1-81.9,39.4c0,0-0.8,71.1,45.6,129.4c0,0,36.2,51.4,98.9,71c0,0-17.4-26.8-26.1-47.2   c0,0-57-32.4-77.5-99.2c0,0-36.2-91.7,40.9-59.1V79H136.2z"
   id="path2145"
   style="fill:#ffff00;fill-opacity:1" />
	<path
   d="M299.5,386.3c41.3,0,75.6-37.3,75.6-37.3c42.5-42.9,65.7-115.7,65.7-115.7C471.1,154,460,31.4,460,31.4H299.5H138.9   c0,0-11,122.6,19.3,201.9c0,0,23.2,72.9,65.7,115.7C223.9,349,258.2,386.3,299.5,386.3z"
   id="path2147"
   style="fill:#ffff00;fill-opacity:1" />
	<path
   d="M463.3,79c0,0,82.2-41.1,81.9,39.4c0,0,0.8,71.1-45.6,129.4c0,0-36.2,51.4-98.9,71c0,0,17.4-26.8,26.1-47.2   c0,0,57-32.4,77.5-99.2c0,0,36.2-91.7-40.9-59.1V79H463.3z"
   id="path2149"
   style="fill:#ffff00;fill-opacity:1" />
	<rect
   x="156.5"
   y="523.4"
   width="285.9"
   height="41.6"
   id="rect2151"
   style="fill:#ffff00;fill-opacity:1" />
	<rect
   x="250.5"
   y="508"
   width="98"
   height="15.4"
   id="rect2153"
   style="fill:#ffff00;fill-opacity:1" />
</g>
</svg>
