<?xml version="1.0" encoding="UTF-8" standalone="no"?>
<svg
   xmlns:dc="http://purl.org/dc/elements/1.1/"
   xmlns:cc="http://creativecommons.org/ns#"
   xmlns:rdf="http://www.w3.org/1999/02/22-rdf-syntax-ns#"
   xmlns:svg="http://www.w3.org/2000/svg"
   xmlns="http://www.w3.org/2000/svg"
   xmlns:sodipodi="http://sodipodi.sourceforge.net/DTD/sodipodi-0.dtd"
   xmlns:inkscape="http://www.inkscape.org/namespaces/inkscape"
   height="135px"
   style="enable-background:new 0 0 120 135;"
   version="1.1"
   viewBox="0 0 120 135"
   width="120px"
   xml:space="preserve"
   id="svg2745"
   sodipodi:docname="world-marcada.svg"
   inkscape:version="1.0 (4035a4fb49, 2020-05-01)"><metadata
     id="metadata2749"><rdf:RDF><cc:Work
         rdf:about=""><dc:format>image/svg+xml</dc:format><dc:type
           rdf:resource="http://purl.org/dc/dcmitype/StillImage" /><dc:title></dc:title></cc:Work></rdf:RDF></metadata><sodipodi:namedview
     inkscape:document-rotation="0"
     pagecolor="#ffffff"
     bordercolor="#666666"
     borderopacity="1"
     objecttolerance="10"
     gridtolerance="10"
     guidetolerance="10"
     inkscape:pageopacity="0"
     inkscape:pageshadow="2"
     inkscape:window-width="1920"
     inkscape:window-height="1001"
     id="namedview2747"
     showgrid="false"
     inkscape:zoom="6.1481481"
     inkscape:cx="60"
     inkscape:cy="67.5"
     inkscape:window-x="-9"
     inkscape:window-y="-9"
     inkscape:window-maximized="1"
     inkscape:current-layer="svg2745" /><style
     type="text/css"
     id="style2738">
<![CDATA[
	.st0{fill:#EF3E42;}
	.st1{fill:#FFFFFF;}
	.st2{fill:none;}
	.st3{fill-rule:evenodd;clip-rule:evenodd;fill:#FFFFFF;}
]]>
</style><defs
     id="defs2740" /><path
     d="m 41.046067,42.075224 c -2.230625,6.336807 -3.568999,13.110636 -4.015124,20.21223 h 19.183366 v -20.21223 z m 3.457466,-8.194148 H 56.214309 V 17.711291 c -4.68431,4.588723 -8.587902,10.051488 -11.710776,16.169785 z m -9.145558,0 c 2.453687,-5.572021 5.57656,-10.816275 9.25709,-15.514253 -9.480152,2.949893 -17.621929,8.521913 -23.533083,15.514253 z m 70.041585,8.194148 H 88.446826 c 2.007562,6.336807 3.234405,13.110636 3.568999,20.21223 h 19.629485 c -0.55765,-7.320104 -2.78827,-14.093933 -6.24575,-20.21223 z M 83.650984,62.287454 C 83.316391,55.18586 81.866485,48.412031 79.635861,42.075224 H 64.467619 v 20.21223 z M 76.178393,33.881076 C 73.167052,27.762779 69.151928,22.300014 64.467619,17.711291 v 16.169785 z m 9.14556,0 H 99.599945 C 93.577261,26.997992 85.435484,21.316716 76.066864,18.366823 c 3.680528,4.697978 6.803402,9.942232 9.257089,15.514253 z M 15.282359,90.693834 H 32.235101 C 30.22754,84.357027 29.000696,77.583198 28.666102,70.481602 H 9.0366119 c 0.6691874,7.320106 2.7882791,14.203191 6.2457471,20.212232 z M 37.030943,70.481602 c 0.334593,7.101596 1.784499,13.875425 4.015124,20.212232 H 56.214309 V 70.481602 Z m 7.47259,28.40638 c 3.122874,6.118298 7.137998,11.581068 11.710776,16.169788 V 98.887982 Z m -9.145558,0 H 20.970451 c 6.022685,6.883088 14.164462,12.564358 23.533082,15.514258 -3.568998,-4.58873 -6.691871,-9.83299 -9.145558,-15.514258 z m 53.088851,-8.194148 h 16.952734 c 3.45748,-6.118297 5.57657,-12.892126 6.24575,-20.212232 H 92.015825 c -0.334594,7.101596 -1.561437,13.875425 -3.568999,20.212232 z m -8.810965,0 C 81.866485,84.357027 83.20486,77.583198 83.650984,70.481602 H 64.467619 v 20.212232 z m -3.457468,8.194148 H 64.467619 v 16.169788 c 4.684309,-4.47947 8.699433,-9.94223 11.710774,-16.169788 z m 9.14556,0 c -2.453687,5.572028 -5.576561,10.816278 -9.257089,15.514258 9.480151,-2.9499 17.621929,-8.52192 23.533081,-15.514258 z M 32.235101,42.075224 H 15.282359 C 11.824891,48.193521 9.7057993,55.076605 9.0366119,62.287454 H 28.666102 c 0.446126,-6.992338 1.672969,-13.875423 3.568999,-20.21223 z M 60.340964,125 C 27.327729,125 0.56024096,98.778727 0.56024096,66.439157 c 0,-32.339571 26.76748804,-58.5608432 59.78072304,-58.5608432 33.013234,0 59.780726,26.2212722 59.780726,58.5608432 C 120.12169,98.778727 93.354198,125 60.340964,125 Z"
     id="path2742"
     style="fill:#ffff00;fill-opacity:1;stroke-width:1.10388" /><rect
     class="st2"
     height="135"
     id="_x3C_Slice_x3E__100_"
     width="120" /></svg>
