<?xml version="1.0" encoding="UTF-8" standalone="no"?>
<svg
   xmlns:dc="http://purl.org/dc/elements/1.1/"
   xmlns:cc="http://creativecommons.org/ns#"
   xmlns:rdf="http://www.w3.org/1999/02/22-rdf-syntax-ns#"
   xmlns:svg="http://www.w3.org/2000/svg"
   xmlns="http://www.w3.org/2000/svg"
   xmlns:sodipodi="http://sodipodi.sourceforge.net/DTD/sodipodi-0.dtd"
   xmlns:inkscape="http://www.inkscape.org/namespaces/inkscape"
   inkscape:version="1.0 (4035a4fb49, 2020-05-01)"
   sodipodi:docname="you.svg"
   id="svg13"
   xml:space="preserve"
   viewBox="0 0 32 32"
   version="1.1"
   enable-background="new 0 0 32 32"><metadata
     id="metadata19"><rdf:RDF><cc:Work
         rdf:about=""><dc:format>image/svg+xml</dc:format><dc:type
           rdf:resource="http://purl.org/dc/dcmitype/StillImage" /></cc:Work></rdf:RDF></metadata><defs
     id="defs17" /><sodipodi:namedview
     inkscape:current-layer="svg13"
     inkscape:window-maximized="1"
     inkscape:window-y="-9"
     inkscape:window-x="-9"
     inkscape:cy="16"
     inkscape:cx="16"
     inkscape:zoom="25.9375"
     showgrid="false"
     id="namedview15"
     inkscape:window-height="1001"
     inkscape:window-width="1920"
     inkscape:pageshadow="2"
     inkscape:pageopacity="0"
     guidetolerance="10"
     gridtolerance="10"
     objecttolerance="10"
     borderopacity="1"
     bordercolor="#666666"
     pagecolor="#ffffff" /><g
     transform="matrix(1.3714425,0,0,1.3714425,-5.7132408,-6.7334417)"
     id="OC_2"><g
       id="g10"><g
         id="g6" /><path
         style="fill:#888888;fill-opacity:1"
         id="path8"
         fill="#E71241"
         d="m 25.965,11.664 c 0,0 -0.198,-1.496 -0.808,-2.155 C 24.383,8.646 23.517,8.641 23.119,8.592 20.273,8.371 16.004,8.371 16.004,8.371 h -0.01 c 0,0 -4.269,0 -7.115,0.221 -0.396,0.049 -1.262,0.054 -2.036,0.917 -0.609,0.659 -0.808,2.155 -0.808,2.155 0,0 -0.203,1.755 -0.203,3.511 v 1.645 c 0,1.757 0.203,3.511 0.203,3.511 0,0 0.198,1.495 0.808,2.153 0.774,0.863 1.79,0.837 2.242,0.928 1.627,0.166 6.915,0.217 6.915,0.217 0,0 4.274,-0.008 7.12,-0.226 0.397,-0.051 1.264,-0.056 2.038,-0.919 0.609,-0.657 0.808,-2.153 0.808,-2.153 0,0 0.203,-1.755 0.203,-3.511 v -1.645 c 0,-1.756 -0.204,-3.511 -0.204,-3.511 z M 13.46,19.815 V 12.186 L 19.818,16 Z" /></g></g></svg>
