<?xml version="1.0" encoding="UTF-8" standalone="no"?>
<svg
   xmlns:dc="http://purl.org/dc/elements/1.1/"
   xmlns:cc="http://creativecommons.org/ns#"
   xmlns:rdf="http://www.w3.org/1999/02/22-rdf-syntax-ns#"
   xmlns:svg="http://www.w3.org/2000/svg"
   xmlns="http://www.w3.org/2000/svg"
   xmlns:sodipodi="http://sodipodi.sourceforge.net/DTD/sodipodi-0.dtd"
   xmlns:inkscape="http://www.inkscape.org/namespaces/inkscape"
   inkscape:version="1.0 (4035a4fb49, 2020-05-01)"
   sodipodi:docname="z3.svg"
   id="svg32"
   version="1.1"
   viewBox="0 0 1080 1080">
  <metadata
     id="metadata36">
    <rdf:RDF>
      <cc:Work
         rdf:about="">
        <dc:format>image/svg+xml</dc:format>
        <dc:type
           rdf:resource="http://purl.org/dc/dcmitype/StillImage" />
        <dc:title>Sem título-1</dc:title>
      </cc:Work>
    </rdf:RDF>
  </metadata>
  <sodipodi:namedview
     inkscape:current-layer="svg32"
     inkscape:window-maximized="1"
     inkscape:window-y="-9"
     inkscape:window-x="-9"
     inkscape:cy="540"
     inkscape:cx="540"
     inkscape:zoom="0.78518519"
     showgrid="false"
     id="namedview34"
     inkscape:window-height="1001"
     inkscape:window-width="1920"
     inkscape:pageshadow="2"
     inkscape:pageopacity="0"
     guidetolerance="10"
     gridtolerance="10"
     objecttolerance="10"
     borderopacity="1"
     bordercolor="#666666"
     pagecolor="#ffffff" />
  <defs
     id="defs4">
    <style
       id="style2">.cls-1{fill:#fff;}.cls-2,.cls-5{fill:none;stroke-miterlimit:10;stroke-width:10px;}.cls-2{stroke:#ff0;}.cls-3{fill:#f7fe00;}.cls-4{fill:#ff0;}.cls-5{stroke:#000;}</style>
  </defs>
  <title
     id="title6">Sem título-1</title>
  <g
     data-name="Camada 1"
     id="Camada_1">
    <rect
       id="rect8"
       height="1079"
       width="1079"
       y="0.5"
       x="0.5" />
    <path
       id="path10"
       d="M1079,1V1079H1V1H1079m1-1H0V1080H1080V0Z"
       class="cls-1" />
  </g>
  <g
     data-name="Camada 3"
     id="Camada_3">
    <rect
       id="rect13"
       height="990"
       width="990"
       y="45"
       x="45"
       class="cls-2" />
  </g>
  <g
     data-name="Camada 2"
     id="Camada_2">
    <path
       id="path16"
       d="M139.8,347.85H527.65L142.36,744.28l-3.58,3.41V675.48L375.17,431.91s11.26-12.39-8.19-11.85-228.2-2.16-228.2-2.16Z"
       class="cls-3" />
    <path
       id="path18"
       d="M533,763.41H141.6L350.05,547.77,529.58,364l-1.93,72.2-230,243.13s-11.26,12.39,8.18,11.85S534,693.36,534,693.36Z"
       class="cls-3" />
  </g>
  <g
     data-name="Camada 6"
     id="Camada_6">
    <polyline
       id="polyline21"
       points="611 348 923 348 923 442 611 442"
       class="cls-4" />
    <polyline
       id="polyline23"
       points="611 669 923 669 923 763 611 763"
       class="cls-4" />
    <rect
       id="rect25"
       transform="translate(323 1429) rotate(-90)"
       height="94"
       width="410"
       y="506"
       x="671"
       class="cls-4" />
    <polyline
       id="polyline27"
       points="688 514 923 514 923 608 688 608"
       class="cls-4" />
    <line
       id="line29"
       y2="351"
       x2="875.21"
       y1="763"
       x1="875.21"
       class="cls-5" />
  </g>
</svg>
