<svg xmlns="http://www.w3.org/2000/svg" viewBox="0 0 1080 1080"><defs><style>.ac986f17-fcc9-47ad-a522-0e9da7dff72a{fill:#fff;}.ad4d150d-1041-4605-8d31-80a57f81db72,.ae1282ec-62af-4f5d-a677-25a820221563,.b1cca656-7c18-4818-a36d-22ff806641cc{fill:none;}.a12ae465-482d-4a1f-9dc0-90702a651652,.ad4d150d-1041-4605-8d31-80a57f81db72,.ae1282ec-62af-4f5d-a677-25a820221563{stroke:#ff0;}.a12ae465-482d-4a1f-9dc0-90702a651652,.ab776adc-22ae-4be9-9883-648f37bdfb12,.ad4d150d-1041-4605-8d31-80a57f81db72,.ae1282ec-62af-4f5d-a677-25a820221563,.b1cca656-7c18-4818-a36d-22ff806641cc{stroke-miterlimit:10;}.ad4d150d-1041-4605-8d31-80a57f81db72,.b1cca656-7c18-4818-a36d-22ff806641cc{stroke-width:10px;}.f88886c9-c56d-44cb-a605-28dda2654af5{fill:#f7fe00;}.a12ae465-482d-4a1f-9dc0-90702a651652,.ab776adc-22ae-4be9-9883-648f37bdfb12,.edcbaa26-53b3-4f57-bfdf-0fc45a73fd43{fill:#ff0;}.ab776adc-22ae-4be9-9883-648f37bdfb12,.b1cca656-7c18-4818-a36d-22ff806641cc{stroke:#000;}.a12ae465-482d-4a1f-9dc0-90702a651652{stroke-width:6px;}.ae1282ec-62af-4f5d-a677-25a820221563{stroke-width:7px;}.ab776adc-22ae-4be9-9883-648f37bdfb12{font-size:150px;stroke-width:4px;font-family:Inlanders-Bold, Inlanders;font-weight:700;}.b93949b7-5814-4a57-a575-7cc298ff3e95{letter-spacing:-0.1em;}.b1b52a4b-260f-42b8-8e05-9b21cf46eb21{font-size:120px;}</style></defs><title>Z2-PLAY</title><g id="b80d0d4c-8aea-4763-85af-919eeae51019" data-name="Camada 1"><rect x="0.5" y="0.5" width="1079" height="1079"/><path class="ac986f17-fcc9-47ad-a522-0e9da7dff72a" d="M1079,1V1079H1V1H1079m1-1H0V1080H1080V0Z"/></g><g id="b2a21c4d-4d71-4b9c-9f8c-5137ad61d3c1" data-name="Camada 3"><rect class="ad4d150d-1041-4605-8d31-80a57f81db72" x="45" y="45" width="990" height="990"/></g><g id="aefa15f1-29a2-4310-b32d-3a28fe8be5c8" data-name="Camada 2"><path class="f88886c9-c56d-44cb-a605-28dda2654af5" d="M168.8,305.85H556.65L171.36,702.28l-3.58,3.41V633.48L404.17,389.91s11.26-12.39-8.19-11.85-228.2-2.16-228.2-2.16Z"/><path class="f88886c9-c56d-44cb-a605-28dda2654af5" d="M562,721.41H170.6L379.05,505.77,558.58,322l-1.93,72.2-230,243.13s-11.26,12.39,8.18,11.85S563,651.36,563,651.36Z"/></g><g id="bc1b8f1d-d648-4674-b652-01871cad9e94" data-name="Camada 4"><g id="f106d360-651d-4907-a2a1-1dca0a251204" data-name="Camada 5"><polygon class="edcbaa26-53b3-4f57-bfdf-0fc45a73fd43" points="913.88 461.19 913.88 511.55 910.43 513.09 705.9 604.36 653.8 627.61 631.05 637.76 626.82 627.61 605.44 576.3 605.44 525.67 631.8 513.91 813.42 432.86 888.18 399.51 913.88 461.19"/><rect class="edcbaa26-53b3-4f57-bfdf-0fc45a73fd43" x="605.44" y="627.6" width="314.72" height="93.4"/><polygon class="edcbaa26-53b3-4f57-bfdf-0fc45a73fd43" points="705.9 513.91 705.9 627.61 605.44 627.61 605.44 525.67 631.8 513.91 705.9 513.91"/><rect class="edcbaa26-53b3-4f57-bfdf-0fc45a73fd43" x="821.27" y="584.56" width="98.89" height="136.44"/><rect class="edcbaa26-53b3-4f57-bfdf-0fc45a73fd43" x="599.16" y="306" width="314.72" height="93.4" transform="translate(1513.04 705.4) rotate(-180)"/><rect class="edcbaa26-53b3-4f57-bfdf-0fc45a73fd43" x="813.42" y="399.4" width="100.46" height="112.07"/><rect class="edcbaa26-53b3-4f57-bfdf-0fc45a73fd43" x="599.16" y="306" width="98.89" height="136.44" transform="translate(1297.21 748.44) rotate(-180)"/><polyline class="b1cca656-7c18-4818-a36d-22ff806641cc" points="874.16 297 874.16 390.4 874.16 401.67 874.16 469 824.42 490.52 716.9 537.02 659.16 562 659.16 618.6 659.16 621.12 659 725"/></g></g><g id="e0f46975-4c03-4e4d-949d-caf9862b26c6" data-name="Camada 6"><rect class="a12ae465-482d-4a1f-9dc0-90702a651652" x="657" y="849" width="134" height="106" rx="13.8"/><g id="b864c40a-3c7b-4bb5-aa12-e5e0be625f66" data-name="Camada 7"><path d="M759.55,894.53,712.7,867.47a8.63,8.63,0,0,0-13,7.48v54.1a8.63,8.63,0,0,0,13,7.48l46.85-27.06A8.62,8.62,0,0,0,759.55,894.53Z"/><line class="ae1282ec-62af-4f5d-a677-25a820221563" x1="760" y1="880" x2="690" y2="918"/></g><text class="ab776adc-22ae-4be9-9883-648f37bdfb12" transform="translate(315.2 956.04)">Pl<tspan class="b93949b7-5814-4a57-a575-7cc298ff3e95" x="159.96" y="0">a</tspan><tspan x="239.43" y="0">y</tspan><tspan class="b1b52a4b-260f-42b8-8e05-9b21cf46eb21" x="328.78" y="0"> </tspan></text></g></svg>