<svg xmlns="http://www.w3.org/2000/svg" viewBox="0 0 1122 1122"><defs><style>.ffe2eae6-bc5d-4da4-9a80-bfa9c97ec91f{fill:#fff;}.ab637ac2-7ddb-4d41-a557-423fb8c761e3,.bdf48d42-0f0b-4502-b9c8-52d6c88ceeb2,.fadec650-1c6a-4a62-9506-081b34b5b872{fill:none;}.ab637ac2-7ddb-4d41-a557-423fb8c761e3,.b21c94ab-e060-492b-a6e3-e6d772216936,.fadec650-1c6a-4a62-9506-081b34b5b872{stroke:#ff0;}.ab637ac2-7ddb-4d41-a557-423fb8c761e3,.b21c94ab-e060-492b-a6e3-e6d772216936,.bdf48d42-0f0b-4502-b9c8-52d6c88ceeb2,.fadec650-1c6a-4a62-9506-081b34b5b872,.fd219eb4-e4d2-438a-a2ef-04797b5b9be0{stroke-miterlimit:10;}.ab637ac2-7ddb-4d41-a557-423fb8c761e3,.bdf48d42-0f0b-4502-b9c8-52d6c88ceeb2{stroke-width:10px;}.a0731881-3d0d-469f-b602-553c74f3aaf4{fill:#f7fe00;}.b21c94ab-e060-492b-a6e3-e6d772216936,.bef4339b-3134-4e1f-8ed5-4b1b61f415e0,.fd219eb4-e4d2-438a-a2ef-04797b5b9be0{fill:#ff0;}.bdf48d42-0f0b-4502-b9c8-52d6c88ceeb2,.fd219eb4-e4d2-438a-a2ef-04797b5b9be0{stroke:#000;}.b21c94ab-e060-492b-a6e3-e6d772216936{stroke-width:6px;}.fadec650-1c6a-4a62-9506-081b34b5b872{stroke-width:7px;}.fd219eb4-e4d2-438a-a2ef-04797b5b9be0{font-size:150px;stroke-width:4px;font-family:Inlanders-Bold, Inlanders;font-weight:700;}.adad80d2-4c33-4b4a-a852-0c6e1f4742e0{letter-spacing:-0.1em;}.a620cc23-83f3-46b5-bfaf-d8f092da41a6{font-size:120px;}</style></defs><title>Z3- PLAY</title><g id="e983918a-7fb8-48c0-8a78-4cf1edc17e1c" data-name="Camada 1"><rect x="0.5" y="0.5" width="1121" height="1121"/><path class="ffe2eae6-bc5d-4da4-9a80-bfa9c97ec91f" d="M1100-20V1100H-20V-20H1100m1-1H-21V1101H1101V-21Z" transform="translate(21 21)"/></g><g id="ab941a17-31a6-4ab9-8f59-481f945919ab" data-name="Camada 3"><rect class="ab637ac2-7ddb-4d41-a557-423fb8c761e3" x="66" y="66" width="990" height="990"/></g><g id="a4e0b3f4-ce71-4210-8800-e07961043bcb" data-name="Camada 2"><path class="a0731881-3d0d-469f-b602-553c74f3aaf4" d="M168.8,305.85H556.65L171.36,702.28l-3.58,3.41V633.48L404.17,389.91s11.26-12.39-8.19-11.85-228.2-2.16-228.2-2.16Z" transform="translate(21 21)"/><path class="a0731881-3d0d-469f-b602-553c74f3aaf4" d="M562,721.41H170.6L379.05,505.77,558.58,322l-1.93,72.2-230,243.13s-11.26,12.39,8.18,11.85S563,651.36,563,651.36Z" transform="translate(21 21)"/></g><g id="b25ebb36-c3ad-4f8e-a103-24687bc9944d" data-name="Camada 4"><rect class="bef4339b-3134-4e1f-8ed5-4b1b61f415e0" x="637" y="325" width="312" height="94"/><rect class="bef4339b-3134-4e1f-8ed5-4b1b61f415e0" x="637" y="646" width="312" height="94"/><rect class="bef4339b-3134-4e1f-8ed5-4b1b61f415e0" x="676" y="462" width="410" height="94" transform="translate(393 1411) rotate(-90)"/><rect class="bef4339b-3134-4e1f-8ed5-4b1b61f415e0" x="714" y="491" width="235" height="94"/><line class="bdf48d42-0f0b-4502-b9c8-52d6c88ceeb2" x1="902" y1="740" x2="902" y2="325"/></g><g id="bf931d33-71b7-477d-96e6-dcc85aabbb8b" data-name="Camada 6"><rect class="b21c94ab-e060-492b-a6e3-e6d772216936" x="678" y="870" width="134" height="106" rx="13.8"/><g id="ee0661bd-5fbf-41f8-9421-431a6b293288" data-name="Camada 7"><path d="M759.55,894.53,712.7,867.47a8.63,8.63,0,0,0-13,7.48v54.1a8.63,8.63,0,0,0,13,7.48l46.85-27.06A8.62,8.62,0,0,0,759.55,894.53Z" transform="translate(21 21)"/><line class="fadec650-1c6a-4a62-9506-081b34b5b872" x1="781" y1="901" x2="711" y2="939"/></g><text class="fd219eb4-e4d2-438a-a2ef-04797b5b9be0" transform="translate(336.2 977.04)">Pl<tspan class="adad80d2-4c33-4b4a-a852-0c6e1f4742e0" x="159.96" y="0">a</tspan><tspan x="239.43" y="0">y</tspan><tspan class="a620cc23-83f3-46b5-bfaf-d8f092da41a6" x="328.78" y="0"> </tspan></text></g></svg>