<svg xmlns="http://www.w3.org/2000/svg" viewBox="0 0 1080 1080"><defs><style>.aae9e946-cdfe-4d7e-be4f-b9befdda4e4d{fill:#fff;}.aab47a2c-b075-4cdf-b38d-e132d18c8f74,.b5f6bf0f-314f-4945-b19d-9a755239d79b,.b91559e8-f03f-44f7-ad97-14f5e1526bf7{fill:none;}.a91062c0-b2dc-4f2c-8681-2493623a75d5,.aab47a2c-b075-4cdf-b38d-e132d18c8f74,.b5f6bf0f-314f-4945-b19d-9a755239d79b{stroke:#ff0;}.a874313e-c232-48f3-983d-bf3131c7bb68,.a91062c0-b2dc-4f2c-8681-2493623a75d5,.aab47a2c-b075-4cdf-b38d-e132d18c8f74,.b5f6bf0f-314f-4945-b19d-9a755239d79b,.b91559e8-f03f-44f7-ad97-14f5e1526bf7{stroke-miterlimit:10;}.aab47a2c-b075-4cdf-b38d-e132d18c8f74,.b91559e8-f03f-44f7-ad97-14f5e1526bf7{stroke-width:10px;}.a20857e3-b2df-4a13-921e-42f301e9b105{fill:#f7fe00;}.a4eb58bc-42b9-490f-96f5-13b6f7e0de73,.a874313e-c232-48f3-983d-bf3131c7bb68,.a91062c0-b2dc-4f2c-8681-2493623a75d5{fill:#ff0;}.a874313e-c232-48f3-983d-bf3131c7bb68,.b91559e8-f03f-44f7-ad97-14f5e1526bf7{stroke:#000;}.a91062c0-b2dc-4f2c-8681-2493623a75d5{stroke-width:6px;}.b5f6bf0f-314f-4945-b19d-9a755239d79b{stroke-width:7px;}.a874313e-c232-48f3-983d-bf3131c7bb68{font-size:150px;stroke-width:4px;font-family:Inlanders-Bold, Inlanders;font-weight:700;}.b1bd01d1-f604-4445-bcc1-48b4388ac498{letter-spacing:-0.1em;}.ec2a807d-9536-4fa6-a870-ee146b02ab12{font-size:120px;}</style></defs><title>Z1-PLAY</title><g id="b9cd6f9f-c4e0-426b-8c5a-a2d09958c3f7" data-name="Camada 1"><rect x="0.5" y="0.5" width="1079" height="1079"/><path class="aae9e946-cdfe-4d7e-be4f-b9befdda4e4d" d="M1079,1V1079H1V1H1079m1-1H0V1080H1080V0Z"/></g><g id="f1c8c3e1-d2ce-4c5d-a67a-205ad904d287" data-name="Camada 3"><rect class="aab47a2c-b075-4cdf-b38d-e132d18c8f74" x="45" y="45" width="990" height="990"/></g><g id="add045ef-a1f7-48ed-ac5e-a72a35891c5c" data-name="Camada 2"><path class="a20857e3-b2df-4a13-921e-42f301e9b105" d="M168.8,305.85H556.65L171.36,702.28l-3.58,3.41V633.48L404.17,389.91s11.26-12.39-8.19-11.85-228.2-2.16-228.2-2.16Z"/><path class="a20857e3-b2df-4a13-921e-42f301e9b105" d="M562,721.41H170.6L379.05,505.77,558.58,322l-1.93,72.2-230,243.13s-11.26,12.39,8.18,11.85S563,651.36,563,651.36Z"/></g><g id="b2dc66fc-2d79-4733-941e-f67ca9b1a2b7" data-name="Camada 4"><rect class="a4eb58bc-42b9-490f-96f5-13b6f7e0de73" x="640" y="651" width="312" height="70"/><rect class="a4eb58bc-42b9-490f-96f5-13b6f7e0de73" x="724.4" y="306.52" width="136.59" height="347.5"/><rect class="a4eb58bc-42b9-490f-96f5-13b6f7e0de73" x="646.63" y="307" width="78.24" height="88.33"/><line class="b91559e8-f03f-44f7-ad97-14f5e1526bf7" x1="790" y1="751" x2="790" y2="285"/></g><g id="eca7c5fc-7303-474c-9c83-90ece8299469" data-name="Camada 6"><rect class="a91062c0-b2dc-4f2c-8681-2493623a75d5" x="657" y="849" width="134" height="106" rx="13.8"/><g id="a2f90434-d422-44eb-ac4d-84595e19709e" data-name="Camada 7"><path d="M759.55,894.53,712.7,867.47a8.63,8.63,0,0,0-13,7.48v54.1a8.63,8.63,0,0,0,13,7.48l46.85-27.06A8.62,8.62,0,0,0,759.55,894.53Z"/><line class="b5f6bf0f-314f-4945-b19d-9a755239d79b" x1="760" y1="880" x2="690" y2="918"/></g><text class="a874313e-c232-48f3-983d-bf3131c7bb68" transform="translate(315.2 956.04)">Pl<tspan class="b1bd01d1-f604-4445-bcc1-48b4388ac498" x="159.96" y="0">a</tspan><tspan x="239.43" y="0">y</tspan><tspan class="ec2a807d-9536-4fa6-a870-ee146b02ab12" x="328.78" y="0"> </tspan></text></g></svg>